<?xml version="1.0" encoding="UTF-8" standalone="no"?>
<!-- Created with Inkscape (http://www.inkscape.org/) -->

<svg
   xmlns:dc="http://purl.org/dc/elements/1.1/"
   xmlns:cc="http://creativecommons.org/ns#"
   xmlns:rdf="http://www.w3.org/1999/02/22-rdf-syntax-ns#"
   xmlns:svg="http://www.w3.org/2000/svg"
   xmlns="http://www.w3.org/2000/svg"
   xmlns:sodipodi="http://sodipodi.sourceforge.net/DTD/sodipodi-0.dtd"
   xmlns:inkscape="http://www.inkscape.org/namespaces/inkscape"
   version="1.1"
   width="550"
   height="130"
   id="svg3965"
   inkscape:version="0.91 r13725"
   sodipodi:docname="gnuradio_logo_noicon_glyphs_as_paths.svg">
  <sodipodi:namedview
     pagecolor="#ffffff"
     bordercolor="#666666"
     borderopacity="1"
     objecttolerance="10"
     gridtolerance="10"
     guidetolerance="10"
     inkscape:pageopacity="0"
     inkscape:pageshadow="2"
     inkscape:window-width="1918"
     inkscape:window-height="1060"
     id="namedview5036"
     showgrid="false"
     inkscape:zoom="1.9938462"
     inkscape:cx="319.14637"
     inkscape:cy="87.200523"
     inkscape:window-x="0"
     inkscape:window-y="18"
     inkscape:window-maximized="1"
     inkscape:current-layer="svg3965"
     fit-margin-top="0"
     fit-margin-left="0"
     fit-margin-right="0"
     fit-margin-bottom="0" />
  <defs
     id="defs3967" />
  <metadata
     id="metadata3970">
    <rdf:RDF>
      <cc:Work
         rdf:about="">
        <dc:format>image/svg+xml</dc:format>
        <dc:type
           rdf:resource="http://purl.org/dc/dcmitype/StillImage" />
        <dc:title></dc:title>
      </cc:Work>
    </rdf:RDF>
  </metadata>
  <path
     inkscape:connector-curvature="0"
     style="fill:#ff6905;fill-rule:evenodd"
     id="_76324888"
     d="m 324.31101,46.021491 16.43492,0 c 0.8217,-1.780867 2.12634,-3.026339 3.9802,-3.694252 1.9885,-0.71752 4.11661,-0.998859 6.22417,-0.998859 3.94548,0 11.00658,0.721418 10.99843,6.029646 -0.004,2.321575 -0.0177,4.644567 0.007,6.966142 l 7e-4,0.08858 -0.0886,0.0021 c -5.95842,0.141732 -12.12094,0.144921 -18.03862,0.831969 -4.54854,0.527952 -9.19843,1.533897 -13.11449,4.015984 -0.73807,0.467716 -1.4446,0.983976 -2.11358,1.546299 -4.51417,3.794173 -6.03496,9.03685 -6.03496,14.792244 0,13.389094 9.24732,20.716298 22.14921,20.732243 l 0.25228,0 c 3.35658,-0.01098 6.7376,-0.267874 10.07469,-0.612283 2.40449,-0.262559 4.76398,-0.801142 7.0402,-1.618228 l 0.12047,-0.04323 0,2.248583 15.74504,0 c 7.1e-4,-16.648228 0.16228,-33.295747 0.16228,-49.943975 0,-5.841851 -2.32016,-10.475079 -7.14827,-13.793031 -5.7033,-3.897284 -14.03504,-4.698426 -20.75102,-4.698426 -6.6522,0 -13.78913,1.236615 -19.00949,5.666103 -3.92279,3.274724 -6.2185,7.425708 -6.8896,12.482362 z m 37.89106,21.064605 0,4.023425 c -0.0319,2.975315 -0.21224,6.412677 -2.44771,8.648859 -2.88673,2.88744 -8.63398,3.373582 -12.50327,3.373582 -2.1972,0 -5.36917,-0.282401 -7.0487,-1.866968 -2.58413,-2.437441 -2.42433,-6.571772 -1.11331,-9.611929 1.13174,-2.625945 5.3387,-3.501851 7.83922,-3.89126 4.86708,-0.758268 10.2607,-0.729567 15.18484,-0.676772 l 0.0889,0.0011 z" />
  <path
     inkscape:connector-curvature="0"
     style="fill:#ff6905;fill-rule:evenodd"
     id="_97397504"
     d="m 499.54172,95.476489 c 5.49815,1.217481 11.01472,1.094528 16.45193,-0.380551 6.32196,-1.378701 11.28791,-4.90996 15.08315,-10.125708 2.01082,-2.92252 3.42212,-6.289724 4.455,-9.671102 1.33157,-4.333819 1.73161,-9.091772 1.73161,-13.607362 0,-6.595158 -1.15087,-13.157008 -4.20343,-19.055551 -2.9583,-6.06437 -7.5607,-10.388267 -13.83838,-12.87 -5.8989,-2.148661 -12.15142,-2.431771 -18.33272,-1.6037 -6.60578,0.887598 -12.18897,3.734645 -16.56319,8.777125 -2.8357,3.198544 -4.67504,7.019292 -5.80252,11.121378 -1.22031,4.364291 -1.85988,8.843386 -1.85988,13.376693 0,5.332322 0.71433,10.607244 2.21918,15.72555 1.38259,4.65378 3.71374,8.812914 7.4257,12.004016 3.70134,3.32185 8.43272,5.228504 13.23355,6.309212 z m -6.18555,-32.91307 c -0.26717,-5.931496 0.56338,-12.498306 4.72606,-17.067047 1.43504,-1.408818 3.60673,-2.298188 5.49992,-2.880708 2.50583,-0.749764 5.02512,-0.699449 7.50614,0.127913 2.88142,0.960236 5.01555,3.254173 6.6104,5.752914 2.39208,3.721181 2.87185,9.138543 2.87185,13.451102 -0.11445,4.474488 -0.68741,10.591653 -3.23292,14.422676 -1.67563,2.513268 -3.91393,4.765394 -6.88748,5.625709 -2.55401,0.738779 -5.1183,0.661181 -7.61421,-0.256181 -1.87476,-0.688819 -4.02413,-1.733386 -5.24657,-3.37252 -3.25134,-3.917834 -4.02662,-10.917283 -4.23319,-15.803858 z" />
  <path
     d="m 453.01101,23.156523 17.18008,0 0,-5.11795 c 0,-2.30776 -0.81921,-4.275 -2.45091,-5.90634 -1.06689,-1.06689 -2.31838,-1.83047 -3.77291,-2.19756 l -10.95626,7.1e-4 0,13.22114 z"
     id="path3476"
     style="fill:#72706f;fill-rule:evenodd"
     inkscape:connector-curvature="0" />
  <path
     inkscape:connector-curvature="0"
     style="fill:#ff6905;fill-rule:evenodd"
     id="_97397312"
     d="m 453.01101,27.894286 0,68.378384 17.18008,0 0,-60.0424 c 0,-2.29748 -0.82666,-4.261181 -2.45091,-5.885078 -1.62425,-1.624252 -3.5876,-2.450906 -5.88508,-2.450906 l -8.84409,0 z" />
  <path
     d="m 429.77046,9.935383 0,28.24937 -0.16583,-0.2615 c -2.01756,-3.17586 -4.68602,-5.71322 -7.90653,-7.65425 -3.36898,-1.77555 -7.09654,-2.46578 -10.88079,-2.46578 -7.93594,0 -14.21291,3.36862 -19.02401,9.63956 -5.47052,7.15748 -7.17981,16.18264 -7.17981,25.011144 0,8.766503 1.6363,17.932333 7.1791,24.988823 2.5735,3.27827 5.94779,5.46095 9.88724,6.78756 4.07906,1.40173 8.29843,2.11217 12.60957,2.11217 7.91185,0 15.27838,-2.07319 22.0337,-6.18981 8.20453,-4.98401 10.14023,-14.81031 10.14023,-23.739803 l 0,-48.395904 c 0,-2.24185 -0.91878,-4.14709 -2.45232,-5.75965 -1.06547,-1.12039 -2.32937,-1.93748 -3.82075,-2.32264 l -10.4198,7.1e-4 z m -3.74386,37.56154 c 2.90268,4.06842 3.74386,9.301894 3.74386,14.194844 0,5.00102 -0.6502,10.918703 -3.48874,15.188743 -2.5565,3.5837 -6.10866,5.24586 -10.48925,5.24586 -4.43658,0 -8.13012,-1.58315 -10.74331,-5.24515 -3.02315,-4.23815 -3.74279,-10.120753 -3.74279,-15.189453 0,-4.78311 0.80185,-10.018704 3.74315,-13.940434 2.50441,-3.51 5.92618,-5.24516 10.23484,-5.24516 4.36181,0 7.99972,1.5672 10.74224,4.99075 z"
     id="path3480"
     style="fill:#ff6905;fill-rule:evenodd"
     inkscape:connector-curvature="0" />
  <path
     inkscape:connector-curvature="0"
     style="fill:#ff6905;fill-rule:evenodd"
     id="_97397120"
     d="m 249.26731,96.275151 17.43343,0 0,-34.41933 18.69909,0 c 9.58465,0 13.41851,4.896142 13.41851,14.162598 l 0,0.217559 c -0.002,2.819055 -0.0457,5.63811 -0.0397,8.457165 l -3.5e-4,0.143858 c -0.003,1.530355 0.007,3.061418 0.04,4.592835 l 0,6.845315 17.43378,0 0,-23.26748 c 0.15909,-4.833779 -0.86493,-9.762165 -3.94654,-13.601338 -1.81524,-2.261339 -4.34799,-4.113071 -7.09866,-5.060551 l -0.2452,-0.08433 0.24484,-0.08575 c 3.8863,-1.358858 7.2241,-3.59185 9.37524,-7.161378 2.5774,-3.877795 3.45721,-8.504645 3.45721,-13.097834 0,-6.807756 -1.69689,-13.38626 -6.91335,-18.055275 -5.42374,-4.806142 -13.54181,-5.9258269 -20.51787,-5.9258269 l -32.49709,0 c -2.44063,0 -4.53898,0.8503939 -6.26563,2.5777559 -1.72772,1.727362 -2.57776,3.825 -2.57776,6.265984 l 0,77.496022 z m 48.08977,-68.883306 c 2.49945,2.127756 3.2485,5.330551 3.2485,8.493307 0,3.169488 -0.74303,6.381142 -3.24992,8.515984 -2.66457,2.246811 -6.62634,2.752087 -9.98717,2.752087 l -20.66775,0 0,-22.769291 21.66271,0 c 3.21733,0 6.63874,0.652677 8.99363,3.007913 z" />
  <path
     inkscape:connector-curvature="0"
     style="fill:#838281;fill-rule:evenodd"
     id="_76325896"
     d="m 64.242909,33.920743 c -1.132441,-1.968307 -2.732953,-3.612047 -4.528346,-4.986496 -3.507874,-2.445591 -7.929567,-3.178701 -12.125551,-3.178701 -6.275197,0 -11.573858,2.142284 -15.542008,7.06252 -4.398307,5.824488 -5.764252,13.212992 -5.764252,20.365511 0,7.167756 1.367717,14.674252 5.999528,20.377559 4.113779,5.105905 9.800078,7.070314 16.253503,7.070314 4.722166,0 9.160866,-1.192677 12.783189,-4.327795 3.474567,-3.154606 5.364567,-7.316929 6.258898,-11.843858 l -13.056024,0 0,-14.659015 29.817283,0 0,32.099172 0,10.819843 0,2.778307 0,0.925511 0,0.135355 -15.557598,0 0,-9.25937 c -2.33185,2.736496 -5.105551,5.00563 -8.407205,6.597637 l -0.01417,0.0071 -0.01417,0.006 C 55.99161,95.754639 51.360153,96.55897 46.643303,96.55897 35.63354,96.55897 25.899721,93.153852 18.555509,84.786332 10.596178,76.105939 7.999997,64.686215 7.999997,53.183577 c 0,-11.374015 2.549409,-22.674684 10.314212,-31.341259 7.564961,-8.402953 17.347677,-12.0139368 28.570748,-12.0139368 9.084684,0 17.979802,1.9668898 25.392401,7.4359838 l 0.01063,0.0081 0.01063,0.0089 c 6.628819,5.34437 10.530709,12.286063 11.791417,20.704252 l 0.110552,0.738779 -12.064252,0 c -3.574134,0 -6.228425,-1.651535 -7.893779,-4.803661 z" />
  <path
     inkscape:connector-curvature="0"
     style="fill:#838281;fill-rule:evenodd"
     id="_76325824"
     d="m 90.718499,19.126727 0,60.332597 0,16.071732 0,0.892559 17.359721,0 0,-0.892559 0,-16.071732 0,-42.718463 34.97421,58.790195 0.55808,0.892559 4.60877,0 12.95894,-0.0053 -0.004,-0.887244 0,-85.5921236 -17.35973,0 0,58.7905496 -34.74035,-58.7905496 -9.421298,0 c -2.477126,0.1697246 -4.593543,1.1221656 -6.330118,2.8583856 -1.736221,1.735866 -2.603976,3.831732 -2.603976,6.329409 z" />
  <path
     inkscape:connector-curvature="0"
     style="fill:#838281;fill-rule:evenodd"
     id="_76325752"
     d="m 167.31417,19.359523 0,45.897873 c 0,22.060275 8.91921,31.268975 33.64299,31.268975 26.02807,0 34.8222,-8.438031 34.8222,-31.268975 l 0,-55.3184636 -17.61413,0 0,53.3494476 c 0,12.309094 -4.15276,18.376653 -16.79882,18.376653 -12.59008,0 -16.18476,-6.29752 -16.18476,-18.376653 l 0,-53.3494476 -8.93374,0 c -2.47678,0 -4.5939,0.9527956 -6.32977,2.8580316 -1.73622,1.905236 -2.60397,4.086141 -2.60397,6.562559 z" />
  <path
     d="m 235.68936,10.028932 -17.43449,0 0,53.259448 c 0,12.19996 -4.0546,18.466653 -16.88846,18.466653 -12.80906,0 -16.27512,-6.546614 -16.27512,-18.466653 l 0,-53.259448 -8.84374,0 c -2.50334,0 -4.58079,0.982914 -6.26279,2.828977 -1.68449,1.847834 -2.58059,3.996496 -2.58059,6.501614 l 0,45.897873 c 0,23.583897 10.59661,31.178975 33.55299,31.178975 9.32315,0 21.55287,-0.879803 28.30216,-8.235708 5.50984,-6.005197 6.43004,-15.162874 6.43004,-22.943267 l 0,-55.228464 z"
     id="_76325656"
     style="fill:#72706f;fill-rule:evenodd"
     inkscape:connector-curvature="0" />
  <path
     d="m 90.807082,96.334324 17.180078,0 0,-59.920865 35.14075,59.070471 0.53185,0.850394 4.55846,0 12.86823,-0.006 -0.004,-0.797244 0,-85.502124 -17.17973,0 0,59.029723 -34.88208,-59.029723 -9.365318,0 c -2.440275,0.16689 -4.540039,1.10126 -6.27059,2.832166 -1.734449,1.73374 -2.57811,3.81437 -2.57811,6.265984 l 0,77.207242 z"
     id="_76325560"
     style="fill:#72706f;fill-rule:evenodd"
     inkscape:connector-curvature="0" />
  <path
     d="m 84.096058,38.634404 -0.09461,-0.635315 C 82.744995,29.608538 78.855861,22.683145 72.241216,17.350822 l -0.0071,-0.0067 -0.01063,-0.0074 C 64.827909,11.879956 55.947673,9.9187356 46.884957,9.9187356 c -11.170276,0 -20.94059,3.5826374 -28.504133,11.9838184 -7.752048,8.652402 -10.2911813,19.940669 -10.2911813,31.281023 0,11.466496 2.5851963,22.874881 10.5331883,31.542873 7.343504,8.367165 17.068819,11.742874 28.019763,11.742874 4.700906,0 9.32811,-0.803622 13.667244,-2.64189 l 0.01063,-0.005 0.01417,-0.0064 c 3.259488,-1.571103 6.037087,-3.827481 8.37815,-6.574961 l 0.158386,-0.186023 0,9.414212 15.378306,0 0,-46.578897 -29.637282,0 0,14.47937 13.075157,0 -0.02126,0.107362 c -0.900354,4.557048 -2.805236,8.731772 -6.287953,11.893819 -3.63933,3.149646 -8.099291,4.350472 -12.842362,4.350472 -6.458385,0 -12.181535,-1.962992 -16.323306,-7.103267 -4.645984,-5.721024 -6.019725,-13.246299 -6.019725,-20.434606 0,-7.172008 1.372678,-14.579645 5.784449,-20.421496 3.993307,-4.952125 9.324921,-7.096535 15.611456,-7.096535 4.216536,0 8.653819,0.73878 12.180118,3.196772 1.803898,1.381181 3.413977,3.035551 4.552795,5.015197 1.650118,3.122716 4.273583,4.756889 7.814764,4.756889 l 11.959724,0 z"
     id="_76325464"
     style="fill:#72706f;fill-rule:evenodd"
     inkscape:connector-curvature="0" />
  <g
     style="fill:#969594;fill-rule:evenodd"
     id="text3490">
    <path
       d="m 11.545013,119.74847 0,-9.818 -3.5386425,0 0,-0.86732 q 0,-0.52039 0.3469258,-0.86731 0.3816183,-0.38162 0.9020069,-0.38162 l 8.2568328,0 0,2.11625 -3.50395,0 0,9.818 -2.463173,0 z"
       style="fill:#969594;fill-rule:evenodd"
       id="path4682" />
  </g>
  <g
     style="fill:#969594;fill-rule:evenodd"
     id="text3492">
    <path
       d="m 21.953194,119.74847 0,-10.68532 q 0,-0.52039 0.346925,-0.86731 0.381619,-0.38162 0.902007,-0.38162 l 1.21424,0 0,4.44065 4.926346,0 0,-4.44065 2.497865,0 0,11.93425 -2.497865,0 0,-5.30797 -4.926346,0 0,5.30797 -2.463172,0 z"
       style="fill:#969594;fill-rule:evenodd"
       id="path4679" />
  </g>
  <g
     style="fill:#969594;fill-rule:evenodd"
     id="text3494">
    <path
       d="m 36.31739,119.74847 0,-10.68532 q 0,-0.52039 0.346926,-0.86731 0.381619,-0.38162 0.902007,-0.38162 l 7.424211,0 0,2.04686 -6.244663,0 0,2.56725 4.648805,0 0,0.79793 q 0,0.52039 -0.381619,0.90201 -0.346925,0.34693 -0.867314,0.34693 l -3.399872,0 0,3.05294 6.244663,0 0,2.22033 -8.673144,0 z"
       style="fill:#969594;fill-rule:evenodd"
       id="path4676" />
  </g>
  <g
     style="fill:#969594;fill-rule:evenodd"
     id="text3498">
    <path
       d="m 57.378456,119.74847 0,-10.68532 q 0,-0.52039 0.346926,-0.86731 0.381618,-0.38162 0.902007,-0.38162 l 7.424211,0 0,2.04686 -6.244664,0 0,2.56725 4.648805,0 0,0.79793 q 0,0.52039 -0.381618,0.90201 -0.346926,0.34693 -0.867314,0.34693 l -3.399873,0 0,5.27327 -2.42848,0 z"
       style="fill:#969594;fill-rule:evenodd"
       id="path4673" />
  </g>
  <g
     style="fill:#969594;fill-rule:evenodd"
     id="text3500">
    <path
       d="m 70.457863,119.74847 0,-10.68532 q 0,-0.52039 0.346926,-0.86731 0.381618,-0.38162 0.902007,-0.38162 l 4.544727,0 q 1.942784,0 2.879483,0.83262 0.971393,0.86732 0.971393,2.53256 0,1.11016 -0.485697,1.83871 -0.41631,0.69385 -1.318317,1.00608 0.797929,0.27754 1.110162,0.83262 0.312233,0.52039 0.381618,1.76932 l 0.06938,1.4224 q 0,0.20816 0,0.451 0,0.24285 0.03469,0.45101 0.104078,0.62446 0.416311,0.79793 l -2.706021,0 q -0.173463,-0.34693 -0.208155,-0.72855 -0.06938,-0.55508 -0.06938,-0.76323 l -0.03469,-1.28363 q -0.06938,-1.04078 -0.416311,-1.49178 -0.381618,-0.38162 -1.35301,-0.38162 l -2.601943,0 0,4.64881 -2.463173,0 z m 2.463173,-6.73036 2.879483,0 q 0.9367,0 1.387703,-0.38162 0.451004,-0.38162 0.451004,-1.17955 0,-0.79793 -0.451004,-1.17955 -0.416311,-0.41631 -1.248932,-0.41631 l -3.018254,0 0,3.15703 z"
       style="fill:#969594;fill-rule:evenodd"
       id="path4670" />
  </g>
  <g
     style="fill:#969594;fill-rule:evenodd"
     id="text3502">
    <path
       d="m 84.787025,119.74847 0,-10.68532 q 0,-0.52039 0.346926,-0.86731 0.381619,-0.38162 0.902007,-0.38162 l 7.424211,0 0,2.04686 -6.244663,0 0,2.56725 4.648805,0 0,0.79793 q 0,0.52039 -0.381619,0.90201 -0.346925,0.34693 -0.867314,0.34693 l -3.399872,0 0,3.05294 6.244663,0 0,2.22033 -8.673144,0 z"
       style="fill:#969594;fill-rule:evenodd"
       id="path4667" />
  </g>
  <g
     style="fill:#969594;fill-rule:evenodd"
     id="text3504">
    <path
       d="m 97.865349,119.74847 0,-10.68532 q 0,-0.52039 0.346926,-0.86731 0.381618,-0.38162 0.902006,-0.38162 l 7.424209,0 0,2.04686 -6.24466,0 0,2.56725 4.6488,0 0,0.79793 q 0,0.52039 -0.38161,0.90201 -0.34693,0.34693 -0.86732,0.34693 l -3.39987,0 0,3.05294 6.24466,0 0,2.22033 -8.673141,0 z"
       style="fill:#969594;fill-rule:evenodd"
       id="path4664" />
  </g>
  <g
     style="fill:#969594;fill-rule:evenodd"
     id="text3508">
    <path
       d="m 122.39603,114.50989 -0.62447,0.451 q -0.41631,0.31223 -0.55508,0.62447 -0.20815,0.38162 -0.20815,0.83262 0,0.65916 0.48569,1.14485 0.4857,0.4857 1.17955,0.4857 0.4857,0 1.00609,-0.20816 0.41631,-0.17346 0.86731,-0.62446 l -2.15094,-2.70602 z m 0.62447,-2.53256 0.31223,-0.20816 q 0.38162,-0.27754 0.55508,-0.58977 0.20816,-0.34693 0.20816,-0.76324 0,-0.41631 -0.27754,-0.65915 -0.24285,-0.24285 -0.69386,-0.24285 -0.451,0 -0.69385,0.24285 -0.27754,0.27754 -0.27754,0.65915 0,0.13877 0.13877,0.4857 0.0347,0.17346 0.13877,0.31223 0.10408,0.13877 0.20816,0.27754 l 0.38162,0.4857 z m -1.80402,1.07547 -0.48569,-0.62447 q -0.38162,-0.451 -0.52039,-0.902 -0.17346,-0.45101 -0.17346,-0.90201 0,-1.31832 0.86731,-2.04686 0.83262,-0.79793 2.25502,-0.79793 1.35301,0 2.15094,0.72854 0.79793,0.69385 0.79793,1.90809 0,0.9367 -0.45101,1.63055 -0.52039,0.72855 -1.49178,1.31832 l 1.73463,2.11625 q 0.20816,-0.38162 0.38162,-0.86731 0.10408,-0.65916 0.17346,-1.11017 l 1.24893,0 q 0.55509,0 0.65916,0.31224 0.10408,0.31223 0.0694,0.58977 -0.10408,0.4857 -0.27754,1.04078 -0.41631,0.9367 -0.97139,1.66524 l 2.18563,2.63664 -2.77541,0 -0.79793,-1.00609 q -0.38162,0.34693 -0.76323,0.62447 -0.38162,0.27754 -0.79793,0.38162 -1.14486,0.24284 -2.39379,0.13877 -1.24893,-0.10408 -2.11625,-0.79793 -1.00608,-0.9367 -1.00608,-2.49787 0,-1.14485 0.55508,-1.97747 0.58977,-0.83263 1.94278,-1.56117 z"
       style="fill:#969594;fill-rule:evenodd"
       id="path4661" />
  </g>
  <g
     style="fill:#969594;fill-rule:evenodd"
     id="text3512">
    <path
       d="m 144.11761,113.78134 q 0,2.01217 0.86732,3.05295 0.86731,1.07547 2.46317,1.07547 1.56116,0 2.46317,-1.07547 0.90201,-1.11016 0.90201,-3.05295 0,-1.94278 -0.90201,-3.08764 -0.90201,-1.07547 -2.46317,-1.07547 -1.59586,0 -2.46317,1.07547 -0.86732,1.07547 -0.86732,3.08764 z m -2.46317,0 q 0,-2.91417 1.52647,-4.61411 1.63055,-1.69993 4.26719,-1.69993 2.60194,0 4.26719,1.69993 1.56116,1.73463 1.56116,4.61411 0,2.87949 -1.56116,4.57942 -1.59586,1.66525 -4.26719,1.66525 -2.70602,0 -4.26719,-1.66525 -1.52647,-1.66524 -1.52647,-4.57942 z"
       style="fill:#969594;fill-rule:evenodd"
       id="path4658" />
  </g>
  <g
     style="fill:#969594;fill-rule:evenodd"
     id="text3514">
    <path
       d="m 160.28484,115.48128 0,4.26719 -2.46317,0 0,-10.68532 q 0,-0.52039 0.34693,-0.86731 0.38161,-0.38162 0.902,-0.38162 l 4.05903,0 q 1.9081,0 2.8448,0.97139 0.97139,0.9714 0.97139,2.87949 0,1.80401 -0.9367,2.84479 -0.9367,0.97139 -2.70602,0.97139 l -3.01826,0 z m 0,-2.15094 2.39379,0 q 0.97139,0 1.3877,-0.41631 0.45101,-0.38162 0.45101,-1.31832 0,-0.79793 -0.41631,-1.28362 -0.4857,-0.41631 -1.28363,-0.41631 l -2.53256,0 0,3.43456 z"
       style="fill:#969594;fill-rule:evenodd"
       id="path4655" />
  </g>
  <g
     style="fill:#969594;fill-rule:evenodd"
     id="text3516">
    <path
       d="m 171.38545,119.74847 0,-10.68532 q 0,-0.52039 0.34693,-0.86731 0.38162,-0.38162 0.902,-0.38162 l 7.42422,0 0,2.04686 -6.24467,0 0,2.56725 4.64881,0 0,0.79793 q 0,0.52039 -0.38162,0.90201 -0.34693,0.34693 -0.86732,0.34693 l -3.39987,0 0,3.05294 6.24467,0 0,2.22033 -8.67315,0 z"
       style="fill:#969594;fill-rule:evenodd"
       id="path4652" />
  </g>
  <g
     style="fill:#969594;fill-rule:evenodd"
     id="text3518">
    <path
       d="m 184.46733,119.74847 0,-10.68532 q 0,-0.52039 0.34693,-0.86731 0.38161,-0.38162 0.902,-0.41631 l 1.31832,0 4.85696,8.22214 0,-8.22214 2.42848,0 0,11.96894 -2.53256,0 -4.89165,-8.22214 0,8.22214 -2.42848,0 z"
       style="fill:#969594;fill-rule:evenodd"
       id="path4649" />
  </g>
  <g
     style="fill:#969594;fill-rule:evenodd"
     id="text3522">
    <path
       d="m 206.77602,116.03636 2.42848,0 q 0.13877,1.04078 0.79793,1.45709 0.69385,0.4857 1.90809,0.4857 1.07547,0 1.63055,-0.38162 0.55508,-0.38162 0.55508,-1.11017 0,-1.11016 -3.12233,-1.80401 l -0.0694,-0.0347 q 0,0 -0.27754,-0.0694 -1.76932,-0.38162 -2.35909,-0.79793 -0.69385,-0.38161 -0.9714,-1.11016 -0.34692,-0.62447 -0.34692,-1.59586 0,-1.69993 1.17955,-2.67133 1.17954,-0.93669 3.43456,-0.93669 2.11625,0 3.2611,0.97139 1.17955,1.07547 1.24894,2.8101 l -1.38771,0 q -0.79793,0 -1.14485,-0.72855 l 0,0 q -0.17346,-0.34692 -0.4857,-0.58977 -0.62446,-0.45101 -1.69993,-0.45101 -1.04078,0 -1.49178,0.38162 -0.52039,0.38162 -0.52039,1.07547 0,0.9367 2.01217,1.38771 0.58977,0.17346 0.86731,0.20815 0.62447,0.20816 1.07547,0.34693 0.4857,0.10407 0.76324,0.17346 0.48569,0.20816 0.97139,0.41631 0.69385,0.41631 1.07547,1.07547 0.38162,0.72854 0.38162,1.59586 0,1.8734 -1.24894,2.91418 -1.24893,0.97139 -3.53864,0.97139 -2.35909,0 -3.53864,-1.00609 -1.28363,-1.00608 -1.3877,-2.98356 z"
       style="fill:#969594;fill-rule:evenodd"
       id="path4646" />
  </g>
  <g
     style="fill:#969594;fill-rule:evenodd"
     id="text3524">
    <path
       d="m 223.22192,113.78134 q 0,2.01217 0.86732,3.05295 0.86731,1.07547 2.46317,1.07547 1.56116,0 2.46317,-1.07547 0.90201,-1.11016 0.90201,-3.05295 0,-1.94278 -0.90201,-3.08764 -0.90201,-1.07547 -2.46317,-1.07547 -1.59586,0 -2.46317,1.07547 -0.86732,1.07547 -0.86732,3.08764 z m -2.46317,0 q 0,-2.91417 1.52647,-4.61411 1.63055,-1.69993 4.26719,-1.69993 2.60194,0 4.26718,1.69993 1.56117,1.73463 1.56117,4.61411 0,2.87949 -1.56117,4.57942 -1.59585,1.66525 -4.26718,1.66525 -2.70602,0 -4.26719,-1.66525 -1.52647,-1.66524 -1.52647,-4.57942 z"
       style="fill:#969594;fill-rule:evenodd"
       id="path4643" />
  </g>
  <g
     style="fill:#969594;fill-rule:evenodd"
     id="text3526">
    <path
       d="m 236.92601,119.74847 0,-10.68532 q 0,-0.52039 0.34693,-0.86731 0.38161,-0.38162 0.902,-0.38162 l 7.42421,0 0,2.04686 -6.24466,0 0,2.56725 4.64881,0 0,0.79793 q 0,0.52039 -0.38162,0.90201 -0.34693,0.34693 -0.86732,0.34693 l -3.39987,0 0,5.27327 -2.42848,0 z"
       style="fill:#969594;fill-rule:evenodd"
       id="path4640" />
  </g>
  <g
     style="fill:#969594;fill-rule:evenodd"
     id="text3528">
    <path
       d="m 253.54299,119.74847 0,-9.818 -3.53864,0 0,-0.86732 q 0,-0.52039 0.34692,-0.86731 0.38162,-0.38162 0.90201,-0.38162 l 8.25683,0 0,2.11625 -3.50395,0 0,9.818 -2.46317,0 z"
       style="fill:#969594;fill-rule:evenodd"
       id="path4637" />
  </g>
  <g
     style="fill:#969594;fill-rule:evenodd"
     id="text3530">
    <path
       d="m 267.38537,119.74847 -3.43456,-11.93425 2.53255,0 2.04687,8.4303 1.73462,-8.4303 2.63664,0 1.69994,8.4303 1.8387,-7.52829 q 0.20816,-0.90201 1.21424,-0.90201 l 1.52648,0 -3.39988,11.93425 -2.35909,0 -1.83871,-9.15884 -1.8734,9.15884 -2.3244,0 z"
       style="fill:#969594;fill-rule:evenodd"
       id="path4634" />
  </g>
  <g
     style="fill:#969594;fill-rule:evenodd"
     id="text3532">
    <path
       d="m 289.03764,107.81422 1.94278,0 4.33657,11.93425 -2.60194,0 -0.79793,-2.46318 -4.6488,0 -0.76324,2.46318 -2.60194,0 3.95495,-11.13632 q 0.31223,-0.79793 1.17955,-0.79793 z m 0.55508,2.39379 -1.66524,5.06511 3.33048,0 -1.66524,-5.06511 z"
       style="fill:#969594;fill-rule:evenodd"
       id="path4631" />
  </g>
  <g
     style="fill:#969594;fill-rule:evenodd"
     id="text3534">
    <path
       d="m 299.86218,119.74847 0,-10.68532 q 0,-0.52039 0.34693,-0.86731 0.38162,-0.38162 0.90201,-0.38162 l 4.54472,0 q 1.94279,0 2.87949,0.83262 0.97139,0.86732 0.97139,2.53256 0,1.11016 -0.4857,1.83871 -0.41631,0.69385 -1.31832,1.00608 0.79793,0.27754 1.11017,0.83262 0.31223,0.52039 0.38162,1.76932 l 0.0694,1.4224 q 0,0.20816 0,0.451 0,0.24285 0.0347,0.45101 0.10408,0.62446 0.41631,0.79793 l -2.70602,0 q -0.17346,-0.34693 -0.20815,-0.72855 -0.0694,-0.55508 -0.0694,-0.76323 l -0.0347,-1.28363 q -0.0694,-1.04078 -0.41631,-1.49178 -0.38162,-0.38162 -1.35301,-0.38162 l -2.60194,0 0,4.64881 -2.46318,0 z m 2.46318,-6.73036 2.87948,0 q 0.9367,0 1.3877,-0.38162 0.45101,-0.38162 0.45101,-1.17955 0,-0.79793 -0.45101,-1.17955 -0.41631,-0.41631 -1.24893,-0.41631 l -3.01825,0 0,3.15703 z"
       style="fill:#969594;fill-rule:evenodd"
       id="path4628" />
  </g>
  <g
     style="fill:#969594;fill-rule:evenodd"
     id="text3536">
    <path
       d="m 314.19135,119.74847 0,-10.68532 q 0,-0.52039 0.34692,-0.86731 0.38162,-0.38162 0.90201,-0.38162 l 7.42421,0 0,2.04686 -6.24466,0 0,2.56725 4.6488,0 0,0.79793 q 0,0.52039 -0.38162,0.90201 -0.34692,0.34693 -0.86731,0.34693 l -3.39987,0 0,3.05294 6.24466,0 0,2.22033 -8.67314,0 z"
       style="fill:#969594;fill-rule:evenodd"
       id="path4625" />
  </g>
  <g
     style="fill:#969594;fill-rule:evenodd"
     id="text3540">
    <path
       d="m 335.25278,119.74847 0,-10.68532 q 0,-0.52039 0.34692,-0.86731 0.38162,-0.38162 0.90201,-0.38162 l 4.54473,0 q 1.94278,0 2.87948,0.83262 0.97139,0.86732 0.97139,2.53256 0,1.11016 -0.48569,1.83871 -0.41631,0.69385 -1.31832,1.00608 0.79793,0.27754 1.11016,0.83262 0.31223,0.52039 0.38162,1.76932 l 0.0694,1.4224 q 0,0.20816 0,0.451 0,0.24285 0.0347,0.45101 0.10408,0.62446 0.41631,0.79793 l -2.70602,0 q -0.17347,-0.34693 -0.20816,-0.72855 -0.0694,-0.55508 -0.0694,-0.76323 l -0.0347,-1.28363 q -0.0694,-1.04078 -0.41631,-1.49178 -0.38161,-0.38162 -1.35301,-0.38162 l -2.60194,0 0,4.64881 -2.46317,0 z m 2.46317,-6.73036 2.87948,0 q 0.9367,0 1.38771,-0.38162 0.451,-0.38162 0.451,-1.17955 0,-0.79793 -0.451,-1.17955 -0.41631,-0.41631 -1.24894,-0.41631 l -3.01825,0 0,3.15703 z"
       style="fill:#969594;fill-rule:evenodd"
       id="path4622" />
  </g>
  <g
     style="fill:#969594;fill-rule:evenodd"
     id="text3542">
    <path
       d="m 354.71638,107.81422 1.94278,0 4.33658,11.93425 -2.60195,0 -0.79793,-2.46318 -4.6488,0 -0.76324,2.46318 -2.60194,0 3.95495,-11.13632 q 0.31224,-0.79793 1.17955,-0.79793 z m 0.55508,2.39379 -1.66524,5.06511 3.33048,0 -1.66524,-5.06511 z"
       style="fill:#969594;fill-rule:evenodd"
       id="path4619" />
  </g>
  <g
     style="fill:#969594;fill-rule:evenodd"
     id="text3544">
    <path
       d="m 365.54092,119.74847 0,-10.68532 q 0,-0.52039 0.34693,-0.86731 0.38162,-0.38162 0.90201,-0.38162 l 3.43456,0 q 2.74071,0 4.09373,1.45709 1.35301,1.52647 1.35301,4.51003 0,1.59586 -0.4857,2.87949 -0.55508,1.31832 -1.45709,2.01217 -0.76324,0.58977 -1.63055,0.83262 -0.83262,0.24285 -2.53256,0.24285 l -4.02434,0 z m 2.39379,-2.15094 1.97748,0 q 1.69993,0 2.49786,-0.90201 0.76324,-0.83262 0.76324,-2.91418 0,-2.01217 -0.72854,-2.94887 -0.69386,-0.93669 -2.22033,-0.93669 l -2.28971,0 0,7.70175 z"
       style="fill:#969594;fill-rule:evenodd"
       id="path4616" />
  </g>
  <g
     style="fill:#969594;fill-rule:evenodd"
     id="text3546">
    <path
       d="m 380.14645,119.74847 0,-10.68532 q 0,-0.52039 0.34693,-0.86731 0.38162,-0.38162 0.90201,-0.38162 l 1.21424,0 0,11.93425 -2.46318,0 z"
       style="fill:#969594;fill-rule:evenodd"
       id="path4613" />
  </g>
  <g
     style="fill:#969594;fill-rule:evenodd"
     id="text3548">
    <path
       d="m 388.96013,113.78134 q 0,2.01217 0.86731,3.05295 0.86731,1.07547 2.46317,1.07547 1.56117,0 2.46318,-1.07547 0.902,-1.11016 0.902,-3.05295 0,-1.94278 -0.902,-3.08764 -0.90201,-1.07547 -2.46318,-1.07547 -1.59586,0 -2.46317,1.07547 -0.86731,1.07547 -0.86731,3.08764 z m -2.46318,0 q 0,-2.91417 1.52648,-4.61411 1.63055,-1.69993 4.26718,-1.69993 2.60195,0 4.26719,1.69993 1.56117,1.73463 1.56117,4.61411 0,2.87949 -1.56117,4.57942 -1.59586,1.66525 -4.26719,1.66525 -2.70602,0 -4.26718,-1.66525 -1.52648,-1.66524 -1.52648,-4.57942 z"
       style="fill:#969594;fill-rule:evenodd"
       id="path4610" />
  </g>
  <g
     style="fill:#969594;fill-rule:evenodd"
     id="text3552">
    <path
       d="m 410.64728,119.74847 0,-10.68532 q 0,-0.52039 0.34692,-0.86731 0.38162,-0.38162 0.90201,-0.38162 l 7.42421,0 0,2.04686 -6.24466,0 0,2.56725 4.6488,0 0,0.79793 q 0,0.52039 -0.38162,0.90201 -0.34692,0.34693 -0.86731,0.34693 l -3.39987,0 0,3.05294 6.24466,0 0,2.22033 -8.67314,0 z"
       style="fill:#969594;fill-rule:evenodd"
       id="path4607" />
  </g>
  <g
     style="fill:#969594;fill-rule:evenodd"
     id="text3554">
    <path
       d="m 434.37624,115.62005 q -0.17347,2.08155 -1.56117,3.2611 -1.42239,1.14486 -3.7468,1.14486 -2.70602,0 -4.12841,-1.63055 -1.4224,-1.56117 -1.4224,-4.61412 0,-3.12233 1.45709,-4.68349 1.49178,-1.63055 4.30188,-1.63055 2.28971,0 3.64272,1.14485 1.28362,1.11016 1.45709,3.12233 l -1.49178,0 q -0.83263,0 -1.17955,-0.72854 l 0,0 q -0.24285,-0.45101 -0.58978,-0.79793 -0.69385,-0.52039 -1.8387,-0.52039 -1.59586,0 -2.46317,1.04078 -0.83263,1.04077 -0.83263,3.05294 0,1.94279 0.83263,2.98357 0.79792,1.07546 2.39378,1.07546 1.11017,0 1.83871,-0.55508 0.65916,-0.52038 0.9367,-1.66524 l 2.39379,0 z"
       style="fill:#969594;fill-rule:evenodd"
       id="path4604" />
  </g>
  <g
     style="fill:#969594;fill-rule:evenodd"
     id="text3556">
    <path
       d="m 441.14244,113.78134 q 0,2.01217 0.86731,3.05295 0.86732,1.07547 2.46318,1.07547 1.56116,0 2.46317,-1.07547 0.902,-1.11016 0.902,-3.05295 0,-1.94278 -0.902,-3.08764 -0.90201,-1.07547 -2.46317,-1.07547 -1.59586,0 -2.46318,1.07547 -0.86731,1.07547 -0.86731,3.08764 z m -2.46317,0 q 0,-2.91417 1.52647,-4.61411 1.63055,-1.69993 4.26719,-1.69993 2.60194,0 4.26718,1.69993 1.56117,1.73463 1.56117,4.61411 0,2.87949 -1.56117,4.57942 -1.59586,1.66525 -4.26718,1.66525 -2.70603,0 -4.26719,-1.66525 -1.52647,-1.66524 -1.52647,-4.57942 z"
       style="fill:#969594;fill-rule:evenodd"
       id="path4601" />
  </g>
  <g
     style="fill:#969594;fill-rule:evenodd"
     id="text3558">
    <path
       d="m 454.84653,116.03636 2.42848,0 q 0.13877,1.04078 0.79793,1.45709 0.69385,0.4857 1.90809,0.4857 1.07547,0 1.63055,-0.38162 0.55508,-0.38162 0.55508,-1.11017 0,-1.11016 -3.12233,-1.80401 l -0.0694,-0.0347 q 0,0 -0.27754,-0.0694 -1.76932,-0.38162 -2.35909,-0.79793 -0.69385,-0.38161 -0.97139,-1.11016 -0.34693,-0.62447 -0.34693,-1.59586 0,-1.69993 1.17955,-2.67133 1.17955,-0.93669 3.43456,-0.93669 2.11625,0 3.2611,0.97139 1.17955,1.07547 1.24894,2.8101 l -1.38771,0 q -0.79793,0 -1.14485,-0.72855 l 0,0 q -0.17346,-0.34692 -0.4857,-0.58977 -0.62446,-0.45101 -1.69993,-0.45101 -1.04078,0 -1.49178,0.38162 -0.52039,0.38162 -0.52039,1.07547 0,0.9367 2.01217,1.38771 0.58977,0.17346 0.86731,0.20815 0.62447,0.20816 1.07547,0.34693 0.4857,0.10407 0.76324,0.17346 0.48569,0.20816 0.97139,0.41631 0.69385,0.41631 1.07547,1.07547 0.38162,0.72854 0.38162,1.59586 0,1.8734 -1.24893,2.91418 -1.24894,0.97139 -3.53865,0.97139 -2.35909,0 -3.53864,-1.00609 -1.28363,-1.00608 -1.3877,-2.98356 z"
       style="fill:#969594;fill-rule:evenodd"
       id="path4598" />
  </g>
  <g
     style="fill:#969594;fill-rule:evenodd"
     id="text3560">
    <path
       d="m 475.83719,119.74847 -2.46317,0 0,-4.44065 -4.33657,-7.4936 3.01825,0 2.53256,5.1345 2.04686,-4.44065 q 0.34692,-0.69385 1.14485,-0.69385 l 1.97748,0 -3.92026,7.4936 0,4.44065 z"
       style="fill:#969594;fill-rule:evenodd"
       id="path4595" />
  </g>
  <g
     style="fill:#969594;fill-rule:evenodd"
     id="text3562">
    <path
       d="m 484.26657,116.03636 2.42848,0 q 0.13877,1.04078 0.79793,1.45709 0.69385,0.4857 1.90809,0.4857 1.07547,0 1.63055,-0.38162 0.55508,-0.38162 0.55508,-1.11017 0,-1.11016 -3.12233,-1.80401 l -0.0694,-0.0347 q 0,0 -0.27754,-0.0694 -1.76932,-0.38162 -2.3591,-0.79793 -0.69385,-0.38161 -0.97139,-1.11016 -0.34693,-0.62447 -0.34693,-1.59586 0,-1.69993 1.17955,-2.67133 1.17955,-0.93669 3.43457,-0.93669 2.11624,0 3.2611,0.97139 1.17955,1.07547 1.24893,2.8101 l -1.3877,0 q -0.79793,0 -1.14486,-0.72855 l 0,0 q -0.17346,-0.34692 -0.48569,-0.58977 -0.62447,-0.45101 -1.69994,-0.45101 -1.04078,0 -1.49178,0.38162 -0.52039,0.38162 -0.52039,1.07547 0,0.9367 2.01217,1.38771 0.58977,0.17346 0.86732,0.20815 0.62446,0.20816 1.07547,0.34693 0.48569,0.10407 0.76323,0.17346 0.4857,0.20816 0.97139,0.41631 0.69386,0.41631 1.07547,1.07547 0.38162,0.72854 0.38162,1.59586 0,1.8734 -1.24893,2.91418 -1.24893,0.97139 -3.53864,0.97139 -2.3591,0 -3.53865,-1.00609 -1.28362,-1.00608 -1.3877,-2.98356 z"
       style="fill:#969594;fill-rule:evenodd"
       id="path4592" />
  </g>
  <g
     style="fill:#969594;fill-rule:evenodd"
     id="text3564">
    <path
       d="m 501.99619,119.74847 0,-9.818 -3.53864,0 0,-0.86732 q 0,-0.52039 0.34693,-0.86731 0.38161,-0.38162 0.902,-0.38162 l 8.25684,0 0,2.11625 -3.50395,0 0,9.818 -2.46318,0 z"
       style="fill:#969594;fill-rule:evenodd"
       id="path4589" />
  </g>
  <g
     style="fill:#969594;fill-rule:evenodd"
     id="text3566">
    <path
       d="m 512.40393,119.74847 0,-10.68532 q 0,-0.52039 0.34693,-0.86731 0.38161,-0.38162 0.902,-0.38162 l 7.42421,0 0,2.04686 -6.24466,0 0,2.56725 4.64881,0 0,0.79793 q 0,0.52039 -0.38162,0.90201 -0.34693,0.34693 -0.86732,0.34693 l -3.39987,0 0,3.05294 6.24466,0 0,2.22033 -8.67314,0 z"
       style="fill:#969594;fill-rule:evenodd"
       id="path4586" />
  </g>
  <g
     style="fill:#969594;fill-rule:evenodd"
     id="text3568">
    <path
       d="m 525.48236,119.74847 0,-10.68532 q 0,-0.52039 0.34693,-0.86731 0.38161,-0.38162 0.902,-0.41631 l 2.39379,0 2.3591,9.12415 2.35909,-9.12415 3.64272,0 0,11.96894 -2.28971,0 0,-9.64454 -2.42848,9.64454 -2.53256,0 -2.46317,-9.64454 0,9.64454 -2.28971,0 z"
       style="fill:#969594;fill-rule:evenodd"
       id="path4583" />
  </g>
</svg>
