<svg xmlns:dc="http://purl.org/dc/elements/1.1/" xmlns:cc="http://creativecommons.org/ns#" xmlns:rdf="http://www.w3.org/1999/02/22-rdf-syntax-ns#" xmlns:svg="http://www.w3.org/2000/svg" xmlns="http://www.w3.org/2000/svg" version="1.1" width="550" height="130"><style>.s0{fill:#ff6905;}.s1{fill:#72706f;}.s2{fill:#838281;}.s3{fill:#969594;}</style><metadata><rdf:RDF><cc:Work rdf:about=""><dc:format>image/svg+xml</dc:format><dc:type rdf:resource="http://purl.org/dc/dcmitype/StillImage"/></cc:Work></rdf:RDF></metadata><path d="m324.31 46.02 16.43 0c0.82-1.78 2.13-3.03 3.98-3.69 1.99-0.72 4.12-1 6.22-1 3.95 0 11.01 0.72 11 6.03 0 2.32-0.02 4.64 0.01 6.97l0 0.09-0.09 0c-5.96 0.14-12.12 0.14-18.04 0.83-4.55 0.53-9.2 1.53-13.11 4.02-0.74 0.47-1.44 0.98-2.11 1.55-4.51 3.79-6.03 9.04-6.03 14.79 0 13.39 9.25 20.72 22.15 20.73l0.25 0c3.36-0.01 6.74-0.27 10.07-0.61 2.4-0.26 4.76-0.8 7.04-1.62l0.12-0.04 0 2.25 15.75 0c0-16.65 0.16-33.3 0.16-49.94 0-5.84-2.32-10.48-7.15-13.79-5.7-3.9-14.04-4.7-20.75-4.7-6.65 0-13.79 1.24-19.01 5.67-3.92 3.27-6.22 7.43-6.89 12.48zm37.89 21.06 0 4.02c-0.03 2.98-0.21 6.41-2.45 8.65-2.89 2.89-8.63 3.37-12.5 3.37-2.2 0-5.37-0.28-7.05-1.87-2.58-2.44-2.42-6.57-1.11-9.61 1.13-2.63 5.34-3.5 7.84-3.89 4.87-0.76 10.26-0.73 15.18-0.68l0.09 0z" fill="#ff6905"/><path d="m499.54 95.48c5.5 1.22 11.01 1.09 16.45-0.38 6.32-1.38 11.29-4.91 15.08-10.13 2.01-2.92 3.42-6.29 4.46-9.67 1.33-4.33 1.73-9.09 1.73-13.61 0-6.6-1.15-13.16-4.2-19.06-2.96-6.06-7.56-10.39-13.84-12.87-5.9-2.15-12.15-2.43-18.33-1.6-6.61 0.89-12.19 3.73-16.56 8.78-2.84 3.2-4.68 7.02-5.8 11.12-1.22 4.36-1.86 8.84-1.86 13.38 0 5.33 0.71 10.61 2.22 15.73 1.38 4.65 3.71 8.81 7.43 12 3.7 3.32 8.43 5.23 13.23 6.31zm-6.19-32.91c-0.27-5.93 0.56-12.5 4.73-17.07 1.44-1.41 3.61-2.3 5.5-2.88 2.51-0.75 5.03-0.7 7.51 0.13 2.88 0.96 5.02 3.25 6.61 5.75 2.39 3.72 2.87 9.14 2.87 13.45-0.11 4.47-0.69 10.59-3.23 14.42-1.68 2.51-3.91 4.77-6.89 5.63-2.55 0.74-5.12 0.66-7.61-0.26-1.87-0.69-4.02-1.73-5.25-3.37-3.25-3.92-4.03-10.92-4.23-15.8z" fill="#ff6905"/><path d="m453.01 23.16 17.18 0 0-5.12c0-2.31-0.82-4.28-2.45-5.91-1.07-1.07-2.32-1.83-3.77-2.2l-10.96 0 0 13.22z" fill="#72706f"/><path d="m453.01 27.89 0 68.38 17.18 0 0-60.04c0-2.3-0.83-4.26-2.45-5.89-1.62-1.62-3.59-2.45-5.89-2.45l-8.84 0z" fill="#ff6905"/><path d="m429.77 9.94 0 28.25-0.17-0.26c-2.02-3.18-4.69-5.71-7.91-7.65-3.37-1.78-7.1-2.47-10.88-2.47-7.94 0-14.21 3.37-19.02 9.64-5.47 7.16-7.18 16.18-7.18 25.01 0 8.77 1.64 17.93 7.18 24.99 2.57 3.28 5.95 5.46 9.89 6.79 4.08 1.4 8.3 2.11 12.61 2.11 7.91 0 15.28-2.07 22.03-6.19 8.2-4.98 10.14-14.81 10.14-23.74l0-48.4c0-2.24-0.92-4.15-2.45-5.76-1.07-1.12-2.33-1.94-3.82-2.32l-10.42 0zm-3.74 37.56c2.9 4.07 3.74 9.3 3.74 14.19 0 5-0.65 10.92-3.49 15.19-2.56 3.58-6.11 5.25-10.49 5.25-4.44 0-8.13-1.58-10.74-5.25-3.02-4.24-3.74-10.12-3.74-15.19 0-4.78 0.8-10.02 3.74-13.94 2.5-3.51 5.93-5.25 10.23-5.25 4.36 0 8 1.57 10.74 4.99z" fill="#ff6905"/><path d="m249.27 96.28 17.43 0 0-34.42 18.7 0c9.58 0 13.42 4.9 13.42 14.16l0 0.22c0 2.82-0.05 5.64-0.04 8.46l0 0.14c0 1.53 0.01 3.06 0.04 4.59l0 6.85 17.43 0 0-23.27c0.16-4.83-0.86-9.76-3.95-13.6-1.82-2.26-4.35-4.11-7.1-5.06l-0.25-0.08 0.24-0.09c3.89-1.36 7.22-3.59 9.38-7.16 2.58-3.88 3.46-8.5 3.46-13.1 0-6.81-1.7-13.39-6.91-18.06-5.42-4.81-13.54-5.93-20.52-5.93l-32.5 0c-2.44 0-4.54 0.85-6.27 2.58-1.73 1.73-2.58 3.83-2.58 6.27l0 77.5zm48.09-68.88c2.5 2.13 3.25 5.33 3.25 8.49 0 3.17-0.74 6.38-3.25 8.52-2.66 2.25-6.63 2.75-9.99 2.75l-20.67 0 0-22.77 21.66 0c3.22 0 6.64 0.65 8.99 3.01z" fill="#ff6905"/><path d="m64.24 33.92c-1.13-1.97-2.73-3.61-4.53-4.99-3.51-2.45-7.93-3.18-12.13-3.18-6.28 0-11.57 2.14-15.54 7.06-4.4 5.82-5.76 13.21-5.76 20.37 0 7.17 1.37 14.67 6 20.38 4.11 5.11 9.8 7.07 16.25 7.07 4.72 0 9.16-1.19 12.78-4.33 3.47-3.15 5.36-7.32 6.26-11.84l-13.06 0 0-14.66 29.82 0 0 32.1 0 10.82 0 2.78 0 0.93 0 0.14-15.56 0 0-9.26c-2.33 2.74-5.11 5.01-8.41 6.6l-0.01 0.01-0.01 0.01C55.99 95.75 51.36 96.56 46.64 96.56 35.63 96.56 25.9 93.15 18.56 84.79 10.6 76.11 8 64.69 8 53.18c0-11.37 2.55-22.67 10.31-31.34 7.56-8.4 17.35-12.01 28.57-12.01 9.08 0 17.98 1.97 25.39 7.44l0.01 0.01 0.01 0.01c6.63 5.34 10.53 12.29 11.79 20.7l0.11 0.74-12.06 0c-3.57 0-6.23-1.65-7.89-4.8z" fill="#838281"/><path d="m90.72 19.13 0 60.33 0 16.07 0 0.89 17.36 0 0-0.89 0-16.07 0-42.72 34.97 58.79 0.56 0.89 4.61 0 12.96-0.01 0-0.89 0-85.59-17.36 0 0 58.79-34.74-58.79-9.42 0c-2.48 0.17-4.59 1.12-6.33 2.86-1.74 1.74-2.6 3.83-2.6 6.33z" fill="#838281"/><path d="m167.31 19.36 0 45.9c0 22.06 8.92 31.27 33.64 31.27 26.03 0 34.82-8.44 34.82-31.27l0-55.32-17.61 0 0 53.35c0 12.31-4.15 18.38-16.8 18.38-12.59 0-16.18-6.3-16.18-18.38l0-53.35-8.93 0c-2.48 0-4.59 0.95-6.33 2.86-1.74 1.91-2.6 4.09-2.6 6.56z" fill="#838281"/><path d="m235.69 10.03-17.43 0 0 53.26c0 12.2-4.05 18.47-16.89 18.47-12.81 0-16.28-6.55-16.28-18.47l0-53.26-8.84 0c-2.5 0-4.58 0.98-6.26 2.83-1.68 1.85-2.58 4-2.58 6.5l0 45.9c0 23.58 10.6 31.18 33.55 31.18 9.32 0 21.55-0.88 28.3-8.24 5.51-6.01 6.43-15.16 6.43-22.94l0-55.23z" fill="#72706f"/><path d="m90.81 96.33 17.18 0 0-59.92 35.14 59.07 0.53 0.85 4.56 0 12.87-0.01 0-0.8 0-85.5-17.18 0 0 59.03-34.88-59.03-9.37 0c-2.44 0.17-4.54 1.1-6.27 2.83-1.73 1.73-2.58 3.81-2.58 6.27l0 77.21z" fill="#72706f"/><path d="m84.1 38.63-0.09-0.64C82.74 29.61 78.86 22.68 72.24 17.35l-0.01-0.01-0.01-0.01C64.83 11.88 55.95 9.92 46.88 9.92c-11.17 0-20.94 3.58-28.5 11.98-7.75 8.65-10.29 19.94-10.29 31.28 0 11.47 2.59 22.87 10.53 31.54 7.34 8.37 17.07 11.74 28.02 11.74 4.7 0 9.33-0.8 13.67-2.64l0.01 0 0.01-0.01c3.26-1.57 6.04-3.83 8.38-6.57l0.16-0.19 0 9.41 15.38 0 0-46.58-29.64 0 0 14.48 13.08 0-0.02 0.11c-0.9 4.56-2.81 8.73-6.29 11.89-3.64 3.15-8.1 4.35-12.84 4.35-6.46 0-12.18-1.96-16.32-7.1-4.65-5.72-6.02-13.25-6.02-20.43 0-7.17 1.37-14.58 5.78-20.42 3.99-4.95 9.32-7.1 15.61-7.1 4.22 0 8.65 0.74 12.18 3.2 1.8 1.38 3.41 3.04 4.55 5.02 1.65 3.12 4.27 4.76 7.81 4.76l11.96 0z" fill="#72706f"/><path d="m11.55 119.75 0-9.82-3.54 0 0-0.87q0-0.52 0.35-0.87 0.38-0.38 0.9-0.38l8.26 0 0 2.12-3.5 0 0 9.82-2.46 0z" fill="#969594"/><path d="m21.95 119.75 0-10.69q0-0.52 0.35-0.87 0.38-0.38 0.9-0.38l1.21 0 0 4.44 4.93 0 0-4.44 2.5 0 0 11.93-2.5 0 0-5.31-4.93 0 0 5.31-2.46 0z" fill="#969594"/><path d="m36.32 119.75 0-10.69q0-0.52 0.35-0.87 0.38-0.38 0.9-0.38l7.42 0 0 2.05-6.24 0 0 2.57 4.65 0 0 0.8q0 0.52-0.38 0.9-0.35 0.35-0.87 0.35l-3.4 0 0 3.05 6.24 0 0 2.22-8.67 0z" fill="#969594"/><path d="m57.38 119.75 0-10.69q0-0.52 0.35-0.87 0.38-0.38 0.9-0.38l7.42 0 0 2.05-6.24 0 0 2.57 4.65 0 0 0.8q0 0.52-0.38 0.9-0.35 0.35-0.87 0.35l-3.4 0 0 5.27-2.43 0z" fill="#969594"/><path d="m70.46 119.75 0-10.69q0-0.52 0.35-0.87 0.38-0.38 0.9-0.38l4.54 0q1.94 0 2.88 0.83 0.97 0.87 0.97 2.53 0 1.11-0.49 1.84-0.42 0.69-1.32 1.01 0.8 0.28 1.11 0.83 0.31 0.52 0.38 1.77l0.07 1.42q0 0.21 0 0.45 0 0.24 0.03 0.45 0.1 0.62 0.42 0.8l-2.71 0q-0.17-0.35-0.21-0.73-0.07-0.56-0.07-0.76l-0.03-1.28q-0.07-1.04-0.42-1.49-0.38-0.38-1.35-0.38l-2.6 0 0 4.65-2.46 0zm2.46-6.73 2.88 0q0.94 0 1.39-0.38 0.45-0.38 0.45-1.18 0-0.8-0.45-1.18-0.42-0.42-1.25-0.42l-3.02 0 0 3.16z" fill="#969594"/><path d="m84.79 119.75 0-10.69q0-0.52 0.35-0.87 0.38-0.38 0.9-0.38l7.42 0 0 2.05-6.24 0 0 2.57 4.65 0 0 0.8q0 0.52-0.38 0.9-0.35 0.35-0.87 0.35l-3.4 0 0 3.05 6.24 0 0 2.22-8.67 0z" fill="#969594"/><path d="m97.87 119.75 0-10.69q0-0.52 0.35-0.87 0.38-0.38 0.9-0.38l7.42 0 0 2.05-6.24 0 0 2.57 4.65 0 0 0.8q0 0.52-0.38 0.9-0.35 0.35-0.87 0.35l-3.4 0 0 3.05 6.24 0 0 2.22-8.67 0z" fill="#969594"/><path d="m122.4 114.51-0.62 0.45q-0.42 0.31-0.56 0.62-0.21 0.38-0.21 0.83 0 0.66 0.49 1.14 0.49 0.49 1.18 0.49 0.49 0 1.01-0.21 0.42-0.17 0.87-0.62l-2.15-2.71zm0.62-2.53 0.31-0.21q0.38-0.28 0.56-0.59 0.21-0.35 0.21-0.76 0-0.42-0.28-0.66-0.24-0.24-0.69-0.24-0.45 0-0.69 0.24-0.28 0.28-0.28 0.66 0 0.14 0.14 0.49 0.03 0.17 0.14 0.31 0.1 0.14 0.21 0.28l0.38 0.49zm-1.8 1.08-0.49-0.62q-0.38-0.45-0.52-0.9-0.17-0.45-0.17-0.9 0-1.32 0.87-2.05 0.83-0.8 2.26-0.8 1.35 0 2.15 0.73 0.8 0.69 0.8 1.91 0 0.94-0.45 1.63-0.52 0.73-1.49 1.32l1.73 2.12q0.21-0.38 0.38-0.87 0.1-0.66 0.17-1.11l1.25 0q0.56 0 0.66 0.31 0.1 0.31 0.07 0.59-0.1 0.49-0.28 1.04-0.42 0.94-0.97 1.67l2.19 2.64-2.78 0-0.8-1.01q-0.38 0.35-0.76 0.62-0.38 0.28-0.8 0.38-1.14 0.24-2.39 0.14-1.25-0.1-2.12-0.8-1.01-0.94-1.01-2.5 0-1.14 0.56-1.98 0.59-0.83 1.94-1.56z" fill="#969594"/><path d="m144.12 113.78q0 2.01 0.87 3.05 0.87 1.08 2.46 1.08 1.56 0 2.46-1.08 0.9-1.11 0.9-3.05 0-1.94-0.9-3.09-0.9-1.08-2.46-1.08-1.6 0-2.46 1.08-0.87 1.08-0.87 3.09zm-2.46 0q0-2.91 1.53-4.61 1.63-1.7 4.27-1.7 2.6 0 4.27 1.7 1.56 1.73 1.56 4.61 0 2.88-1.56 4.58-1.6 1.67-4.27 1.67-2.71 0-4.27-1.67-1.53-1.67-1.53-4.58z" fill="#969594"/><path d="m160.28 115.48 0 4.27-2.46 0 0-10.69q0-0.52 0.35-0.87 0.38-0.38 0.9-0.38l4.06 0q1.91 0 2.84 0.97 0.97 0.97 0.97 2.88 0 1.8-0.94 2.84-0.94 0.97-2.71 0.97l-3.02 0zm0-2.15 2.39 0q0.97 0 1.39-0.42 0.45-0.38 0.45-1.32 0-0.8-0.42-1.28-0.49-0.42-1.28-0.42l-2.53 0 0 3.43z" fill="#969594"/><path d="m171.39 119.75 0-10.69q0-0.52 0.35-0.87 0.38-0.38 0.9-0.38l7.42 0 0 2.05-6.24 0 0 2.57 4.65 0 0 0.8q0 0.52-0.38 0.9-0.35 0.35-0.87 0.35l-3.4 0 0 3.05 6.24 0 0 2.22-8.67 0z" fill="#969594"/><path d="m184.47 119.75 0-10.69q0-0.52 0.35-0.87 0.38-0.38 0.9-0.42l1.32 0 4.86 8.22 0-8.22 2.43 0 0 11.97-2.53 0-4.89-8.22 0 8.22-2.43 0z" fill="#969594"/><path d="m206.78 116.04 2.43 0q0.14 1.04 0.8 1.46 0.69 0.49 1.91 0.49 1.08 0 1.63-0.38 0.56-0.38 0.56-1.11 0-1.11-3.12-1.8l-0.07-0.03q0 0-0.28-0.07-1.77-0.38-2.36-0.8-0.69-0.38-0.97-1.11-0.35-0.62-0.35-1.6 0-1.7 1.18-2.67 1.18-0.94 3.43-0.94 2.12 0 3.26 0.97 1.18 1.08 1.25 2.81l-1.39 0q-0.8 0-1.14-0.73l0 0q-0.17-0.35-0.49-0.59-0.62-0.45-1.7-0.45-1.04 0-1.49 0.38-0.52 0.38-0.52 1.08 0 0.94 2.01 1.39 0.59 0.17 0.87 0.21 0.62 0.21 1.08 0.35 0.49 0.1 0.76 0.17 0.49 0.21 0.97 0.42 0.69 0.42 1.08 1.08 0.38 0.73 0.38 1.6 0 1.87-1.25 2.91-1.25 0.97-3.54 0.97-2.36 0-3.54-1.01-1.28-1.01-1.39-2.98z" fill="#969594"/><path d="m223.22 113.78q0 2.01 0.87 3.05 0.87 1.08 2.46 1.08 1.56 0 2.46-1.08 0.9-1.11 0.9-3.05 0-1.94-0.9-3.09-0.9-1.08-2.46-1.08-1.6 0-2.46 1.08-0.87 1.08-0.87 3.09zm-2.46 0q0-2.91 1.53-4.61 1.63-1.7 4.27-1.7 2.6 0 4.27 1.7 1.56 1.73 1.56 4.61 0 2.88-1.56 4.58-1.6 1.67-4.27 1.67-2.71 0-4.27-1.67-1.53-1.67-1.53-4.58z" fill="#969594"/><path d="m236.93 119.75 0-10.69q0-0.52 0.35-0.87 0.38-0.38 0.9-0.38l7.42 0 0 2.05-6.24 0 0 2.57 4.65 0 0 0.8q0 0.52-0.38 0.9-0.35 0.35-0.87 0.35l-3.4 0 0 5.27-2.43 0z" fill="#969594"/><path d="m253.54 119.75 0-9.82-3.54 0 0-0.87q0-0.52 0.35-0.87 0.38-0.38 0.9-0.38l8.26 0 0 2.12-3.5 0 0 9.82-2.46 0z" fill="#969594"/><path d="m267.39 119.75-3.43-11.93 2.53 0 2.05 8.43 1.73-8.43 2.64 0 1.7 8.43 1.84-7.53q0.21-0.9 1.21-0.9l1.53 0-3.4 11.93-2.36 0-1.84-9.16-1.87 9.16-2.32 0z" fill="#969594"/><path d="m289.04 107.81 1.94 0 4.34 11.93-2.6 0-0.8-2.46-4.65 0-0.76 2.46-2.6 0 3.95-11.14q0.31-0.8 1.18-0.8zm0.56 2.39-1.67 5.07 3.33 0-1.67-5.07z" fill="#969594"/><path d="m299.86 119.75 0-10.69q0-0.52 0.35-0.87 0.38-0.38 0.9-0.38l4.54 0q1.94 0 2.88 0.83 0.97 0.87 0.97 2.53 0 1.11-0.49 1.84-0.42 0.69-1.32 1.01 0.8 0.28 1.11 0.83 0.31 0.52 0.38 1.77l0.07 1.42q0 0.21 0 0.45 0 0.24 0.03 0.45 0.1 0.62 0.42 0.8l-2.71 0q-0.17-0.35-0.21-0.73-0.07-0.56-0.07-0.76l-0.03-1.28q-0.07-1.04-0.42-1.49-0.38-0.38-1.35-0.38l-2.6 0 0 4.65-2.46 0zm2.46-6.73 2.88 0q0.94 0 1.39-0.38 0.45-0.38 0.45-1.18 0-0.8-0.45-1.18-0.42-0.42-1.25-0.42l-3.02 0 0 3.16z" fill="#969594"/><path d="m314.19 119.75 0-10.69q0-0.52 0.35-0.87 0.38-0.38 0.9-0.38l7.42 0 0 2.05-6.24 0 0 2.57 4.65 0 0 0.8q0 0.52-0.38 0.9-0.35 0.35-0.87 0.35l-3.4 0 0 3.05 6.24 0 0 2.22-8.67 0z" fill="#969594"/><path d="m335.25 119.75 0-10.69q0-0.52 0.35-0.87 0.38-0.38 0.9-0.38l4.54 0q1.94 0 2.88 0.83 0.97 0.87 0.97 2.53 0 1.11-0.49 1.84-0.42 0.69-1.32 1.01 0.8 0.28 1.11 0.83 0.31 0.52 0.38 1.77l0.07 1.42q0 0.21 0 0.45 0 0.24 0.03 0.45 0.1 0.62 0.42 0.8l-2.71 0q-0.17-0.35-0.21-0.73-0.07-0.56-0.07-0.76l-0.03-1.28q-0.07-1.04-0.42-1.49-0.38-0.38-1.35-0.38l-2.6 0 0 4.65-2.46 0zm2.46-6.73 2.88 0q0.94 0 1.39-0.38 0.45-0.38 0.45-1.18 0-0.8-0.45-1.18-0.42-0.42-1.25-0.42l-3.02 0 0 3.16z" fill="#969594"/><path d="m354.72 107.81 1.94 0 4.34 11.93-2.6 0-0.8-2.46-4.65 0-0.76 2.46-2.6 0 3.95-11.14q0.31-0.8 1.18-0.8zm0.56 2.39-1.67 5.07 3.33 0-1.67-5.07z" fill="#969594"/><path d="m365.54 119.75 0-10.69q0-0.52 0.35-0.87 0.38-0.38 0.9-0.38l3.43 0q2.74 0 4.09 1.46 1.35 1.53 1.35 4.51 0 1.6-0.49 2.88-0.56 1.32-1.46 2.01-0.76 0.59-1.63 0.83-0.83 0.24-2.53 0.24l-4.02 0zm2.39-2.15 1.98 0q1.7 0 2.5-0.9 0.76-0.83 0.76-2.91 0-2.01-0.73-2.95-0.69-0.94-2.22-0.94l-2.29 0 0 7.7z" fill="#969594"/><path d="m380.15 119.75 0-10.69q0-0.52 0.35-0.87 0.38-0.38 0.9-0.38l1.21 0 0 11.93-2.46 0z" fill="#969594"/><path d="m388.96 113.78q0 2.01 0.87 3.05 0.87 1.08 2.46 1.08 1.56 0 2.46-1.08 0.9-1.11 0.9-3.05 0-1.94-0.9-3.09-0.9-1.08-2.46-1.08-1.6 0-2.46 1.08-0.87 1.08-0.87 3.09zm-2.46 0q0-2.91 1.53-4.61 1.63-1.7 4.27-1.7 2.6 0 4.27 1.7 1.56 1.73 1.56 4.61 0 2.88-1.56 4.58-1.6 1.67-4.27 1.67-2.71 0-4.27-1.67-1.53-1.67-1.53-4.58z" fill="#969594"/><path d="m410.65 119.75 0-10.69q0-0.52 0.35-0.87 0.38-0.38 0.9-0.38l7.42 0 0 2.05-6.24 0 0 2.57 4.65 0 0 0.8q0 0.52-0.38 0.9-0.35 0.35-0.87 0.35l-3.4 0 0 3.05 6.24 0 0 2.22-8.67 0z" fill="#969594"/><path d="m434.38 115.62q-0.17 2.08-1.56 3.26-1.42 1.14-3.75 1.14-2.71 0-4.13-1.63-1.42-1.56-1.42-4.61 0-3.12 1.46-4.68 1.49-1.63 4.3-1.63 2.29 0 3.64 1.14 1.28 1.11 1.46 3.12l-1.49 0q-0.83 0-1.18-0.73l0 0q-0.24-0.45-0.59-0.8-0.69-0.52-1.84-0.52-1.6 0-2.46 1.04-0.83 1.04-0.83 3.05 0 1.94 0.83 2.98 0.8 1.08 2.39 1.08 1.11 0 1.84-0.56 0.66-0.52 0.94-1.67l2.39 0z" fill="#969594"/><path d="m441.14 113.78q0 2.01 0.87 3.05 0.87 1.08 2.46 1.08 1.56 0 2.46-1.08 0.9-1.11 0.9-3.05 0-1.94-0.9-3.09-0.9-1.08-2.46-1.08-1.6 0-2.46 1.08-0.87 1.08-0.87 3.09zm-2.46 0q0-2.91 1.53-4.61 1.63-1.7 4.27-1.7 2.6 0 4.27 1.7 1.56 1.73 1.56 4.61 0 2.88-1.56 4.58-1.6 1.67-4.27 1.67-2.71 0-4.27-1.67-1.53-1.67-1.53-4.58z" fill="#969594"/><path d="m454.85 116.04 2.43 0q0.14 1.04 0.8 1.46 0.69 0.49 1.91 0.49 1.08 0 1.63-0.38 0.56-0.38 0.56-1.11 0-1.11-3.12-1.8l-0.07-0.03q0 0-0.28-0.07-1.77-0.38-2.36-0.8-0.69-0.38-0.97-1.11-0.35-0.62-0.35-1.6 0-1.7 1.18-2.67 1.18-0.94 3.43-0.94 2.12 0 3.26 0.97 1.18 1.08 1.25 2.81l-1.39 0q-0.8 0-1.14-0.73l0 0q-0.17-0.35-0.49-0.59-0.62-0.45-1.7-0.45-1.04 0-1.49 0.38-0.52 0.38-0.52 1.08 0 0.94 2.01 1.39 0.59 0.17 0.87 0.21 0.62 0.21 1.08 0.35 0.49 0.1 0.76 0.17 0.49 0.21 0.97 0.42 0.69 0.42 1.08 1.08 0.38 0.73 0.38 1.6 0 1.87-1.25 2.91-1.25 0.97-3.54 0.97-2.36 0-3.54-1.01-1.28-1.01-1.39-2.98z" fill="#969594"/><path d="m475.84 119.75-2.46 0 0-4.44-4.34-7.49 3.02 0 2.53 5.13 2.05-4.44q0.35-0.69 1.14-0.69l1.98 0-3.92 7.49 0 4.44z" fill="#969594"/><path d="m484.27 116.04 2.43 0q0.14 1.04 0.8 1.46 0.69 0.49 1.91 0.49 1.08 0 1.63-0.38 0.56-0.38 0.56-1.11 0-1.11-3.12-1.8l-0.07-0.03q0 0-0.28-0.07-1.77-0.38-2.36-0.8-0.69-0.38-0.97-1.11-0.35-0.62-0.35-1.6 0-1.7 1.18-2.67 1.18-0.94 3.43-0.94 2.12 0 3.26 0.97 1.18 1.08 1.25 2.81l-1.39 0q-0.8 0-1.14-0.73l0 0q-0.17-0.35-0.49-0.59-0.62-0.45-1.7-0.45-1.04 0-1.49 0.38-0.52 0.38-0.52 1.08 0 0.94 2.01 1.39 0.59 0.17 0.87 0.21 0.62 0.21 1.08 0.35 0.49 0.1 0.76 0.17 0.49 0.21 0.97 0.42 0.69 0.42 1.08 1.08 0.38 0.73 0.38 1.6 0 1.87-1.25 2.91-1.25 0.97-3.54 0.97-2.36 0-3.54-1.01-1.28-1.01-1.39-2.98z" fill="#969594"/><path d="m502 119.75 0-9.82-3.54 0 0-0.87q0-0.52 0.35-0.87 0.38-0.38 0.9-0.38l8.26 0 0 2.12-3.5 0 0 9.82-2.46 0z" fill="#969594"/><path d="m512.4 119.75 0-10.69q0-0.52 0.35-0.87 0.38-0.38 0.9-0.38l7.42 0 0 2.05-6.24 0 0 2.57 4.65 0 0 0.8q0 0.52-0.38 0.9-0.35 0.35-0.87 0.35l-3.4 0 0 3.05 6.24 0 0 2.22-8.67 0z" fill="#969594"/><path d="m525.48 119.75 0-10.69q0-0.52 0.35-0.87 0.38-0.38 0.9-0.42l2.39 0 2.36 9.12 2.36-9.12 3.64 0 0 11.97-2.29 0 0-9.64-2.43 9.64-2.53 0-2.46-9.64 0 9.64-2.29 0z" fill="#969594"/></svg>