<?xml version="1.0" encoding="UTF-8" standalone="no"?>
<!-- Created with Inkscape (http://www.inkscape.org/) -->

<svg
   width="420mm"
   height="105mm"
   viewBox="0 0 420 105"
   version="1.1"
   id="svg1"
   inkscape:version="1.3 (0e150ed6c4, 2023-07-21)"
   sodipodi:docname="tent.svg"
   xml:space="preserve"
   inkscape:export-filename="tent.png"
   inkscape:export-xdpi="300"
   inkscape:export-ydpi="300"
   xmlns:inkscape="http://www.inkscape.org/namespaces/inkscape"
   xmlns:sodipodi="http://sodipodi.sourceforge.net/DTD/sodipodi-0.dtd"
   xmlns="http://www.w3.org/2000/svg"
   xmlns:svg="http://www.w3.org/2000/svg"><sodipodi:namedview
     id="namedview1"
     pagecolor="#ffffff"
     bordercolor="#666666"
     borderopacity="1.0"
     inkscape:showpageshadow="2"
     inkscape:pageopacity="0.0"
     inkscape:pagecheckerboard="0"
     inkscape:deskcolor="#d1d1d1"
     inkscape:document-units="mm"
     showguides="true"
     inkscape:zoom="1.0122618"
     inkscape:cx="1043.7023"
     inkscape:cy="204.49254"
     inkscape:window-width="2558"
     inkscape:window-height="1412"
     inkscape:window-x="0"
     inkscape:window-y="26"
     inkscape:window-maximized="1"
     inkscape:current-layer="layer1"><sodipodi:guide
       position="284.23543,-76.429367"
       orientation="0,-1"
       id="guide1"
       inkscape:locked="false" /><sodipodi:guide
       position="299.97244,-20.825237"
       orientation="0,-1"
       id="guide2"
       inkscape:locked="false" /><sodipodi:guide
       position="397.01738,2.7802817"
       orientation="0,-1"
       id="guide3"
       inkscape:locked="false" /><sodipodi:guide
       position="258.84835,-60.122244"
       orientation="0,-1"
       id="guide4"
       inkscape:locked="false" /><sodipodi:guide
       position="281.30798,-7.7227085"
       orientation="1,0"
       id="guide45"
       inkscape:locked="false" /><sodipodi:guide
       position="291.80291,34.923759"
       orientation="0,-1"
       id="guide50"
       inkscape:locked="false" /></sodipodi:namedview><defs
     id="defs1">&#10;			&#10;			&#10;			&#10;		&#10;				&#10;				&#10;			&#10;				&#10;			&#10;				&#10;				&#10;			&#10;			&#10;			&#10;			&#10;			&#10;			&#10;		&#10;				&#10;			&#10;				&#10;			&#10;				&#10;			&#10;				&#10;			&#10;				&#10;			&#10;					&#10;					&#10;				&#10;					&#10;					&#10;				&#10;					&#10;					&#10;				&#10;					&#10;					&#10;				&#10;					&#10;					&#10;				&#10;			&#10;		&#10;			&#10;			&#10;			&#10;			&#10;			&#10;			&#10;			&#10;			&#10;			&#10;			&#10;			&#10;			&#10;			&#10;		&#10;				&#10;			&#10;				&#10;				&#10;			&#10;	&#10;	&#10;&#10;		&#10;		&#10;		&#10;		&#10;		&#10;		&#10;		&#10;	&#10;			&#10;			&#10;			&#10;			&#10;		</defs><g
     inkscape:label="Layer 1"
     inkscape:groupmode="layer"
     id="layer1"
     transform="translate(216.56627,-5.3054072)"><g
       id="g52"
       transform="translate(2.3485717,2.6172592)"><rect
         x="-203.27528"
         y="90.82695"
         class="st0"
         width="402.01187"
         height="2.062978"
         id="rect1"
         style="stroke-width:0.264583" /><polygon
         id="Fill"
         class="st0"
         points="674.8,65.7 670.9,68.2 647.5,55.4 634.8,49.5 634.8,45.2 648.1,42.7 660.8,43.3 670.9,53 673.6,59.8 "
         style="stroke-width:0.782344"
         transform="matrix(0.33819312,0,0,0.33819312,-222.41701,6.9212381)" /><g
         id="Rock_1_00000109010700205718133840000018004296138670943888_"
         style="stroke-width:0.782344"
         transform="matrix(0.33819312,0,0,0.33819312,-222.41701,6.9212381)">&#10;				<path
   class="st1"
   d="m 59.1,248.9 c -0.7,0 -1.3,-0.5 -1.4,-1.1 -0.2,-0.7 0.1,-1.3 0.7,-1.7 l 75.4,-43.3 c 0.2,-0.1 0.4,-0.2 0.6,-0.2 2.9,-0.3 6,-0.7 9.3,-1 26.1,-2.8 65.5,-7 65.4,-27.2 0,-0.6 0.4,-1.2 0.9,-1.4 14.3,-6 26.5,-8.9 37.4,-8.9 10,0 18.9,2.3 27.1,7.2 5.1,-1.3 10.2,-2.7 15.3,-4 32.9,-8.6 67,-17.6 85.4,-17.6 2.9,0 5.4,0.2 7.5,0.7 9.4,-2 18.9,-2.9 29.8,-2.9 7.2,0 14.1,0.4 20.9,0.8 6.7,0.4 13.1,0.8 19.6,0.8 7.9,0 14.7,-0.5 21.3,-1.7 0,0 0.1,0 0.1,0 4.7,-0.4 9.7,-0.6 15.1,-0.6 17.8,0 39.1,2.2 67.2,7 0.5,0.1 1,0.5 1.2,1 l 34.6,92.3 c 0.2,0.5 0.1,1 -0.2,1.4 -0.3,0.4 -0.7,0.6 -1.2,0.6 h -532 z"
   id="path1"
   style="stroke-width:0.782344" />&#10;				<path
   class="st1"
   d="m 489.4,148.1 c 20.1,0 42.9,2.9 67,7 L 591,247.4 H 59.1 l 75.4,-43.3 c 26.2,-3.2 76.1,-5.6 76,-29.7 12.6,-5.3 25,-8.8 36.8,-8.8 9.3,0 18.3,2.2 26.9,7.3 38.3,-9.9 79.8,-21.7 100.9,-21.7 2.9,0 5.4,0.2 7.5,0.7 10.6,-2.3 20.5,-3 29.8,-3 14.1,0 27.1,1.5 40.4,1.5 7,0 14.2,-0.4 21.5,-1.8 4.9,-0.3 9.9,-0.5 15.1,-0.5 m 0,-3 c -5.4,0 -10.5,0.2 -15.2,0.6 -0.1,0 -0.2,0 -0.3,0 -6.5,1.2 -13.2,1.7 -21,1.7 -6.5,0 -12.8,-0.4 -19.5,-0.8 -6.8,-0.4 -13.7,-0.8 -20.9,-0.8 -10.9,0 -20.4,0.9 -29.8,2.9 -2.1,-0.4 -4.6,-0.6 -7.5,-0.6 -18.6,0 -51.2,8.6 -85.7,17.6 -4.9,1.3 -9.9,2.6 -14.7,3.8 -8.3,-4.7 -17.5,-7.1 -27.4,-7.1 -11.1,0 -23.6,2.9 -38,9 -1.1,0.5 -1.8,1.6 -1.8,2.8 0.1,18.8 -38.5,22.9 -64.1,25.7 -3.3,0.4 -6.5,0.7 -9.3,1 -0.4,0 -0.8,0.2 -1.1,0.4 l -75.4,43.3 c -1.2,0.7 -1.8,2.1 -1.4,3.4 0.4,1.3 1.5,2.2 2.9,2.2 h 531.9 c 1,0 1.9,-0.5 2.5,-1.3 0.6,-0.8 0.7,-1.8 0.3,-2.8 L 559.2,154 c -0.4,-1 -1.3,-1.7 -2.3,-1.9 -28.2,-4.8 -49.7,-7 -67.5,-7 z"
   id="path2"
   style="stroke-width:0.782344" />&#10;			</g><g
         id="Rock_2"
         style="stroke-width:0.782344"
         transform="matrix(0.33819312,0,0,0.33819312,-222.41701,6.9212381)">&#10;				<path
   class="st0"
   d="m 406.5,248.9 c -0.7,0 -1.3,-0.5 -1.5,-1.1 -0.2,-0.6 0.1,-1.4 0.7,-1.7 30.4,-16.5 62.1,-33.2 86.4,-40.5 17.7,-14.3 36.7,-28.9 55.2,-39.3 l 4.4,-54 c 0,-0.4 0.3,-0.9 0.6,-1.1 0.3,-0.2 0.6,-0.3 0.9,-0.3 0.1,0 0.3,0 0.4,0.1 l 6,1.7 c 0.7,0.2 1.2,0.9 1.1,1.6 -0.9,8.6 -0.1,14.7 2.4,18 1,-21.6 4.7,-33.9 11.3,-37.6 l 8.5,-5.2 v -4.8 c 0,-0.6 0.4,-1.1 0.9,-1.4 12.9,-5.6 23.1,-8.2 32,-8.2 2.7,0 5.3,0.3 7.8,0.8 0.5,0.1 0.8,0.4 1,0.8 l 7,14 5.4,0.9 2.6,-8.3 C 634,79.5 631.9,72 634.8,65.7 c 2.3,-4.9 7.3,-8 12.7,-8 2.1,0 4.1,0.5 6,1.4 7,3.3 10,11.7 6.7,18.7 -2,4.2 -6,7.2 -10.6,7.9 l -3.6,11.4 7,69.5 c 31.4,15.1 52.6,29 66.4,43.7 24.7,7.8 54.5,21.4 85.3,35.8 0.6,0.3 1,1 0.8,1.7 -0.2,0.7 -0.8,1.2 -1.5,1.2 H 406.5 Z m 241,-182.5 c -2.1,0 -4,1.2 -4.9,3.1 -1.3,2.7 -0.1,6 2.6,7.2 0.7,0.3 1.5,0.5 2.3,0.5 2.1,0 4,-1.2 4.9,-3.1 1.3,-2.7 0.1,-6 -2.6,-7.2 -0.7,-0.3 -1.5,-0.5 -2.3,-0.5 z"
   id="path3"
   style="stroke-width:0.782344" />&#10;				<path
   class="st1"
   d="m 647.6,59.3 c 1.8,0 3.6,0.4 5.3,1.2 6.2,3 8.9,10.4 6,16.7 -2,4.2 -6.1,6.8 -10.4,7.1 l -3.9,12.4 h -0.1 l 7.1,70.9 c 27.7,13.3 51.6,27.5 66.9,44 24.9,7.8 55,21.6 85.5,35.8 H 406.4 c 31.7,-17.2 62.7,-33.4 86.4,-40.4 18.8,-15.2 37.6,-29.5 55.9,-39.7 l 4.5,-54.8 6,1.7 c -1.1,11.1 0.5,18.5 5.3,21.5 0.7,-21.3 3.8,-35.7 10.6,-39.5 l 9.3,-5.6 V 85 c 11.1,-4.8 21.8,-8.1 31.4,-8.1 2.6,0 5.1,0.2 7.5,0.7 l 7.3,14.7 7.4,1.2 3.4,-10.6 c -5.7,-3.2 -8,-10.3 -5.2,-16.3 2.2,-4.7 6.7,-7.3 11.4,-7.3 m -0.1,19.5 c 2.6,0 5.1,-1.5 6.3,-4 1.6,-3.5 0.2,-7.6 -3.3,-9.2 -1,-0.5 -2,-0.7 -3,-0.7 -2.6,0 -5.1,1.5 -6.3,4 -1.6,3.5 -0.2,7.6 3.3,9.2 1,0.4 2,0.7 3,0.7 m 0.1,-22.5 c -6,0 -11.5,3.5 -14,8.9 -3.1,6.6 -1.2,14.4 4.4,18.8 l -1.9,6 -3.4,-0.6 -6.7,-13.3 c -0.4,-0.8 -1.2,-1.4 -2.1,-1.6 -2.6,-0.5 -5.3,-0.8 -8.1,-0.8 -9.1,0 -19.5,2.6 -32.6,8.3 -1.1,0.5 -1.8,1.6 -1.8,2.8 v 4 l -7.8,4.7 c -6.3,3.6 -10,13.6 -11.5,31.3 -0.3,-2.8 -0.3,-6.3 0.1,-10.3 0.1,-1.4 -0.8,-2.8 -2.2,-3.2 l -6,-1.7 c -0.3,-0.1 -0.5,-0.1 -0.8,-0.1 -0.6,0 -1.2,0.2 -1.7,0.5 -0.7,0.5 -1.2,1.3 -1.3,2.2 l -4.4,53.2 c -18.3,10.4 -37,24.7 -54.5,38.8 -24.4,7.3 -56,24 -86.4,40.5 -1.2,0.7 -1.8,2 -1.5,3.4 0.3,1.3 1.5,2.3 2.9,2.3 H 804 c 1.4,0 2.6,-1 2.9,-2.4 0.3,-1.4 -0.4,-2.8 -1.7,-3.4 -30.8,-14.4 -60.4,-27.9 -85.1,-35.7 -13.8,-14.6 -34.8,-28.4 -65.8,-43.4 l -6.9,-68.3 3.2,-10.3 c 4.7,-1 8.8,-4.1 10.8,-8.5 1.8,-3.7 2,-8 0.6,-11.9 -1.4,-3.9 -4.2,-7 -8,-8.8 -1.9,-0.9 -4.1,-1.4 -6.4,-1.4 z m -0.1,19.5 c -0.6,0 -1.1,-0.1 -1.7,-0.4 -2,-0.9 -2.8,-3.3 -1.9,-5.2 0.6,-1.4 2,-2.3 3.6,-2.3 0.6,0 1.1,0.1 1.7,0.4 2,0.9 2.8,3.3 1.9,5.2 -0.7,1.4 -2.1,2.3 -3.6,2.3 z"
   id="path4-3"
   style="stroke-width:0.782344" />&#10;			</g><g
         id="Rock_1"
         style="stroke-width:0.782344"
         transform="matrix(0.33819312,0,0,0.33819312,-222.41701,6.9212381)">&#10;			<path
   class="st2"
   d="m 556.4,155.1 c -30.3,-5.1 -58.7,-8.4 -81.9,-6.4 -30.6,5.5 -56.8,-4.4 -91.8,3.2 -17,-4 -64.9,9.7 -108.4,21 -19.4,-11.6 -41.1,-8 -63.7,1.5 0.1,24.1 -49.9,26.5 -76,29.7 l -75.4,43.3 h 531.9 z"
   id="path5-3"
   style="stroke-width:0.782344" />&#10;		</g><g
         id="Rock_2_and_signal"
         style="stroke-width:0.782344"
         transform="matrix(0.33819312,0,0,0.33819312,-222.41701,6.9212381)">&#10;			<g
   id="g6"
   style="stroke-width:0.782344">&#10;				<path
   class="st3"
   d="m 718.5,211.6 c -15.3,-16.5 -39.2,-30.7 -66.9,-44 l -7.1,-70.9 h 0.1 l 3.9,-12.4 c 4.4,-0.3 8.4,-2.9 10.4,-7.1 3,-6.2 0.3,-13.7 -6,-16.7 -6.2,-3 -13.7,-0.3 -16.7,6 -2.8,6 -0.5,13.1 5.2,16.3 l -3.4,10.6 -7.4,-1.2 -7.3,-14.7 c -11.4,-2.4 -24.7,1.2 -38.8,7.3 v 5.6 l -9.3,5.6 c -6.8,3.8 -9.9,18.2 -10.6,39.5 -4.8,-2.9 -6.4,-10.3 -5.3,-21.5 l -6,-1.7 -4.5,54.8 c -18.4,10.2 -37.1,24.5 -55.9,39.7 -23.7,7 -54.7,23.2 -86.4,40.4 H 804 c -30.5,-14 -60.6,-27.8 -85.5,-35.6 z M 641.2,68.9 c 1.6,-3.5 5.8,-4.9 9.2,-3.3 3.5,1.6 4.9,5.8 3.3,9.2 -1.6,3.5 -5.8,4.9 -9.2,3.3 -3.5,-1.6 -4.9,-5.8 -3.3,-9.2 z"
   id="path6-9"
   style="stroke-width:0.782344" />&#10;			</g>&#10;			&#10;			<g
   id="g51"
   inkscape:transform-center-x="-6.8286932"
   inkscape:transform-center-y="-2.4973444"
   transform="rotate(48.175097,648.02002,72.67295)"><g
     id="path3486_00000005988742553475774120000015601319634481059480_"
     style="stroke-width:0.782344">&#10;				<path
   class="st3"
   d="m 673.9,65.8 c -0.6,-8.2 -6.1,-15.6 -14.3,-19.5 -3.6,-1.7 -7.5,-2.6 -11.3,-2.6 -4.8,0 -9.4,1.4 -13,3.9 l -1.1,0.8 -3.1,-8.6 0.7,-0.4 c 4.9,-3 10.6,-4.5 16.5,-4.5 5.1,0 10.3,1.2 15,3.4 10.4,4.9 17.5,14.2 19.1,24.9 l 0.1,0.8 -8.6,3.2 z"
   id="path7-0"
   style="stroke-width:0.782344" />&#10;				<path
   class="st1"
   d="m 648.3,35.7 c 4.8,0 9.8,1.1 14.6,3.3 10.4,4.9 17.1,14.3 18.5,24.1 l -6.6,2.5 c -0.6,-8.2 -6.1,-16.2 -14.9,-20.4 -3.8,-1.8 -7.8,-2.7 -11.7,-2.7 -5,0 -9.7,1.4 -13.5,4.1 L 632.3,40 c 4.7,-2.7 10.3,-4.3 16,-4.3 m 0,-2 c -6.2,0 -12,1.6 -17.1,4.7 l -1.4,0.9 0.6,1.5 2.4,6.6 0.9,2.5 2.1,-1.5 c 3.4,-2.4 7.8,-3.7 12.4,-3.7 3.7,0 7.4,0.9 10.9,2.5 7.9,3.7 13.1,10.9 13.7,18.7 l 0.2,2.6 2.5,-0.9 6.6,-2.5 1.5,-0.6 -0.2,-1.6 c -1.6,-11 -9,-20.6 -19.7,-25.7 -4.8,-2.2 -10.1,-3.5 -15.4,-3.5 z"
   id="path8-4"
   style="stroke-width:0.782344" />&#10;			</g><g
     id="path3488_00000083769535695026402840000014352692306962247097_"
     style="stroke-width:0.782344">&#10;				<path
   class="st3"
   d="m 663.3,69.5 c 0.2,-4.6 -3.4,-9.7 -9,-12.3 -2.4,-1.2 -5,-1.8 -7.5,-1.8 -3,0 -5.7,0.9 -7.6,2.5 l -1.1,1 -3.2,-8.7 0.7,-0.4 c 3.2,-2.1 7.2,-3.3 11.4,-3.3 3.7,0 7.6,0.9 11.2,2.6 7.8,3.7 13.1,10.6 13.8,17.9 l 0.1,0.8 -8.8,3.3 z"
   id="path9"
   style="stroke-width:0.782344" />&#10;				<path
   class="st1"
   d="m 647,47.5 c 3.5,0 7.2,0.8 10.7,2.5 7.7,3.6 12.6,10.4 13.2,17.1 l -6.7,2.5 c 0.3,-4.9 -3.5,-10.4 -9.6,-13.3 -2.7,-1.3 -5.4,-1.9 -8,-1.9 -3.2,0 -6.2,1 -8.2,2.8 L 636,50.6 c 3.1,-2 6.9,-3.1 11,-3.1 m 0,-2 c -4.5,0 -8.6,1.2 -12,3.4 l -1.3,0.9 0.5,1.5 2.4,6.6 1,2.8 2.2,-1.9 c 1.7,-1.5 4.1,-2.3 6.9,-2.3 2.4,0 4.8,0.6 7.1,1.7 5.2,2.5 8.6,7.1 8.4,11.4 l -0.2,3 2.9,-1.1 6.7,-2.5 1.4,-0.5 -0.2,-1.5 C 672,59.3 666.5,52.1 658.4,48.3 654.9,46.4 650.9,45.5 647,45.5 Z"
   id="path10"
   style="stroke-width:0.782344" />&#10;			</g></g>&#10;		</g><path
         id="Cactus_00000078004048051975849380000001724422421156583580_"
         class="st1"
         d="m -21.800851,76.386105 c 0,-0.405832 -0.03382,-0.811664 -0.202916,-1.116037 -0.169097,-0.338193 -0.47347,-0.676387 -0.845483,-0.744025 -1.521869,-0.202916 -3.077557,-0.473471 -4.531788,-1.048399 -2.333532,-0.913121 -2.739364,-3.584847 -3.043738,-5.816922 -0.236735,-1.724784 -0.270554,-3.483389 -0.169096,-5.208174 0.03382,-0.879302 0.101458,-1.724785 0.202916,-2.604087 0.06764,-0.744024 0.101457,-1.555688 0.372012,-2.265894 0.202916,-0.507289 0.574928,-0.98076 1.116037,-1.149856 0.405832,-0.135277 0.845483,-0.06764 1.251315,0 0.304374,0.03382 0.608747,0.101458 0.879302,0.270554 0.642567,0.405832 0.47347,1.724785 0.50729,2.367352 0.06764,1.048399 0.06764,2.096798 0.03382,3.145196 -0.03382,1.048399 -0.135277,2.130617 0.06764,3.179016 0.47347,2.333532 2.570267,4.058317 4.599426,3.720124 0.169097,-6.358031 0.338193,-12.749881 0.541109,-19.107911 0.03382,-1.183676 -0.169097,-2.604087 0.405832,-3.652486 0.304374,-0.541109 0.710205,-1.048399 1.116037,-1.521869 0.608748,-0.710206 1.217495,-1.386592 1.860062,-2.096797 0.304374,-0.372013 0.642567,-0.710206 1.048399,-0.980761 2.130616,-1.420411 3.483389,1.251315 3.889221,2.942281 0.879302,3.720124 0.541109,7.710803 0.169096,11.532385 -0.135277,1.555688 -0.304374,3.145196 -0.439651,4.700884 -0.202916,2.265894 -0.439651,4.497969 -0.541109,6.763863 -0.202916,3.483389 -0.169096,6.966778 0.06764,10.450167 0.676386,0.574928 3.6524855,-0.03382 4.0921366,-0.879302 0.4396511,-0.845483 0.4734704,-1.893881 0.4734704,-2.874641 0.033819,-2.807003 -0.067639,-5.614006 0.6087476,-8.353371 0.067639,-0.338193 0.1690965,-0.676386 0.4058317,-0.913121 0.4058318,-0.47347 1.1836759,-0.50729 1.7247849,-0.169097 1.3189532,0.811664 1.2513146,3.415751 1.3527725,4.768523 0.1352773,1.690966 0.1352773,3.415751 -0.067639,5.106717 -0.3720124,2.90846 -1.5895077,6.256572 -4.9038002,6.662404 -0.3720125,0.03382 -0.7778435,0.06764 -1.1836755,0.03382 -0.202916,0 -2.367352,0.202916 -2.536448,0.338193 -0.236736,0.236736 -0.270555,0.608748 -0.270555,0.980761 -0.03382,1.183675 0.03382,7.981357 0.03382,7.981357 h -7.913719 c 0,0 -0.135277,-6.831501 -0.101458,-8.657744 0,-1.96152 0,-3.889221 -0.06764,-5.783102 z"
         style="stroke-width:0.264583" /><g
         id="_x32_3"
         style="stroke-width:0.782344"
         transform="matrix(0.33819312,0,0,0.33819312,-222.41701,6.9212381)">&#10;			<g
   id="_x32_"
   style="stroke-width:0.782344">&#10;				<path
   class="st4"
   d="m 657.3,249.6 v -21.7 l 39.1,-35.4 c 2.3,-2.2 4.2,-4.5 5.6,-6.8 1.3,-2.2 2,-4.6 2,-7.3 0,-3.1 -1,-5.6 -2.9,-7.5 -2,-1.9 -4.6,-2.9 -7.9,-2.9 -3.5,0 -6.3,1.2 -8.5,3.6 -2.2,2.5 -3.6,5.9 -4,10 l -0.2,1.5 -25.5,-3.5 0.2,-1.5 c 0.6,-5.2 2,-9.9 4.3,-14 2.3,-4.1 5.2,-7.6 8.7,-10.5 3.5,-2.9 7.5,-5.1 12,-6.6 4.5,-1.5 9.3,-2.3 14.3,-2.3 4.7,0 9.3,0.6 13.7,1.9 4.5,1.3 8.5,3.2 12,5.8 3.5,2.6 6.4,6 8.5,10 2.1,4 3.2,8.8 3.2,14.1 0,3.7 -0.5,7.1 -1.5,10.1 -1,3 -2.3,5.7 -4,8.3 -1.7,2.5 -3.6,4.9 -5.8,7 -2.1,2.1 -4.3,4.2 -6.6,6.3 L 694,226 h 38 v 23.4 h -74.7 z"
   id="path11"
   style="stroke-width:0.782344" />&#10;				<path
   class="st1"
   d="m 694.5,146.3 c 4.6,0 9,0.6 13.3,1.8 4.3,1.2 8.1,3.1 11.5,5.6 3.4,2.5 6,5.7 8,9.5 2,3.8 3,8.3 3,13.4 0,3.5 -0.5,6.7 -1.4,9.6 -0.9,2.8 -2.2,5.5 -3.8,7.9 -1.6,2.4 -3.5,4.7 -5.6,6.8 -2.1,2.1 -4.3,4.2 -6.5,6.2 l -23,20.4 h 40.5 v 20.4 h -71.7 v -19.6 l 38.6,-34.9 c 2.4,-2.3 4.4,-4.7 5.9,-7.1 1.5,-2.4 2.2,-5.1 2.2,-8.1 0,-3.5 -1.1,-6.4 -3.4,-8.6 -2.2,-2.2 -5.2,-3.3 -9,-3.3 -3.9,0 -7.1,1.4 -9.6,4.1 -2.5,2.8 -3.9,6.4 -4.4,10.9 l -22.5,-3.1 c 0.6,-5 1.9,-9.5 4.1,-13.5 2.2,-3.9 5,-7.3 8.3,-10.1 3.4,-2.8 7.2,-4.9 11.6,-6.3 4.5,-1.3 9.1,-2 13.9,-2 m 0,-3 c -5.2,0 -10.1,0.8 -14.7,2.3 -4.7,1.6 -8.9,3.9 -12.5,6.9 -3.6,3 -6.7,6.7 -9,10.9 -2.4,4.3 -3.9,9.2 -4.5,14.6 l -0.3,2.9 2.9,0.4 22.5,3.1 3.1,0.4 0.3,-3.1 c 0.4,-3.9 1.6,-6.9 3.7,-9.2 1.9,-2.1 4.3,-3.1 7.4,-3.1 2.9,0 5.2,0.8 6.9,2.4 1.7,1.6 2.5,3.7 2.5,6.4 0,2.4 -0.6,4.6 -1.8,6.5 -1.3,2.2 -3.2,4.4 -5.4,6.5 l -38.6,34.9 -1,0.9 v 1.3 19.6 3 h 3 71.7 3 v -3 -20.4 -3 h -3 -32.6 l 17.1,-15.2 c 2.3,-2.1 4.5,-4.2 6.6,-6.3 2.2,-2.2 4.2,-4.7 6,-7.2 1.8,-2.6 3.2,-5.6 4.2,-8.7 1,-3.1 1.5,-6.7 1.5,-10.5 0,-5.6 -1.1,-10.6 -3.4,-14.8 -2.2,-4.2 -5.2,-7.8 -8.9,-10.5 -3.6,-2.7 -7.8,-4.8 -12.5,-6.1 -4.6,-1.3 -9.3,-1.9 -14.2,-1.9 z"
   id="path12-3"
   style="stroke-width:0.782344" />&#10;			</g>&#10;			<g
   id="_x33_"
   style="stroke-width:0.782344">&#10;				<path
   class="st4"
   d="m 784,252.2 c -4.6,0 -9.1,-0.5 -13.4,-1.6 -4.4,-1.1 -8.4,-2.7 -12,-4.9 -3.6,-2.2 -6.9,-5 -9.6,-8.5 -2.7,-3.5 -4.8,-7.7 -6.1,-12.5 l -0.4,-1.5 24.7,-6.5 0.4,1.4 c 0.8,3 2.6,5.6 5.3,7.9 2.6,2.2 6,3.4 10.1,3.4 1.5,0 3.1,-0.2 4.7,-0.6 1.5,-0.4 2.9,-1.1 4.1,-1.9 1.2,-0.8 2.2,-2 2.9,-3.4 0.8,-1.4 1.1,-3.1 1.1,-5.1 0,-2.2 -0.5,-4 -1.5,-5.4 -1,-1.5 -2.4,-2.6 -4.1,-3.5 -1.8,-0.9 -3.8,-1.6 -6.1,-2 -2.3,-0.4 -4.7,-0.6 -7,-0.6 h -7.8 v -20.1 h 8.4 c 2.1,0 4.2,-0.2 6.2,-0.5 1.9,-0.3 3.6,-0.9 5,-1.7 1.4,-0.8 2.5,-1.8 3.4,-3.1 0.8,-1.2 1.2,-3 1.2,-5.1 0,-3.1 -1,-5.4 -3.2,-7 -2.3,-1.7 -4.8,-2.5 -7.8,-2.5 -3,0 -5.6,0.9 -7.8,2.7 -2.2,1.8 -3.6,4.2 -4.3,7.2 l -0.3,1.5 -24.9,-5.7 0.4,-1.5 c 1.3,-4.4 3.2,-8.2 5.7,-11.5 2.5,-3.3 5.5,-6 9,-8.2 3.4,-2.2 7.2,-3.8 11.3,-4.9 4,-1.1 8.2,-1.7 12.4,-1.7 4.5,0 8.9,0.6 13.2,1.7 4.3,1.2 8.2,3 11.6,5.4 3.4,2.5 6.2,5.6 8.3,9.2 2.1,3.7 3.2,8.1 3.2,13.2 0,5.8 -1.7,10.9 -5,14.9 -2.5,3 -5.5,5.3 -9,6.8 1.5,0.6 3,1.3 4.3,2.2 2.5,1.5 4.6,3.4 6.4,5.5 1.8,2.1 3.2,4.5 4.2,7.1 1,2.6 1.5,5.5 1.5,8.4 0,5.6 -1.2,10.6 -3.5,14.8 -2.3,4.1 -5.3,7.6 -9,10.3 -3.7,2.7 -7.9,4.7 -12.4,6 -4.4,1.3 -9.1,1.9 -13.8,1.9 z"
   id="path13"
   style="stroke-width:0.782344" />&#10;				<path
   class="st1"
   d="m 784.1,146.3 c 4.4,0 8.7,0.6 12.8,1.7 4.2,1.1 7.9,2.9 11.1,5.2 3.3,2.3 5.9,5.3 7.9,8.8 2,3.5 3,7.6 3,12.4 0,5.5 -1.6,10.2 -4.7,14 -3.1,3.8 -7.1,6.3 -12,7.6 v 0.4 c 2.8,0.7 5.4,1.7 7.7,3.1 2.3,1.4 4.3,3.2 6,5.2 1.7,2 3,4.2 3.9,6.7 0.9,2.5 1.4,5.1 1.4,7.9 0,5.4 -1.1,10.1 -3.3,14.1 -2.2,4 -5.1,7.2 -8.6,9.8 -3.5,2.6 -7.5,4.5 -12,5.7 -4.4,1.3 -8.9,1.9 -13.5,1.9 -4.5,0 -8.8,-0.5 -13.1,-1.5 -4.2,-1 -8.1,-2.6 -11.6,-4.7 -3.5,-2.1 -6.6,-4.8 -9.2,-8.1 -2.6,-3.3 -4.6,-7.3 -5.9,-12 l 21.8,-5.7 c 0.9,3.3 2.8,6.1 5.7,8.6 2.9,2.5 6.6,3.7 11.1,3.7 1.7,0 3.4,-0.2 5.1,-0.7 1.7,-0.5 3.3,-1.2 4.6,-2.2 1.4,-1 2.5,-2.3 3.4,-3.8 0.9,-1.6 1.3,-3.5 1.3,-5.9 0,-2.5 -0.6,-4.6 -1.8,-6.3 -1.2,-1.7 -2.7,-3 -4.6,-4 -1.9,-1 -4.1,-1.7 -6.5,-2.1 -2.4,-0.4 -4.9,-0.6 -7.3,-0.6 h -6.3 v -17.1 h 6.9 c 2.2,0 4.4,-0.2 6.4,-0.5 2.1,-0.3 3.9,-0.9 5.5,-1.8 1.6,-0.9 2.9,-2.1 3.9,-3.6 1,-1.5 1.5,-3.5 1.5,-5.9 0,-3.6 -1.3,-6.3 -3.8,-8.2 -2.5,-1.9 -5.4,-2.8 -8.7,-2.8 -3.4,0 -6.3,1 -8.8,3 -2.5,2 -4.1,4.7 -4.8,8 l -21.8,-5 c 1.2,-4.2 3,-7.9 5.5,-11 2.4,-3.1 5.3,-5.7 8.6,-7.8 3.3,-2.1 6.9,-3.7 10.8,-4.8 4.3,-1.2 8.3,-1.7 12.4,-1.7 m 0,-3 c -4.3,0 -8.7,0.6 -12.8,1.7 -4.2,1.1 -8.1,2.9 -11.7,5.1 -3.6,2.3 -6.7,5.1 -9.4,8.5 -2.7,3.4 -4.7,7.5 -6,12 l -0.9,3 3.1,0.7 21.8,5 2.9,0.7 0.7,-3 c 0.6,-2.7 1.8,-4.8 3.8,-6.4 1.9,-1.6 4.2,-2.3 6.9,-2.3 2.6,0 4.9,0.7 6.9,2.2 1.8,1.3 2.6,3.1 2.6,5.8 0,1.8 -0.3,3.3 -1,4.3 -0.7,1.1 -1.6,1.9 -2.8,2.6 -1.3,0.7 -2.9,1.2 -4.6,1.5 -1.9,0.3 -3.9,0.5 -6,0.5 h -6.9 -3 v 3 17.1 3 h 3 6.3 c 2.2,0 4.5,0.2 6.8,0.6 2.1,0.4 4,1 5.7,1.8 1.5,0.8 2.6,1.8 3.5,3 0.8,1.2 1.2,2.7 1.2,4.6 0,1.8 -0.3,3.3 -0.9,4.4 -0.7,1.2 -1.5,2.2 -2.5,2.9 -1.1,0.8 -2.3,1.3 -3.6,1.7 -1.5,0.4 -2.9,0.6 -4.3,0.6 -3.8,0 -6.8,-1 -9.1,-3 -2.5,-2.1 -4,-4.4 -4.8,-7.2 l -0.8,-2.8 -2.8,0.7 -21.8,5.7 -2.9,0.8 0.8,2.9 c 1.4,5 3.6,9.4 6.4,13 2.8,3.6 6.2,6.6 10,8.8 3.7,2.2 7.9,3.9 12.5,5 4.5,1.1 9.1,1.6 13.8,1.6 4.8,0 9.6,-0.7 14.3,-2 4.8,-1.3 9.1,-3.4 12.9,-6.2 3.9,-2.8 7.1,-6.4 9.5,-10.8 2.4,-4.4 3.7,-9.6 3.7,-15.5 0,-3.1 -0.5,-6.2 -1.6,-9 -1.1,-2.8 -2.5,-5.3 -4.4,-7.6 -1.9,-2.2 -4.1,-4.2 -6.7,-5.8 -0.6,-0.3 -1.1,-0.7 -1.7,-1 2.5,-1.5 4.8,-3.4 6.7,-5.8 3.6,-4.3 5.4,-9.7 5.4,-15.9 0,-5.3 -1.1,-9.9 -3.4,-13.9 -2.2,-3.9 -5.2,-7.1 -8.8,-9.7 -3.5,-2.5 -7.6,-4.4 -12.1,-5.6 -4.7,-0.7 -9.2,-1.3 -13.9,-1.3 z"
   id="path14-3"
   style="stroke-width:0.782344" />&#10;			</g>&#10;		</g><g
         id="GRCon"
         style="stroke-width:0.782344"
         transform="matrix(0.33819312,0,0,0.33819312,-222.41701,6.9212381)">&#10;			<g
   id="XMLID_00000119113208424027091970000001627476759054654379_"
   style="stroke-width:0.782344">&#10;				<g
   id="XMLID_00000120526291877336151170000005123900541978543036_"
   style="stroke-width:0.782344">&#10;					<path
   class="st4"
   d="M 79.2,250.7 C 60.5,250.7 45.6,245.5 35,235.3 24.3,225.1 18.9,210.8 18.9,192.8 c 0,-17.1 5.5,-31.2 16.2,-41.7 10.7,-10.5 25.9,-15.9 45,-15.9 7.2,0 14.1,0.7 20.6,2 6.5,1.3 13.9,3.9 21.9,7.8 l 0.8,0.4 v 27.8 h -5.1 l -0.4,-0.3 c -1.3,-1 -3.3,-2.4 -5.9,-4.3 -2.5,-1.8 -5,-3.4 -7.4,-4.7 -2.7,-1.5 -5.9,-2.8 -9.6,-3.9 -3.6,-1.1 -7.5,-1.6 -11.5,-1.6 -4.7,0 -9.1,0.7 -12.9,2.1 -3.8,1.4 -7.3,3.5 -10.3,6.4 -2.9,2.7 -5.2,6.3 -6.9,10.5 -1.7,4.3 -2.5,9.3 -2.5,15 0,11.5 3.1,20.4 9.1,26.4 6,6 15.1,9.1 27,9.1 1,0 2.2,0 3.5,-0.1 0.7,0 1.4,-0.1 2.1,-0.1 V 209.4 H 70.9 V 186 h 52.9 v 55.9 l -1,0.4 c -4.9,1.9 -11.4,3.8 -19.4,5.7 -8.1,1.8 -16.2,2.7 -24.2,2.7 z"
   id="path33"
   style="stroke-width:0.782344" />&#10;					<path
   class="st1"
   d="m 80,136.7 c 7.1,0 13.9,0.6 20.3,1.9 6.4,1.3 13.6,3.8 21.5,7.7 v 25.3 h -3.1 c -1.4,-1 -3.3,-2.5 -6,-4.3 -2.6,-1.9 -5.1,-3.4 -7.6,-4.8 -2.8,-1.5 -6.1,-2.9 -9.8,-4 -3.8,-1.1 -7.7,-1.7 -11.9,-1.7 -4.9,0 -9.4,0.7 -13.4,2.2 -4,1.5 -7.6,3.7 -10.8,6.7 -3,2.9 -5.5,6.6 -7.2,11.1 -1.8,4.5 -2.7,9.6 -2.7,15.5 0,12 3.2,21.1 9.5,27.5 6.3,6.3 15.7,9.5 28.1,9.5 1.1,0 2.2,0 3.5,-0.1 1.3,0 2.5,-0.1 3.5,-0.2 V 207.8 H 72.4 v -20.4 h 49.9 v 53.4 c -4.8,1.9 -11.3,3.8 -19.2,5.6 -8,1.9 -16,2.8 -23.9,2.8 -18.4,0 -32.8,-5 -43.2,-15 -10.4,-10 -15.6,-23.8 -15.6,-41.4 0,-16.8 5.3,-30.3 15.8,-40.6 10.4,-10.3 25.1,-15.5 43.8,-15.5 m 0,-3 c -19.5,0 -35,5.5 -46,16.3 -11.1,10.8 -16.7,25.2 -16.7,42.8 0,18.4 5.6,33.1 16.5,43.6 10.9,10.5 26.2,15.8 45.3,15.8 8.1,0 16.4,-1 24.6,-2.9 8.1,-1.9 14.7,-3.8 19.7,-5.8 l 1.9,-0.7 v -2.1 -53.4 -3 h -3 -49.9 -3 v 3 20.4 3 h 3 18.6 v 15.4 c -0.2,0 -0.4,0 -0.6,0 -1.2,0 -2.4,0.1 -3.4,0.1 -11.5,0 -20.3,-2.9 -26,-8.6 -5.7,-5.7 -8.6,-14.3 -8.6,-25.3 0,-5.5 0.8,-10.3 2.4,-14.4 1.6,-4 3.8,-7.4 6.5,-10 2.9,-2.7 6.2,-4.7 9.8,-6 3.7,-1.3 7.8,-2 12.4,-2 3.9,0 7.6,0.5 11.1,1.5 3.5,1 6.6,2.3 9.2,3.7 2.3,1.3 4.8,2.8 7.3,4.6 2.6,1.8 4.6,3.3 5.9,4.3 l 0.8,0.6 h 1 3.1 3 v -3 -25.3 -1.9 l -1.7,-0.8 c -8.1,-3.9 -15.6,-6.6 -22.2,-7.9 -6.6,-1.3 -13.7,-2 -21,-2 z"
   id="path34"
   style="stroke-width:0.782344" />&#10;				</g>&#10;			</g>&#10;			<g
   id="XMLID_00000031927972665828998070000007539999160002067613_"
   style="stroke-width:0.782344">&#10;				<g
   id="g36"
   style="stroke-width:0.782344">&#10;					<path
   class="st4"
   d="m 216.6,249.5 -29.4,-39.7 h -10.7 v 39.7 H 145.8 V 138.3 h 48.3 c 6.4,0 12.1,0.4 16.7,1.1 4.8,0.8 9.3,2.4 13.5,4.9 4.2,2.5 7.7,5.9 10.2,9.9 2.5,4.1 3.8,9.2 3.8,15.3 0,8.3 -2,15.1 -5.8,20.4 -3.5,4.8 -8.5,8.9 -14.8,12.2 l 36.9,47.3 h -38 z m -33,-62.1 c 4.4,0 8.1,-0.2 11,-0.6 2.7,-0.4 5,-1.3 6.9,-2.7 1.7,-1.3 3,-2.8 3.8,-4.4 0.8,-1.6 1.2,-3.8 1.2,-6.6 0,-2.4 -0.5,-4.5 -1.5,-6.2 -0.9,-1.6 -2.6,-3 -5,-3.9 -1.7,-0.7 -3.8,-1.1 -6.1,-1.3 -2.5,-0.2 -5.4,-0.3 -8.7,-0.3 h -8.6 v 26.1 h 7 z"
   id="path35"
   style="stroke-width:0.782344" />&#10;					<path
   class="st1"
   d="m 194.1,139.8 c 6.4,0 11.9,0.4 16.5,1.1 4.6,0.7 8.9,2.3 12.9,4.7 4.1,2.4 7.3,5.6 9.7,9.4 2.4,3.8 3.6,8.7 3.6,14.5 0,8 -1.9,14.5 -5.6,19.5 -3.7,5 -9,9.2 -15.9,12.6 l 36.1,46.3 H 217.3 L 188,208.3 H 175 V 248 H 147.3 V 139.8 h 46.8 M 175,188.9 h 8.6 c 4.5,0 8.2,-0.2 11.2,-0.7 3,-0.4 5.5,-1.4 7.6,-3 1.9,-1.5 3.4,-3.2 4.2,-5 0.9,-1.8 1.3,-4.2 1.3,-7.3 0,-2.7 -0.6,-5 -1.7,-7 -1.1,-1.9 -3,-3.5 -5.7,-4.6 -1.9,-0.8 -4.1,-1.2 -6.6,-1.4 -2.5,-0.2 -5.4,-0.3 -8.8,-0.3 H 175 v 29.3 m 19.1,-52.1 h -46.8 -3 v 3 108.2 3 h 3 27.7 3 v -3 -36.7 h 8.4 l 28.5,38.4 0.9,1.2 h 1.5 34.1 6.1 l -3.8,-4.8 -33.9,-43.5 c 5.7,-3.3 10.3,-7.2 13.7,-11.8 4.1,-5.5 6.1,-12.7 6.1,-21.3 0,-6.4 -1.4,-11.8 -4,-16.1 -2.6,-4.2 -6.2,-7.7 -10.7,-10.4 -4.3,-2.6 -9,-4.3 -14,-5.1 -4.6,-0.7 -10.3,-1.1 -16.8,-1.1 z M 178,162.7 h 7.1 c 3.3,0 6.1,0.1 8.6,0.2 2.2,0.1 4.1,0.6 5.7,1.2 2.1,0.8 3.5,2 4.3,3.3 0.8,1.5 1.3,3.3 1.3,5.5 0,2.6 -0.3,4.6 -1,6 -0.7,1.4 -1.8,2.7 -3.4,3.9 -1.6,1.2 -3.7,2 -6.1,2.4 -2.8,0.4 -6.5,0.6 -10.8,0.6 H 178 Z"
   id="path36"
   style="stroke-width:0.782344" />&#10;				</g>&#10;			</g>&#10;			<g
   id="XMLID_00000146470189049011302620000012092917011151908543_"
   style="stroke-width:0.782344">&#10;				<g
   id="XMLID_00000071548375245349630480000011445161362399358891_"
   style="stroke-width:0.782344">&#10;					<path
   class="st6"
   d="m 312.5,250.6 c -8.2,0 -15.8,-1.2 -22.8,-3.6 -7,-2.4 -13.1,-6.1 -18.1,-10.9 -5,-4.8 -9,-10.9 -11.7,-18.1 -2.7,-7.2 -4.1,-15.5 -4.1,-24.9 0,-8.7 1.3,-16.7 3.9,-23.8 2.6,-7.1 6.5,-13.4 11.5,-18.5 4.8,-4.9 10.9,-8.8 18,-11.5 7.1,-2.7 14.9,-4 23.3,-4 4.6,0 8.8,0.3 12.5,0.8 3.7,0.5 7.2,1.2 10.3,2 3.3,0.9 6.3,2 9,3.2 2.6,1.1 5,2.2 7,3.2 l 0.8,0.4 v 28.7 H 347 l -0.4,-0.4 c -1.3,-1.1 -3,-2.5 -5.1,-4.1 -2,-1.5 -4.3,-3.1 -6.9,-4.6 -2.6,-1.5 -5.4,-2.7 -8.4,-3.8 -2.9,-1 -6.1,-1.5 -9.5,-1.5 -3.7,0 -7.3,0.6 -10.7,1.8 -3.3,1.2 -6.4,3.1 -9.3,5.8 -2.7,2.6 -4.9,6.1 -6.6,10.4 -1.7,4.3 -2.5,9.7 -2.5,16 0,6.5 0.9,12 2.8,16.4 1.8,4.3 4.1,7.7 6.8,10.2 2.8,2.5 5.9,4.3 9.3,5.4 3.5,1.1 6.9,1.6 10.3,1.6 3.2,0 6.5,-0.5 9.6,-1.5 3.2,-1 6.2,-2.3 8.8,-4 2.3,-1.4 4.5,-2.8 6.5,-4.4 2,-1.6 3.7,-2.9 4.9,-4.1 l 0.4,-0.4 h 5 v 28.3 l -0.9,0.4 c -2.7,1.2 -5.3,2.4 -7.8,3.4 -2.5,1.1 -5.2,2 -8,2.8 -3.6,1 -7,1.8 -10.1,2.4 -2.8,0.6 -7.2,0.9 -12.7,0.9 z"
   id="path37"
   style="stroke-width:0.782344" />&#10;					<path
   class="st1"
   d="m 312.6,136.7 c 4.6,0 8.7,0.3 12.3,0.8 3.7,0.5 7,1.2 10.1,2 3.2,0.9 6.2,1.9 8.8,3.1 2.6,1.1 4.9,2.2 6.9,3.2 V 172 h -3.2 c -1.4,-1.2 -3.1,-2.5 -5.1,-4.1 -2.1,-1.6 -4.4,-3.2 -7,-4.7 -2.7,-1.5 -5.5,-2.8 -8.6,-3.9 -3.1,-1.1 -6.4,-1.6 -9.9,-1.6 -3.9,0 -7.7,0.6 -11.2,1.8 -3.5,1.2 -6.8,3.3 -9.8,6.1 -2.9,2.8 -5.2,6.4 -6.9,10.9 -1.8,4.5 -2.7,10 -2.7,16.5 0,6.8 1,12.4 2.9,17 1.9,4.5 4.3,8.1 7.2,10.7 3,2.7 6.2,4.6 9.9,5.7 3.6,1.1 7.2,1.7 10.7,1.7 3.4,0 6.7,-0.5 10.1,-1.5 3.3,-1 6.4,-2.4 9.2,-4.1 2.4,-1.4 4.6,-2.9 6.6,-4.5 2,-1.6 3.7,-3 5,-4.1 h 2.9 v 25.9 c -2.7,1.2 -5.3,2.3 -7.8,3.4 -2.5,1.1 -5.1,2 -7.8,2.8 -3.5,1 -6.9,1.8 -9.9,2.3 -3.1,0.5 -7.4,0.8 -12.8,0.8 -8,0 -15.5,-1.2 -22.3,-3.6 -6.8,-2.4 -12.6,-5.9 -17.5,-10.6 -4.9,-4.7 -8.7,-10.6 -11.4,-17.6 -2.7,-7 -4,-15.1 -4,-24.3 0,-8.6 1.3,-16.3 3.8,-23.3 2.6,-7 6.3,-13 11.2,-17.9 4.7,-4.8 10.5,-8.5 17.5,-11.1 7,-2.7 14.5,-4 22.8,-4 m 0,-3 c -8.6,0 -16.6,1.4 -23.8,4.1 -7.3,2.8 -13.6,6.7 -18.6,11.8 -5.2,5.3 -9.2,11.7 -11.9,19 -2.7,7.3 -4,15.5 -4,24.3 0,9.5 1.4,18.1 4.2,25.4 2.8,7.4 6.9,13.7 12.1,18.7 5.2,5 11.4,8.8 18.6,11.3 7.1,2.5 14.9,3.7 23.2,3.7 5.6,0 10,-0.3 13.3,-0.8 3.2,-0.6 6.7,-1.4 10.3,-2.4 2.8,-0.8 5.6,-1.8 8.1,-2.9 2.4,-1 5,-2.2 7.8,-3.4 l 1.8,-0.8 v -1.9 -25.9 -3 h -3 -2.9 -1.1 l -0.9,0.8 c -1.3,1.1 -2.9,2.5 -4.9,4 -1.9,1.5 -4,2.9 -6.3,4.3 v 0 0 c -2.6,1.6 -5.4,2.9 -8.5,3.8 -3,0.9 -6.1,1.4 -9.2,1.4 -3.2,0 -6.5,-0.5 -9.9,-1.6 -3.2,-1 -6.1,-2.7 -8.8,-5.1 -2.6,-2.3 -4.7,-5.5 -6.5,-9.7 -1.7,-4.1 -2.6,-9.5 -2.6,-15.8 0,-6.1 0.8,-11.3 2.4,-15.4 1.6,-4.1 3.7,-7.4 6.2,-9.9 2.7,-2.5 5.6,-4.4 8.7,-5.5 3.2,-1.1 6.6,-1.7 10.2,-1.7 3.2,0 6.2,0.5 9,1.4 2.9,1 5.6,2.2 8.1,3.7 2.5,1.5 4.7,3 6.7,4.5 2,1.5 3.7,2.9 5,4 l 0.8,0.7 h 1.1 3.2 3 v -3 -26.2 -1.9 l -1.7,-0.8 c -2,-1 -4.4,-2.1 -7.1,-3.2 -2.8,-1.2 -5.8,-2.3 -9.2,-3.2 v 0 0 c -3.2,-0.9 -6.7,-1.5 -10.5,-2.1 -3.5,-0.4 -7.8,-0.7 -12.4,-0.7 z"
   id="path38"
   style="stroke-width:0.782344" />&#10;				</g>&#10;			</g>&#10;			<g
   id="XMLID_00000020390715306610462670000016906467078904367274_"
   style="stroke-width:0.782344">&#10;				<g
   id="g40"
   style="stroke-width:0.782344">&#10;					<path
   class="st6"
   d="m 408.5,251 c -14.5,0 -25.9,-4 -34,-12 -8.1,-8 -12.2,-19 -12.2,-32.8 0,-13.9 4.1,-24.9 12.3,-32.9 8.1,-7.9 19.5,-12 33.9,-12 14.6,0 26,4.1 34.1,12.1 8,8 12.1,19 12.1,32.8 0,13.8 -4.1,24.8 -12.2,32.8 -8.1,8 -19.5,12 -34,12 z m 0,-68.4 c -2.3,0 -4.4,0.3 -6.2,0.9 -1.7,0.6 -3.4,1.8 -5,3.6 -1.4,1.7 -2.6,4.1 -3.5,7.2 -0.9,3.1 -1.4,7.2 -1.4,12 0,4.3 0.4,8.1 1.2,11.2 0.8,3 1.9,5.5 3.3,7.3 1.4,1.7 3,2.9 4.9,3.7 2,0.8 4.3,1.2 6.8,1.2 2.2,0 4.3,-0.4 6.3,-1.1 1.9,-0.7 3.5,-1.9 4.8,-3.6 1.6,-1.9 2.8,-4.3 3.5,-7 0.8,-2.8 1.2,-6.7 1.2,-11.7 0,-4.6 -0.4,-8.6 -1.3,-11.7 -0.8,-3 -1.9,-5.5 -3.4,-7.2 -1.4,-1.8 -3,-3 -5,-3.7 -1.7,-0.7 -3.9,-1.1 -6.2,-1.1 z"
   id="path39"
   style="stroke-width:0.782344" />&#10;					<path
   class="st1"
   d="m 408.5,162.9 c 14.2,0 25.2,3.9 33,11.6 7.8,7.7 11.7,18.3 11.7,31.7 0,13.4 -3.9,24 -11.7,31.7 -7.8,7.7 -18.8,11.6 -32.9,11.6 -14.1,0 -25.1,-3.9 -32.9,-11.6 -7.8,-7.7 -11.7,-18.3 -11.7,-31.7 0,-13.5 3.9,-24.1 11.8,-31.8 7.7,-7.7 18.7,-11.5 32.7,-11.5 m 0.2,68.4 c 2.4,0 4.6,-0.4 6.8,-1.2 2.2,-0.8 4,-2.1 5.5,-4 1.7,-2.1 3,-4.6 3.8,-7.5 0.8,-2.9 1.3,-7 1.3,-12.2 0,-4.8 -0.4,-8.8 -1.3,-12.1 -0.9,-3.2 -2.1,-5.8 -3.6,-7.8 -1.5,-2 -3.4,-3.4 -5.6,-4.2 -2.2,-0.8 -4.5,-1.2 -7,-1.2 -2.5,0 -4.8,0.3 -6.7,1 -2,0.7 -3.8,2 -5.6,4.1 -1.6,1.9 -2.9,4.5 -3.8,7.8 -0.9,3.3 -1.4,7.4 -1.4,12.4 0,4.5 0.4,8.3 1.2,11.6 0.8,3.3 2,5.9 3.6,7.9 1.5,1.9 3.4,3.3 5.6,4.1 2,0.9 4.5,1.3 7.2,1.3 m -0.2,-71.4 c -14.8,0 -26.5,4.2 -35,12.4 -8.4,8.2 -12.7,19.7 -12.7,34 0,14.2 4.2,25.6 12.6,33.8 8.4,8.3 20.2,12.4 35,12.4 14.9,0 26.7,-4.2 35,-12.4 8.4,-8.3 12.6,-19.7 12.6,-33.8 0,-14.2 -4.2,-25.6 -12.5,-33.9 -8.2,-8.3 -20,-12.5 -35,-12.5 z m -10.1,28.2 c 1.4,-1.6 2.9,-2.7 4.3,-3.2 1.6,-0.6 3.6,-0.9 5.7,-0.9 2.1,0 4.2,0.4 6,1 1.7,0.6 3.1,1.7 4.3,3.3 1.3,1.6 2.3,3.9 3.1,6.7 0.8,3 1.2,6.8 1.2,11.3 0,4.9 -0.4,8.7 -1.2,11.3 -0.7,2.5 -1.8,4.7 -3.3,6.5 -1.2,1.5 -2.6,2.5 -4.2,3.1 -1.8,0.7 -3.7,1 -5.7,1 -2.4,0 -4.5,-0.4 -6.2,-1.1 -1.7,-0.7 -3.1,-1.8 -4.4,-3.3 -1.3,-1.6 -2.3,-3.9 -3,-6.7 -0.8,-3 -1.1,-6.7 -1.1,-10.9 0,-4.7 0.4,-8.6 1.3,-11.6 0.9,-2.7 1.9,-4.9 3.2,-6.5 z"
   id="path40"
   style="stroke-width:0.782344" />&#10;				</g>&#10;			</g>&#10;			<g
   id="XMLID_00000030456951571546799460000017403468046904172462_"
   style="stroke-width:0.782344">&#10;				<g
   id="XMLID_00000046335718723781808770000009738563607016469180_"
   style="stroke-width:0.782344">&#10;					<path
   class="st6"
   d="m 526.1,249.5 v -42 c 0,-3.2 -0.2,-6.5 -0.5,-9.7 -0.3,-3.1 -0.8,-5.3 -1.6,-6.7 -0.8,-1.5 -2,-2.6 -3.5,-3.3 -1.7,-0.7 -4.1,-1.1 -7.2,-1.1 -2.2,0 -4.5,0.4 -6.8,1.1 -2.1,0.7 -4.4,1.7 -6.9,3.1 v 58.4 h -29.2 v -83 h 29.2 v 5.9 c 3.9,-2.8 7.6,-5.1 11.3,-6.7 4.5,-2 9.5,-3 14.9,-3 9.2,0 16.5,2.7 21.7,8.2 5.2,5.4 7.9,13.5 7.9,24.1 v 54.6 h -29.3 z"
   id="path41"
   style="stroke-width:0.782344" />&#10;					<path
   class="st1"
   d="m 525.8,164.2 c 8.8,0 15.7,2.6 20.6,7.7 5,5.1 7.4,12.8 7.4,23 V 248 h -26.2 v -40.5 c 0,-3.3 -0.2,-6.6 -0.5,-9.8 -0.3,-3.3 -0.9,-5.7 -1.7,-7.2 -1,-1.8 -2.4,-3.1 -4.2,-3.9 -1.9,-0.8 -4.5,-1.2 -7.8,-1.2 -2.4,0 -4.8,0.4 -7.2,1.2 -2.4,0.8 -5.1,2 -8,3.7 V 248 H 472 v -80 h 26.2 v 7.4 c 4.6,-3.6 9.1,-6.4 13.4,-8.4 4.2,-1.9 8.9,-2.8 14.2,-2.8 m 0,-3 c -5.6,0 -10.8,1.1 -15.5,3.2 -3,1.3 -6,3.1 -9.1,5.2 v -1.6 -3 h -3 -26.2 -3 v 3 80 3 h 3 26.2 3 v -3 -56.1 c 2.1,-1.1 4.1,-2 5.9,-2.6 2.1,-0.7 4.3,-1 6.3,-1 3.6,0 5.6,0.5 6.6,1 1.2,0.6 2.2,1.4 2.8,2.6 0.4,0.8 1,2.5 1.4,6.1 0.3,3.2 0.5,6.4 0.5,9.5 v 40.5 3 h 3 26.2 3 v -3 -53.1 c 0,-11 -2.8,-19.4 -8.3,-25.1 -5.6,-5.7 -13.2,-8.6 -22.8,-8.6 z"
   id="path42"
   style="stroke-width:0.782344" />&#10;				</g>&#10;			</g>&#10;		</g><g
         id="g50"
         transform="matrix(1.0323122,0,0,1.0323969,6.2416344,-96.840996)"
         style="stroke-width:0.968655"><path
           id="path6-9-8"
           style="clip-rule:evenodd;fill:#353535;fill-rule:evenodd;stroke-width:1.45299;stroke-dasharray:none"
           class="st3"
           d="m 64.719208,103.02426 c -1.244188,0.33527 -2.235033,1.39837 -2.425344,2.76991 -0.227263,1.73704 0.919977,3.34399 2.613288,3.69611 l -0.0073,62.98005 1.920448,-0.60785 -0.0025,-62.56065 c 1.085938,-0.427 1.887491,-1.40212 2.056664,-2.62125 0.261743,-1.80346 -1.018063,-3.47957 -2.846761,-3.73333 -0.450867,-0.0654 -0.893752,-0.0348 -1.308483,0.077 z m 0.365352,1.45571 c 0.229345,-0.0618 0.47332,-0.0797 0.719658,-0.0467 1.010616,0.12416 1.698738,1.07173 1.566593,2.05712 -0.12416,1.01062 -1.071575,1.69923 -2.056967,1.56708 -1.010619,-0.12416 -1.69923,-1.07157 -1.567085,-2.05696 0.09312,-0.75796 0.649735,-1.33525 1.337801,-1.5205 z"
           sodipodi:nodetypes="scccccccscccccc" /><g
           id="g46"
           inkscape:transform-center-x="6.2349549"
           inkscape:transform-center-y="2.0034954"
           transform="matrix(-0.8019436,-0.90045227,0.90058564,-0.80195686,22.716858,250.277)"
           style="stroke-width:1.20495;stroke-dasharray:none"><g
             id="path3486_00000005988742553475774120000015601319634481059480_-1"
             transform="matrix(0.26458333,0,0,0.26458333,-105.73565,87.281429)"
             inkscape:transform-center-x="-0.7697017"
             inkscape:transform-center-y="-6.7286598"
             style="stroke-width:4.55417;stroke-dasharray:none">&#10;				<path
   class="st3"
   d="m 673.9,65.8 c -0.6,-8.2 -6.1,-15.6 -14.3,-19.5 -3.6,-1.7 -7.5,-2.6 -11.3,-2.6 -4.8,0 -9.4,1.4 -13,3.9 l -1.1,0.8 -3.1,-8.6 0.7,-0.4 c 4.9,-3 10.6,-4.5 16.5,-4.5 5.1,0 10.3,1.2 15,3.4 10.4,4.9 17.5,14.2 19.1,24.9 l 0.1,0.8 -8.6,3.2 z"
   id="path7-0-1"
   style="clip-rule:evenodd;fill:#353535;fill-rule:evenodd;stroke-width:4.55417;stroke-dasharray:none" />&#10;				<path
   class="st1"
   d="m 648.3,35.7 c 4.8,0 9.8,1.1 14.6,3.3 10.4,4.9 17.1,14.3 18.5,24.1 l -6.6,2.5 c -0.6,-8.2 -6.1,-16.2 -14.9,-20.4 -3.8,-1.8 -7.8,-2.7 -11.7,-2.7 -5,0 -9.7,1.4 -13.5,4.1 L 632.3,40 c 4.7,-2.7 10.3,-4.3 16,-4.3 m 0,-2 c -6.2,0 -12,1.6 -17.1,4.7 l -1.4,0.9 0.6,1.5 2.4,6.6 0.9,2.5 2.1,-1.5 c 3.4,-2.4 7.8,-3.7 12.4,-3.7 3.7,0 7.4,0.9 10.9,2.5 7.9,3.7 13.1,10.9 13.7,18.7 l 0.2,2.6 2.5,-0.9 6.6,-2.5 1.5,-0.6 -0.2,-1.6 c -1.6,-11 -9,-20.6 -19.7,-25.7 -4.8,-2.2 -10.1,-3.5 -15.4,-3.5 z"
   id="path8-4-3"
   style="fill:#ffffff;stroke-width:4.55417;stroke-dasharray:none" />&#10;			</g><path
             class="st3"
             d="m 69.762473,105.66997 c 0.05292,-1.21708 -0.899584,-2.56646 -2.38125,-3.25437 -0.635,-0.3175 -1.322917,-0.47625 -1.984375,-0.47625 -0.79375,0 -1.508125,0.23812 -2.010833,0.66145 l -0.291042,0.26459 -0.846667,-2.30188 0.185209,-0.10583 c 0.846666,-0.555626 1.905,-0.873126 3.01625,-0.873126 0.978958,0 2.010833,0.238125 2.963333,0.687916 2.06375,0.97896 3.466041,2.80458 3.65125,4.73604 l 0.02646,0.21167 -2.328333,0.87312 z"
             id="path9-5"
             style="clip-rule:evenodd;fill:#353535;fill-rule:evenodd;stroke-width:1.20495;stroke-dasharray:none" /><path
             class="st1"
             d="m 65.449765,99.849137 c 0.926041,0 1.904999,0.211663 2.831041,0.661463 2.037292,0.9525 3.33375,2.75166 3.4925,4.52437 l -1.772708,0.66146 c 0.07937,-1.29646 -0.926042,-2.75167 -2.54,-3.51896 -0.714375,-0.34396 -1.42875,-0.50271 -2.116667,-0.50271 -0.846666,0 -1.640416,0.26459 -2.169583,0.74084 l -0.635,-1.74625 c 0.820208,-0.52917 1.825625,-0.820213 2.910417,-0.820213 m 0,-0.529166 c -1.190625,0 -2.275417,0.3175 -3.175,0.899579 l -0.343959,0.23813 0.132292,0.39687 0.635,1.74625 0.264583,0.74084 0.582084,-0.50271 c 0.449791,-0.39688 1.084791,-0.60854 1.825625,-0.60854 0.635,0 1.269999,0.15875 1.878541,0.44979 1.375833,0.66146 2.275417,1.87854 2.2225,3.01625 l -0.05292,0.79375 0.767292,-0.29104 1.772708,-0.66146 0.370417,-0.13229 -0.05292,-0.39688 c -0.211666,-2.03729 -1.666875,-3.94229 -3.81,-4.94771 -0.926041,-0.502704 -1.984375,-0.740829 -3.016249,-0.740829 z"
             id="path10-8"
             style="fill:#ffffff;stroke-width:1.20495;stroke-dasharray:none" /></g><path
           style="color:#000000;fill:#bcbcbc;fill-opacity:1;fill-rule:evenodd;stroke:#ffffff;stroke-width:0.242165;stroke-linecap:round;stroke-dasharray:none"
           d="m 66.160156,109.1582 c -0.388852,-0.14154 -0.940352,-0.10623 -1.082424,0.28244 0,0 -1.988589,3.73744 -1.836245,6.67029 0.09089,1.74981 1.277611,2.81438 2.072966,3.88516 0.795355,1.07079 1.644958,2.1665 1.728972,4.1836 0.0797,1.91351 -1.106927,4.32597 -2.227019,6.68945 -1.120091,2.36348 -2.323863,4.6601 -2.029297,6.80273 0.271806,1.97708 1.438466,4.45409 2.517578,6.83985 1.079113,2.38576 2.040489,4.74177 2.048829,5.72656 0.008,0.9413 -0.980719,2.62196 -2.044922,4.45703 -1.064204,1.83507 -2.178485,3.90991 -1.900391,6.12891 0.285456,2.27774 2.167977,4.87745 4.085938,7.15625 0.95898,1.1394 1.936337,2.17586 2.755859,2.97656 0.819522,0.8007 1.393702,1.32697 1.888672,1.60938 0.46705,0.26647 1.741191,1.217 3.511719,1.98437 1.770527,0.76738 4.111244,1.38158 6.917968,1.09375 2.47715,-0.25402 4.317255,0.44876 5.921875,1.20508 1.60462,0.75632 2.97864,1.69873 4.576172,1.36328 2.378848,-0.49951 3.822266,-0.88672 3.822266,-0.88672 0.400361,-0.10765 0.637443,-0.51969 0.529297,-0.91992 -0.107671,-0.39939 -0.518373,-0.6362 -0.917969,-0.5293 0,0 -1.396658,0.37663 -3.742188,0.86914 -0.764657,0.16057 -1.943238,-0.45939 -3.628906,-1.2539 -1.685668,-0.79452 -3.874305,-1.63093 -6.71289,-1.33985 -2.509006,0.2573 -4.571962,-0.28593 -6.169922,-0.97851 -1.597961,-0.69258 -2.657002,-1.50608 -3.365235,-1.91016 -0.09267,-0.0529 -0.798833,-0.61565 -1.582031,-1.38086 -0.783198,-0.76521 -1.732383,-1.76951 -2.65625,-2.86719 -1.847733,-2.19535 -3.555054,-4.85454 -3.746094,-6.3789 -0.198401,-1.58311 0.672951,-3.40296 1.708985,-5.18945 1.036034,-1.7865 2.263018,-3.45411 2.248047,-5.22266 -0.01461,-1.72504 -1.100801,-3.94245 -2.181641,-6.33203 -1.08084,-2.38958 -2.187147,-4.88889 -2.398438,-6.42578 -0.18853,-1.37135 0.776136,-3.58694 1.898438,-5.95508 1.122302,-2.36814 2.475079,-4.9069 2.37155,-7.39258 -0.09922,-2.3821 -1.19199,-3.89496 -2.025847,-5.01758 -0.833857,-1.12261 -1.701001,-1.81155 -1.778044,-2.89493 -0.1804,-2.53678 2.032157,-6.78694 2.032157,-6.78694 0.141539,-0.38885 -0.222879,-0.11942 -0.611535,-0.26149 z"
           id="path46"
           sodipodi:nodetypes="ccsssssssssssssssscccsssssssssssssssscc" /><path
           id="path47"
           style="clip-rule:evenodd;fill:#353535;fill-rule:evenodd;stroke-width:1.45299;stroke-dasharray:none"
           class="st3"
           d="m 64.90715,116.02189 -0.0073,8.40631 1.920448,-0.60784 -0.0025,-7.98692 z"
           sodipodi:nodetypes="ccccc" /><path
           id="path48"
           style="clip-rule:evenodd;fill:#353535;fill-rule:evenodd;stroke-width:1.45299;stroke-dasharray:none"
           class="st3"
           d="m 64.90715,139.17646 -0.0073,9.90399 1.920448,-0.60784 -0.0025,-9.12276 z"
           sodipodi:nodetypes="ccccc" /><path
           id="path49"
           style="clip-rule:evenodd;fill:#353535;fill-rule:evenodd;stroke-width:1.45299;stroke-dasharray:none"
           class="st3"
           d="m 64.90715,160.36099 -0.0073,7.64694 1.920448,-0.60784 -0.0025,-7.22755 z"
           sodipodi:nodetypes="ccccc" /><g
           id="g44"
           transform="matrix(0.7398581,0,0,0.73921993,53.264202,42.061129)"
           style="stroke-width:1.30982"><path
             style="fill:none;fill-rule:evenodd;stroke:#ffffff;stroke-width:1.30982;stroke-linecap:round;stroke-linejoin:round;stroke-dasharray:none;stroke-opacity:1"
             d="m 56.624889,181.89571 c 0,0 19.010677,-22.62901 32.522826,-56.33119 7.320698,26.30117 31.049125,65.45442 31.049125,65.45442 L 86.875976,185.8486 89.134894,125.57"
             id="path4"
             sodipodi:nodetypes="ccccc" /><path
             style="fill:none;fill-rule:evenodd;stroke:#000000;stroke-width:0.346555px;stroke-linecap:butt;stroke-linejoin:miter;stroke-opacity:1"
             d="m 148.24668,102.43398 c 7.3207,26.30117 31.04913,65.45442 31.04913,65.45442"
             id="path5"
             sodipodi:nodetypes="cc" /><path
             style="fill:none;fill-rule:evenodd;stroke:#000000;stroke-width:0.346555px;stroke-linecap:butt;stroke-linejoin:miter;stroke-opacity:1"
             d="m 89.182108,125.65527 c 0,0 21.147152,-4.96142 31.027562,-8.85969 9.8804,-3.89828 28.05749,-14.48394 28.05749,-14.48394"
             id="path6"
             sodipodi:nodetypes="czc" /><path
             style="fill:none;fill-rule:evenodd;stroke:#f9f9f9;stroke-width:1.30982;stroke-linecap:round;stroke-linejoin:round;stroke-dasharray:none;stroke-opacity:1"
             d="m 179.26078,167.78008 -59.10364,23.19016"
             id="path7" /><path
             style="fill:none;fill-rule:evenodd;stroke:#ffffff;stroke-width:1.30982;stroke-linecap:round;stroke-linejoin:round;stroke-dasharray:none;stroke-opacity:1"
             d="M 86.815778,185.79043 56.737905,181.89145"
             id="path8" /><path
             style="fill:#6d6b6c;fill-opacity:1;stroke-width:2.17429;stroke-linecap:round;paint-order:markers stroke fill"
             d="m 103.4008,188.22694 c -8.880861,-1.38635 -16.185001,-2.55861 -16.231425,-2.60503 -0.04642,-0.0464 0.405281,-13.19208 1.003784,-29.21257 0.598504,-16.02049 1.089197,-29.22394 1.09043,-29.34101 0.0013,-0.11706 0.533194,1.38349 1.182132,3.33457 4.279479,12.86654 11.381079,28.209 21.904289,47.32249 2.04206,3.70903 5.41333,9.62285 6.65609,11.67598 0.77916,1.28722 0.82788,1.38963 0.64814,1.36234 -0.0585,-0.009 -7.37258,-1.15043 -16.25344,-2.53677 z"
             id="path12" /><path
             style="fill:#6d6b6c;fill-opacity:1;stroke:#ffffff;stroke-width:4.95049;stroke-linecap:round;stroke-linejoin:round;stroke-dasharray:none;paint-order:markers stroke fill"
             d="M 450.72301,714.48808 C 420.7958,663.8618 388.15343,601.11601 367.60428,554.71569 356.01146,528.53891 344.71557,498.63592 339.04322,479.10756 l -1.03524,-3.56406 19.44193,-4.88152 c 50.33416,-12.638 83.46002,-22.6508 104.13974,-31.47785 20.33235,-8.67877 58.39425,-28.44775 93.72831,-48.68155 2.34732,-1.34418 4.31301,-2.39359 4.3682,-2.33202 0.0552,0.0616 1.35759,4.21466 2.89421,9.22908 16.84878,54.98218 57.20758,139.77368 107.42264,225.6888 l 6.21398,10.63177 -1.98134,0.83205 c -5.84022,2.45257 -219.02673,85.96922 -219.44698,85.96922 -0.2745,0 -2.10405,-2.71503 -4.06566,-6.0334 z"
             id="path14"
             transform="scale(0.26458333)" /><path
             style="fill:#6d6b6c;fill-opacity:1;stroke-width:8.21777;stroke-linecap:round;paint-order:markers stroke fill"
             d="m 270.82767,694.06326 -55.2049,-7.21191 3.06819,-3.8888 c 6.67922,-8.46567 17.90638,-23.79643 25.76456,-35.18168 34.44515,-49.90552 66.13146,-107.71461 88.23934,-160.98551 2.55925,-6.16675 2.71796,-6.40902 2.8885,-4.40957 0.21084,2.47179 -7.55533,214.56343 -7.95396,217.22001 -0.14784,0.98526 -0.56761,1.76393 -0.93282,1.73038 -0.36521,-0.0336 -25.50622,-3.30638 -55.86891,-7.27292 z"
             id="path15"
             transform="scale(0.26458333)" /><g
             id="g4684"
             transform="matrix(0.36515793,-0.23113269,0.23113269,0.36515793,78.610658,142.09907)"
             style="stroke-width:0.801913"><path
               class="fil3"
               d="m 136.1636,73.874976 c 3.50539,3.465 5.25827,7.69571 5.25827,12.691774 0,4.87524 -1.7426,9.05563 -5.2278,12.54083 -3.4852,3.4852 -7.64539,5.22779 -12.48024,5.22779 -3.39165,0 -6.44775,-0.82488 -9.16795,-2.47464 l -6.34075,6.34075 c 3.94548,4.48866 5.91804,9.83941 5.91804,16.05189 0,6.69649 -2.39351,12.43842 -7.18087,17.22578 -4.78701,4.78736 -10.5013,7.18087 -17.142875,7.18087 -6.751771,0 -12.535866,-2.38004 -17.350511,-7.13977 -4.815,-4.75937 -7.222323,-10.51511 -7.222323,-17.26688 0,-6.75248 2.324055,-12.53587 6.973582,-17.35087 4.648819,-4.815 10.349292,-7.22232 17.101417,-7.22232 5.988189,0 11.18799,1.78334 15.60083,5.34968 l 6.03602,-6.03567 c -3.40972,-3.437 -5.11441,-7.57948 -5.11441,-12.42744 0,-4.915634 1.69228,-9.126144 5.07685,-12.631534 0.31429,-0.32528 0.63532,-0.63567 0.96272,-0.93083 l -6.1728,-6.17279 c -2.68193,2.54799 -5.857438,3.82216 -9.526533,3.82216 -3.871062,0 -7.187598,-1.36453 -9.948188,-4.09358 -2.760945,-2.72906 -4.141418,-6.02929 -4.141418,-9.90071 0,-3.87142 1.332993,-7.18795 3.998622,-9.94854 2.66563,-2.76095 5.933977,-4.14142 9.805394,-4.14142 3.967086,0 7.330393,1.36488 10.091693,4.09394 2.76024,2.7287 4.14071,6.06082 4.14071,9.99602 0,2.69256 -0.67465,5.11583 -2.02429,7.27016 l 6.85275,6.85311 c 2.49768,-1.40351 5.30114,-2.10544 8.41146,-2.10544 5.03646,0 9.3072,1.73233 12.8126,5.19768 z M 96.164267,48.757896 c -2.189409,0 -4.030157,0.77704 -5.521535,2.3322 -1.491378,1.5548 -2.237244,3.4115 -2.237244,5.56937 0,2.22094 0.729921,4.07764 2.189764,5.56937 1.459842,1.49138 3.316181,2.23689 5.569015,2.23689 2.126339,0 3.927043,-0.76925 5.402833,-2.30846 1.47543,-1.53922 2.21315,-3.37182 2.21315,-5.4978 0,-1.0474 -0.19027,-2.04697 -0.57118,-2.99905 -0.38055,-0.95209 -0.9202,-1.77697 -1.61823,-2.47536 -0.69838,-0.72957 -1.53106,-1.31669 -2.499092,-1.76102 -0.967677,-0.44433 -1.943504,-0.66614 -2.927481,-0.66614 z m -6.364842,61.714484 c -3.818976,0 -7.028858,1.35567 -9.629645,4.06736 -2.601496,2.71205 -3.902244,5.94992 -3.902244,9.71363 0,3.87354 1.272755,7.11141 3.818976,9.71291 2.545512,2.60079 5.78374,3.90153 9.712913,3.90153 3.708071,0 6.848858,-1.34185 9.422362,-4.02661 2.573153,-2.6837 3.860433,-5.87976 3.860433,-9.58783 0,-1.82693 -0.33201,-3.56989 -0.99638,-5.23028 -0.66401,-1.66039 -1.60476,-3.09933 -2.822596,-4.31681 -1.217481,-1.27311 -2.670236,-2.29677 -4.358622,-3.07169 -1.687323,-0.77492 -3.389528,-1.16221 -5.105197,-1.16221 z M 123.71383,76.534226 c -2.78043,0 -5.11724,0.98681 -7.01078,2.96115 -1.8939,1.97433 -2.84067,4.33133 -2.84067,7.071374 0,2.82048 0.92657,5.17748 2.78008,7.07138 1.8535,1.89354 4.21051,2.84032 7.07137,2.84032 2.6993,0 4.98579,-0.97725 6.85949,-2.93138 1.87335,-1.95414 2.8102,-4.28067 2.8102,-6.98032 0,-1.3298 -0.24165,-2.599014 -0.72532,-3.807634 -0.4833,-1.20863 -1.16822,-2.25638 -2.05476,-3.14256 -0.88654,-0.92693 -1.94421,-1.67209 -3.17303,-2.23618 -1.22882,-0.56445 -2.46756,-0.84615 -3.71658,-0.84615 z"
               id="path3484"
               inkscape:connector-curvature="0"
               style="fill:#ff6905;fill-rule:evenodd;stroke-width:0.801913" /><path
               class="fil3"
               d="m 71.293796,36.662816 c 4.548897,-8.03374 13.97622,-13.55421 24.865865,-13.55421 10.854209,0 20.255669,5.48503 24.821569,13.4759 l 5.54103,-5.68453 c -6.21354,-9.32279 -17.48799,-15.55547 -30.362599,-15.55547 -12.967086,0 -24.311338,6.32303 -30.49618,15.7578 z"
               id="path3486"
               inkscape:connector-curvature="0"
               style="fill:#ff6905;fill-rule:evenodd;stroke-width:0.801913" /><path
               class="fil3"
               d="m 96.092693,28.893756 c -9.484725,0 -17.688189,4.48441 -21.598228,10.99595 l 5.61685,5.5474 c 2.163189,-5.05347 8.501457,-8.71335 15.981378,-8.71335 7.554687,0 13.944327,3.73358 16.044447,8.86536 l 5.55449,-5.69835 c -3.91004,-6.51224 -12.1135,-10.99701 -21.598937,-10.99701 z"
               id="path3488"
               inkscape:connector-curvature="0"
               style="fill:#ff6905;fill-rule:evenodd;stroke-width:0.801913" /></g></g><path
           id="path50"
           style="clip-rule:evenodd;fill:#353535;fill-rule:evenodd;stroke-width:1.45299;stroke-dasharray:none"
           class="st3"
           d="m 65.359835,102.9193 c -0.218921,0.0134 -0.433423,0.049 -0.640788,0.1049 -1.244187,0.33527 -2.234864,1.39832 -2.425175,2.76986 -0.227263,1.73704 0.919968,3.34429 2.613277,3.69641 v 0.0108 c 0.633827,-0.0605 1.342451,0.0121 1.910478,-0.19945 1.085937,-0.427 1.887549,-1.4019 2.056722,-2.62103 0.261743,-1.80346 -1.018159,-3.47987 -2.846855,-3.73363 -0.225433,-0.0327 -0.448738,-0.0413 -0.667659,-0.0279 z m 0.07803,1.50172 c 0.120454,-0.008 0.243217,-0.004 0.366386,0.0124 1.010615,0.12416 1.698458,1.07133 1.566313,2.05672 -0.12416,1.01062 -1.071331,1.6995 -2.056722,1.56735 -1.010618,-0.12416 -1.698975,-1.07134 -1.56683,-2.05673 0.09312,-0.75795 0.649321,-1.33558 1.337386,-1.52083 0.114673,-0.0309 0.233013,-0.0508 0.353467,-0.0589 z"
           sodipodi:nodetypes="scccccccsscccccssc" /></g><text
         xml:space="preserve"
         style="font-style:normal;font-variant:normal;font-weight:normal;font-stretch:normal;font-size:16.4707px;line-height:100%;font-family:Roboto;-inkscape-font-specification:'Roboto, Normal';font-variant-ligatures:normal;font-variant-position:normal;font-variant-caps:normal;font-variant-numeric:normal;font-variant-alternates:normal;font-variant-east-asian:normal;text-indent:0;text-align:end;text-decoration:none;text-decoration-line:none;text-decoration-style:solid;text-decoration-color:#000000;letter-spacing:0px;word-spacing:0px;text-transform:none;writing-mode:lr-tb;direction:ltr;text-orientation:mixed;dominant-baseline:auto;baseline-shift:baseline;text-anchor:end;white-space:normal;shape-padding:0;shape-margin:0;fill:#353535;fill-opacity:1;stroke:#ffffff;stroke-width:0.396876;stroke-linecap:butt;stroke-linejoin:miter;stroke-miterlimit:4;stroke-dasharray:none;stroke-dashoffset:0;stroke-opacity:1;stop-color:#000000"
         x="200.28293"
         y="104.21693"
         id="text42"
         transform="scale(0.99528305,1.0047393)"><tspan
           sodipodi:role="line"
           x="200.28293"
           y="104.21693"
           style="font-style:normal;font-variant:normal;font-weight:normal;font-stretch:normal;font-size:16.4707px;font-family:Roboto;-inkscape-font-specification:'Roboto, Normal';font-variant-ligatures:normal;font-variant-caps:normal;font-variant-numeric:normal;font-variant-east-asian:normal;fill:#353535;fill-opacity:1;stroke:#ffffff;stroke-width:0.396876;stroke-dasharray:none"
           id="tspan44">REMOTE EDITION</tspan></text></g></g><style
     type="text/css"
     id="style1">&#10;	.st0{fill-rule:evenodd;clip-rule:evenodd;fill:#FFFFFF;}&#10;	.st1{fill:#FFFFFF;}&#10;	.st2{fill:#BCBCBC;}&#10;	.st3{fill-rule:evenodd;clip-rule:evenodd;fill:#353535;}&#10;	.st4{fill:#6D6B6C;}&#10;	.st5{fill:#353535;}&#10;	.st6{fill:#ED722F;}&#10;</style></svg>
