<?xml version="1.0" encoding="UTF-8" standalone="no"?>
<svg xmlns:rdf="http://www.w3.org/1999/02/22-rdf-syntax-ns#" xmlns="http://www.w3.org/2000/svg" height="280.1" width="361.4" version="1.1" xmlns:cc="http://creativecommons.org/ns#" xmlns:xlink="http://www.w3.org/1999/xlink" xmlns:dc="http://purl.org/dc/elements/1.1/">
<title>VOLK</title>
<defs>
<linearGradient id="b">
<stop style="stop-color:#0ff" offset="0"/>
<stop style="stop-color:#0ff;stop-opacity:0" offset="1"/>
</linearGradient>
<linearGradient id="a">
<stop style="stop-color:#49b6ad" offset="0"/>
<stop style="stop-color:#366a5d" offset=".1882"/>
<stop style="stop-color:#231e0e" offset="1"/>
</linearGradient>
<radialGradient id="d" xlink:href="#a" gradientUnits="userSpaceOnUse" cy="968.8" cx="1111" gradientTransform="matrix(1 0 0 .8058 0 188.2)" r="5.869"/>
<radialGradient id="c" xlink:href="#a" gradientUnits="userSpaceOnUse" cy="968.8" cx="1064" gradientTransform="matrix(1 0 0 .8058 0 188.2)" r="5.869"/>
<linearGradient id="f" y2="1186" xlink:href="#b" gradientUnits="userSpaceOnUse" x2="1066" y1="969.3" x1="1066"/>
<linearGradient id="e" y2="1202" xlink:href="#b" gradientUnits="userSpaceOnUse" x2="1113" y1="967.7" x1="1113"/>
</defs>
<g transform="translate(-213 -231.3)">
<g transform="translate(288.9 -613.9)">
<path style="fill:#231e0e" d="m320.3 203.1a141.9 141.9 0 0 1 200.3 5.52 141.9 141.9 0 0 1 -4.87 200.3 141.9 141.9 0 0 1 -200.3 -4.221 141.9 141.9 0 0 1 3.571 -200.4" transform="matrix(.7358 0 0 .7358 -205.7 781)"/>
<g transform="matrix(.7071 -.7071 .7071 .7071 -1433 1026)">
<path style="stroke:#231e0e;stroke-width:6.985;fill:#5b584a" d="m1031 896.2c-4.503 13.5-4.4 33.21 1.698 47.51-7.42 16.24-11.92 33.44-14.07 47.75 12.39 9.423 31.01 12.57 42.22 13.29 2.567 4.015 8.646 8.032 13.22 8.876 4.996 0.9229 9.188 1.273 13.46 1.164 4.272 0.109 8.464-0.2412 13.46-1.164 4.571-0.8443 10.65-4.861 13.22-8.876 11.21-0.7155 29.86-3.866 42.25-13.29-1.874-17.32-6.728-34.91-14.09-47.73 6.109-14.3 6.203-34.03 1.698-47.53-11.99 2.221-22.55 9.93-27.74 17.05-8.333-4.815-17.88-7.688-28.04-7.688-0.5043-0.0143-0.9962 0-1.504 0-10.15 0-19.68 2.874-28.01 7.688-5.196-7.121-15.78-14.83-27.77-17.05z"/>
<path d="m1039 972.1c-6.957-0.0519-12.75 6.872-16.54 17.75v0.0239c0.7104 0.4476 1.422 0.8715 2.134 1.285 0.6218 0.3613 1.244 0.7064 1.867 1.043 0.153 0.0818 0.3072 0.1619 0.4608 0.2426 0.3244 0.1717 0.6452 0.344 0.9701 0.5093 0.4422 0.2217 0.8855 0.4435 1.334 0.6548 0.1135 0.0542 0.2259 0.1159 0.3395 0.1698 9.961 4.719 20.3 6.585 31.99 7.494 0.4346 0.038 0.8711 0.086 1.31 0.1214 2.97 4.796 6.79 7.21 10.96 8.464 0.049 0.017 0.097 0.032 0.1456 0.049 0.2569 0.075 0.5164 0.1513 0.776 0.2182 4.282 1.255 8.723 1.28 12.85 1.188 4.13 0.091 8.572 0.066 12.85-1.188 0.3089-0.08 0.6163-0.1751 0.9216-0.2668 4.172-1.254 7.992-3.668 10.96-8.464 0.4095-0.033 0.8063-0.085 1.212-0.1213 11.73-0.9064 22.1-2.762 32.08-7.494 0.185-0.0874 0.3731-0.1771 0.5578-0.2668 0.6135-0.2921 1.217-0.6097 1.819-0.9215 0.1364-0.0717 0.2759-0.1457 0.4123-0.2183 0.1056-0.0561 0.2099-0.1133 0.3153-0.1698 0.6237-0.3364 1.246-0.6815 1.867-1.043 0.7123-0.4138 1.424-0.8376 2.134-1.285v-0.0239c-4.669-13.39-12.36-20.8-21.54-16.56-3.834 10.06-11.27 16.17-23.23 17.36-3.754-8.391-7.437-15.43-20.37-15.43-12.94 0-16.62 7.04-20.37 15.43-11.96-1.195-19.4-7.303-23.23-17.36-1.722-0.795-3.389-1.176-4.996-1.188z" style="fill:#ece7da"/>
<path style="fill:#0ff" d="m1059 964.1c-0.7409 0.9872-1.188 2.212-1.188 3.541 0 3.264 2.654 5.918 5.917 5.918 2.974 0 5.408-2.209 5.82-5.069l-10.55-4.39z"/>
<path style="fill:#0ff" d="m1115 964.1c0.7408 0.9872 1.188 2.212 1.188 3.541 0 3.264-2.654 5.918-5.918 5.918-2.974 0-5.407-2.209-5.82-5.069l10.55-4.39z"/>
<path d="m1075 979c1.596-5.968 23.76-6.541 26.04 0 1.951 5.602-7.072 12.83-13.02 12.85-5.418 0.0147-14.62-6.846-13.02-12.85z" style="fill:#231e0e"/>
<path style="fill:#949389" d="m1035 908.4c6.412 4.145 12.65 8.538 16.61 16-6.001 5.625-9.926 10.29-13.62 17.84-5.935-15.33-5.449-25.48-2.987-33.84z"/>
<path d="m1139 908.4c-6.411 4.145-12.65 8.538-16.61 16 6.001 5.625 9.926 10.29 13.62 17.84 5.935-15.33 5.449-25.48 2.987-33.84z" style="fill:#949389"/>
<path style="opacity:.4650;fill:#949389" d="m1103 939.1c4.702-2.341 15.86 3.273 20.58 9.138 2.38 4.134 2.533 8.022 1.596 11.79l-28.55 11.64c5.977-8.545 7.786-19.59 6.375-32.57z"/>
<path d="m1072 939.1c-4.702-2.341-15.86 3.273-20.58 9.138-2.38 4.134-2.533 8.022-1.596 11.79l28.55 11.64c-5.976-8.545-7.786-19.59-6.375-32.57z" style="opacity:.4650;fill:#949389"/>
</g>
<g transform="matrix(-.7071 -.7071 -.7071 .7071 1643 1026)">
<path d="m1031 896.2c-4.503 13.5-4.4 33.21 1.698 47.51-7.42 16.24-11.92 33.44-14.07 47.75 12.39 9.423 31.01 12.57 42.22 13.29 2.567 4.015 8.646 8.032 13.22 8.876 4.996 0.9229 9.188 1.273 13.46 1.164 4.272 0.109 8.464-0.2412 13.46-1.164 4.571-0.8443 10.65-4.861 13.22-8.876 11.21-0.7155 29.86-3.866 42.25-13.29-1.874-17.32-6.728-34.91-14.09-47.73 6.109-14.3 6.203-34.03 1.698-47.53-11.99 2.221-22.55 9.93-27.74 17.05-8.333-4.815-17.88-7.688-28.04-7.688-0.5043-0.0143-0.9962 0-1.504 0-10.15 0-19.68 2.874-28.01 7.688-5.196-7.121-15.78-14.83-27.77-17.05z" style="stroke:#231e0e;stroke-width:6.985;fill:#5b584a"/>
<path style="fill:#ece7da" d="m1039 972.1c-6.957-0.0519-12.75 6.872-16.54 17.75v0.0239c0.7104 0.4476 1.422 0.8715 2.134 1.285 0.6218 0.3613 1.244 0.7064 1.867 1.043 0.153 0.0818 0.3072 0.1619 0.4608 0.2426 0.3244 0.1717 0.6452 0.344 0.9701 0.5093 0.4422 0.2217 0.8855 0.4435 1.334 0.6548 0.1135 0.0542 0.2259 0.1159 0.3395 0.1698 9.961 4.719 20.3 6.585 31.99 7.494 0.4346 0.038 0.8711 0.086 1.31 0.1214 2.97 4.796 6.79 7.21 10.96 8.464 0.049 0.017 0.097 0.032 0.1456 0.049 0.2569 0.075 0.5164 0.1513 0.776 0.2182 4.282 1.255 8.723 1.28 12.85 1.188 4.13 0.091 8.572 0.066 12.85-1.188 0.3089-0.08 0.6163-0.1751 0.9216-0.2668 4.172-1.254 7.992-3.668 10.96-8.464 0.4095-0.033 0.8063-0.085 1.212-0.1213 11.73-0.9064 22.1-2.762 32.08-7.494 0.185-0.0874 0.3731-0.1771 0.5578-0.2668 0.6135-0.2921 1.217-0.6097 1.819-0.9215 0.1364-0.0717 0.2759-0.1457 0.4123-0.2183 0.1056-0.0561 0.2099-0.1133 0.3153-0.1698 0.6237-0.3364 1.246-0.6815 1.867-1.043 0.7123-0.4138 1.424-0.8376 2.134-1.285v-0.0239c-4.669-13.39-12.36-20.8-21.54-16.56-3.834 10.06-11.27 16.17-23.23 17.36-3.754-8.391-7.437-15.43-20.37-15.43-12.94 0-16.62 7.04-20.37 15.43-11.96-1.195-19.4-7.303-23.23-17.36-1.722-0.795-3.389-1.176-4.996-1.188z"/>
<path d="m1059 964.1c-0.7409 0.9872-1.188 2.212-1.188 3.541 0 3.264 2.654 5.918 5.917 5.918 2.974 0 5.408-2.209 5.82-5.069l-10.55-4.39z" style="fill:url(#c)"/>
<path d="m1115 964.1c0.7408 0.9872 1.188 2.212 1.188 3.541 0 3.264-2.654 5.918-5.918 5.918-2.974 0-5.407-2.209-5.82-5.069l10.55-4.39z" style="fill:url(#d)"/>
<path style="fill:#231e0e" d="m1075 979c1.596-5.968 23.76-6.541 26.04 0 1.951 5.602-7.072 12.83-13.02 12.85-5.418 0.0147-14.62-6.846-13.02-12.85z"/>
<path d="m1035 908.4c6.412 4.145 12.65 8.538 16.61 16-6.001 5.625-9.926 10.29-13.62 17.84-5.935-15.33-5.449-25.48-2.987-33.84z" style="fill:#949389"/>
<path style="fill:#949389" d="m1139 908.4c-6.411 4.145-12.65 8.538-16.61 16 6.001 5.625 9.926 10.29 13.62 17.84 5.935-15.33 5.449-25.48 2.987-33.84z"/>
<path d="m1103 939.1c4.702-2.341 15.86 3.273 20.58 9.138 2.38 4.134 2.533 8.022 1.596 11.79l-28.55 11.64c5.977-8.545 7.786-19.59 6.375-32.57z" style="opacity:.4650;fill:#949389"/>
<path style="opacity:.4650;fill:#949389" d="m1072 939.1c-4.702-2.341-15.86 3.273-20.58 9.138-2.38 4.134-2.533 8.022-1.596 11.79l28.55 11.64c-5.976-8.545-7.786-19.59-6.375-32.57z"/>
<path style="opacity:.8;block-progression:tb;text-indent:0;color:#000000;text-transform:none;fill:url(#e)" d="m1111 967.1a2 2 0 0 0 -1.969 2.031v225.4a2 2 0 1 0 4 0v-225.4a2 2 0 0 0 -2 -1.5z"/>
<path style="opacity:.8;block-progression:tb;text-indent:0;color:#000000;text-transform:none;fill:url(#f)" d="m1064 967.1a2 2 0 0 0 -1.781 2.031v225.4a2 2 0 1 0 4 0v-225.4a2 2 0 0 0 -2.219 -2.031z"/>
</g>
<g transform="translate(-982.6 -9.355)">
<path style="stroke:#231e0e;stroke-width:6.985;fill:#5b584a" d="m1031 896.2c-4.503 13.5-4.4 33.21 1.698 47.51-7.42 16.24-11.92 33.44-14.07 47.75 12.39 9.423 31.01 12.57 42.22 13.29 2.567 4.015 8.646 8.032 13.22 8.876 4.996 0.9229 9.188 1.273 13.46 1.164 4.272 0.109 8.464-0.2412 13.46-1.164 4.571-0.8443 10.65-4.861 13.22-8.876 11.21-0.7155 29.86-3.866 42.25-13.29-1.874-17.32-6.728-34.91-14.09-47.73 6.109-14.3 6.203-34.03 1.698-47.53-11.99 2.221-22.55 9.93-27.74 17.05-8.333-4.815-17.88-7.688-28.04-7.688-0.5043-0.0143-0.9962 0-1.504 0-10.15 0-19.68 2.874-28.01 7.688-5.196-7.121-15.78-14.83-27.77-17.05z"/>
<path d="m1039 972.1c-6.957-0.0519-12.75 6.872-16.54 17.75v0.0239c0.7104 0.4476 1.422 0.8715 2.134 1.285 0.6218 0.3613 1.244 0.7064 1.867 1.043 0.153 0.0818 0.3072 0.1619 0.4608 0.2426 0.3244 0.1717 0.6452 0.344 0.9701 0.5093 0.4422 0.2217 0.8855 0.4435 1.334 0.6548 0.1135 0.0542 0.2259 0.1159 0.3395 0.1698 9.961 4.719 20.3 6.585 31.99 7.494 0.4346 0.038 0.8711 0.086 1.31 0.1214 2.97 4.796 6.79 7.21 10.96 8.464 0.049 0.017 0.097 0.032 0.1456 0.049 0.2569 0.075 0.5164 0.1513 0.776 0.2182 4.282 1.255 8.723 1.28 12.85 1.188 4.13 0.091 8.572 0.066 12.85-1.188 0.3089-0.08 0.6163-0.1751 0.9216-0.2668 4.172-1.254 7.992-3.668 10.96-8.464 0.4095-0.033 0.8063-0.085 1.212-0.1213 11.73-0.9064 22.1-2.762 32.08-7.494 0.185-0.0874 0.3731-0.1771 0.5578-0.2668 0.6135-0.2921 1.217-0.6097 1.819-0.9215 0.1364-0.0717 0.2759-0.1457 0.4123-0.2183 0.1056-0.0561 0.2099-0.1133 0.3153-0.1698 0.6237-0.3364 1.246-0.6815 1.867-1.043 0.7123-0.4138 1.424-0.8376 2.134-1.285v-0.0239c-4.669-13.39-12.36-20.8-21.54-16.56-3.834 10.06-11.27 16.17-23.23 17.36-3.754-8.391-7.437-15.43-20.37-15.43-12.94 0-16.62 7.04-20.37 15.43-11.96-1.195-19.4-7.303-23.23-17.36-1.722-0.795-3.389-1.176-4.996-1.188z" style="fill:#ece7da"/>
<path style="fill:#231e0e" d="m1059 964.1c-0.7409 0.9872-1.188 2.212-1.188 3.541 0 3.264 2.654 5.918 5.917 5.918 2.974 0 5.408-2.209 5.82-5.069l-10.55-4.39z"/>
<path style="fill:#231e0e" d="m1115 964.1c0.7408 0.9872 1.188 2.212 1.188 3.541 0 3.264-2.654 5.918-5.918 5.918-2.974 0-5.407-2.209-5.82-5.069l10.55-4.39z"/>
<path style="opacity:.8;fill:#0ff" transform="matrix(.4193 0 0 .6632 927.2 816.8)" d="m497 464.6h-225.3l112.7-195.1z"/>
<path d="m1075 979c1.596-5.968 23.76-6.541 26.04 0 1.951 5.602-7.072 12.83-13.02 12.85-5.418 0.0147-14.62-6.846-13.02-12.85z" style="fill:#231e0e"/>
<path style="fill:#949389" d="m1035 908.4c6.412 4.145 12.65 8.538 16.61 16-6.001 5.625-9.926 10.29-13.62 17.84-5.935-15.33-5.449-25.48-2.987-33.84z"/>
<path d="m1139 908.4c-6.411 4.145-12.65 8.538-16.61 16 6.001 5.625 9.926 10.29 13.62 17.84 5.935-15.33 5.449-25.48 2.987-33.84z" style="fill:#949389"/>
<path style="opacity:.4650;fill:#949389" d="m1103 939.1c4.702-2.341 15.86 3.273 20.58 9.138 2.38 4.134 2.533 8.022 1.596 11.79l-28.55 11.64c5.977-8.545 7.786-19.59 6.375-32.57z"/>
<path d="m1072 939.1c-4.702-2.341-15.86 3.273-20.58 9.138-2.38 4.134-2.533 8.022-1.596 11.79l28.55 11.64c-5.976-8.545-7.786-19.59-6.375-32.57z" style="opacity:.4650;fill:#949389"/>
</g>
</g>
<g style="stroke:#231e0e;stroke-width:1.2;fill:#5b584a">
<path style="" d="m339.6 399q0 0.6221-0.6221 0.9332-0.8554-0.3111-0.8554-0.9332 0-0.6999 0.8554-1.167 0.6221 0.4666 0.6221 1.167zm2.022 4.977q0 0.5444-0.7777 0.9332-0.7777-0.3888-0.7777-0.9332 0-0.7777 0.7777-1.167 0.7777 0.3888 0.7777 1.167zm-2.644 2.8h-1.089v-1.011h1.089v1.011zm-1.322 9.799q0 0.6999-0.7777 0.9332-0.6221-0.2333-0.6221-0.9332 0-0.6221 0.6221-0.8554 0.7777 0.2333 0.7777 0.8554zm0.3888-23.41q0 2.644-1.555 7.777t-1.555 7.777q0 0.7777 0.5444 2.255 0.5444 1.4 0.5444 2.177 0 1.4-1.011 4.199-1.011 2.722-1.011 4.199l0.9332 0.9332q0 3.266-2.566 9.332-2.489 5.988-2.489 9.254 0 0.4666 0.6221 1.555 0.6999 1.011 0.6999 1.478 0 0.2333-0.1555 0.9332-0.8554 0.2333-1.944 1.011 0.1555 1.4 0.1555 2.255 0 2.411-1.167 2.566 0.1555 1.089 0.1555 4.588 0 2.955-1.944 13.84-0.2333 2.566-1.089 7.543-1.089 4.744-4.51 4.744 0 0.8554 1.244 2.566 1.322 1.711 1.322 2.877 0 1.167-0.9332 2.955-1.011 2.022-1.089 2.955h-6.844l-1.944 2.022-1.089-0.8554q-0.6221 1.089-1.944 1.089 0-6.844 2.411-20.38 2.489-13.61 2.489-20.45 0-8.321 3.111-18.12 0.6221-1.633 1.866-4.977-0.0778-1.244-0.0778-3.188l0.0778-5.599q0.0778-11.9 4.822-29.32h13.92zm-8.943 75.43-0.6221 0.3888-0.3888-0.3888 0.5444-0.6221 0.4666 0.6221zm-16.64-14.15q0 4.433-2.255 19.83-2.411 16.02-3.655 18.66-1.555-0.5444-2.1-4.744-0.6999-5.133-6.299-32.9-2.022-9.876-3.111-15.94-1.322-7.31-1.322-9.099 0-0.6999 0.3888-1.555 0.6221-0.3888 1.633-0.3888l-2.022-0.8554q-1.633-5.055-4.122-16.49-2.644-12.36-2.644-17.81h12.75q1.244-1.011 2.877-1.322v0.5444q0 2.177 1.011 9.565l0.9332 0.8554v7.932h2.955q-1.089 1.089-1.089 6.377 0 0.2333 0.0778 0.7777 0.0778 0.4666 0.0778 0.6999l1.944-1.089q-1.167 1.167-1.167 4.977 0 5.133 2.177 14.62 1.478 2.255 2.955 6.921-1.089 2.411-1.089 2.877 0 1.322 0.5444 3.811t0.5444 3.733zm14.39 19.99q0 0.6999-0.6221 0.9332-0.7777-0.2333-0.7777-0.9332 0-0.6221 0.7777-1.011 0.6221 0.3888 0.6221 1.011zm-0.9332 6.921q0 0.6221-0.6999 0.8554-0.8554-0.2333-0.8554-0.8554t0.8554-1.089q0.6999 0.4666 0.6999 1.089zm-6.61 13.61-0.6221 0.3888-0.3888-0.3888 0.3888-0.3888 0.6221 0.3888zm-2.955 0-0.6221 0.3888-0.3888-0.3888 0.3888-0.3888 0.6221 0.3888zm-8.865-0.8554-0.1555 0.6999-0.7777 0.1555v-0.3888q0-0.6221 0.6999-0.6221l0.2333 0.1555zm19.36-99.08q0-0.6221-0.6221-1.011-0.7777 0.3888-0.7777 1.011 0 0.6999 0.7777 1.089 0.6221-0.3888 0.6221-1.089zm-19.36 32.43-0.1555-0.4666q-0.9332-0.0778-0.9332-0.0778t-0.6999 0.0778l-0.1555 0.4666 0.8554 0.3888 1.089-0.3888zm-1.167 46.97q0-0.6221-0.7777-1.011-0.7777 0.3888-0.7777 1.011 0 0.6999 0.7777 0.9332 0.7777-0.2333 0.7777-0.9332zm9.643 9.799q0-0.6221-0.6221-0.9332-0.6221 0.3111-0.6221 0.9332t0.6221 1.011q0.6221-0.3888 0.6221-1.011zm1.478 5.755v-0.8554l-1.089 0.8554h1.089zm-3.033-0.8554v-2.1l-1.944 2.1h1.944zm-8.088-7.777q0-0.6221-0.7777-1.089-0.7777 0.4666-0.7777 1.089 0 0.6221 0.7777 0.8554 0.7777-0.2333 0.7777-0.8554z"/>
<path style="" d="m382.5 400.9t-0.1555 0.9332q-0.6221-0.2333-1.011-0.6999-0.0778-1.322-0.0778-1.322t0.0778-0.8554q0.5444 0.0778 1.011 0.6999 0.1555 1.244 0.1555 1.244zm7.388 8.865q0 0.4666-0.6221 0.8554-0.7777-0.2333-0.7777-0.8554 0-0.7777 0.7777-1.167 0.6221 0.3888 0.6221 1.167zm-30.72 5.444-0.3111 0.3888-0.6221-0.4666 0.6221-0.5444 0.3111 0.6221zm30.1 18.04-1.011 0.8554v43.32q-1.633 1.711-5.055 7.466-2.566 4.355-6.844 7.077-3.422 2.177-5.833 2.177-1.944 0-5.833-1.167 0-0.8554-0.0778-2.411-0.0778-1.633-0.0778-2.333 0-3.966 4.744-9.099 4.822-5.133 4.822-8.71v-41.06q0.9332-0.3888 1.4-1.089-0.2333-0.7777-1.089-1.866-0.9332-21-7.077-21-0.9332 0-1.633 0.2333l1.011-0.8554-2.022-2.955v-10.81h4.977q1.244 1.478 0.8554 4.977l0.8554-1.011 0.6999-2.722 0.8554-0.4666 0.5444 0.2333q0.6999 1.167 0.9332 2.955l1.089-1.866 5.833 0.8554q-0.1555 0.7777-1.322 3.344-0.9332 2.1-0.6999 3.577-1.167-1.089-3.422-1.089-0.6221 0-1.711 0.3888-0.6999 0.7777-0.6999 1.633 0 2.955 3.966 2.955 1.011 0 2.955-0.3888 1.944-0.4666 3.033-0.4666l0.8554 0.8554q2.566 0 2.877-2.955-0.0778 2.333-0.0778 2.566 0 2.255 1.089 6.532t1.089 6.455q0 2.177-1.089 6.455-1.011 4.277-1.011 6.455 0 1.711 2.1 2.955zm-27.76 14.7q0 0.6999-0.6999 1.089-0.6999-0.3888-0.6999-1.089 0-0.6221 0.6999-1.011 0.6999 0.3888 0.6999 1.011zm-0.9332 1.944q0 0.6221-0.8554 0.8554-0.6221-0.2333-0.6221-0.8554t0.6221-0.8554q0.8554 0.2333 0.8554 0.8554zm2.177 45.11q-20.69-6.299-20.69-24.57v-60.04q0-8.321 5.288-8.243 0-4.744 2.1-5.91 1.011-0.4666 5.833-0.6999 3.344-0.1555 4.044-2.722v-1.011l0.6221-0.7777q1.244-0.2333 2.8-0.2333v13.14q-5.288 3.811-6.532 11.28-0.4666 2.8-0.4666 13.45v16.33q0 15.79 1.011 17.65 0.6999 1.244 2.1 3.888-1.089 1.322-3.033 3.888 0.7777 2.489 3.266 5.988 2.877 4.122 3.655 5.677v12.91zm-1.244-30.33q0 0.6221-0.6999 1.011-0.6999-0.3888-0.6999-1.011 0-0.6221 0.6999-1.011 0.6999 0.3888 0.6999 1.011zm-2.955 6.844q0 0.6221-0.6221 0.9332-0.7777-0.3111-0.7777-0.9332 0-0.6999 0.7777-1.089 0.6221 0.3888 0.6221 1.089zm19.36-62.21-0.4666-0.6999-0.4666 0.5444 0.4666 0.6221 0.4666-0.4666zm-3.5-2.489v-1.167h-0.9332l0.9332 1.167zm0 1.789-0.3111-0.3888-0.6221 0.3888 0.4666 0.5444 0.4666-0.5444zm12.52 24.65q0-0.6999-0.6221-0.9332-0.6999 0.2333-0.6999 0.9332 0 0.6221 0.6999 0.8554 0.6221-0.2333 0.6221-0.8554zm-36.55-31.65v-0.3111q0-0.7777-0.3888-1.478l-0.3888 0.3888q-0.0778 1.322-0.0778 1.322t0.0778 0.9332l0.3888 0.3111q0.3888-0.6221 0.3888-1.167zm36.55 37.56q0-0.6221-0.6221-0.9332-0.6999 0.3111-0.6999 0.9332t0.6999 0.9332q0.6221-0.3111 0.6221-0.9332zm0.5444 3.811q0-1.244-1.167-1.866v1.866h1.167zm-2.8-2.255-0.3888-0.6221-0.3888 0.5444 0.3888 0.4666 0.3888-0.3888zm-0.3888 2.255-0.5444-0.4666-0.3111 0.4666 0.3111 0.5444 0.5444-0.5444zm-8.399-0.8554-0.3888-1.011-0.3888 0.1555q-0.0778 0.8554-0.0778 0.8554t0.0778 0.7777l0.3888 0.0778 0.3888-0.8554zm-20.53-9.254-0.3888-0.5444-0.4666 0.5444 0.4666 0.3888 0.3888-0.3888zm1.167 33.67q0-0.6221-0.6999-0.8554-0.6221 0.2333-0.6221 0.8554 0 0.6999 0.6221 0.9332 0.6999-0.2333 0.6999-0.9332z"/>
<path style="" d="m411.8 397.4-0.3111 0.4666-0.6221-0.4666 0.6221-0.5444 0.3111 0.5444zm-1.866 6.999q0 0.6221-0.5444 1.244l-0.3888-0.2333q-0.0778-1.011-0.0778-1.011t0.0778-1.322l0.3888-0.3111q0.5444 0.7777 0.5444 1.633zm-12.91-11.28q-0.0778 1.011-0.1555 2.1-0.2333 1.4-1.089 1.633v-3.733h1.244zm13.14 17.5q0 0.6221-0.7777 0.9332-0.6221-0.3111-0.6221-0.9332t0.6221-0.8554q0.7777 0.2333 0.7777 0.8554zm-12.52-11.67-0.1555 0.6999-0.8554 0.1555-0.0778-0.2333q0-0.7777 0.8554-0.7777l0.2333 0.1555zm10.58 12.75q0 0.6221-0.7777 1.011-0.6999-0.3888-0.6999-1.011 0-0.6999 0.6999-1.089 0.7777 0.3888 0.7777 1.089zm2.955 3.888q0 0.6221-0.7777 0.8554-0.6221-0.2333-0.6221-0.8554 0-0.6999 0.6221-1.089 0.7777 0.3888 0.7777 1.089zm-6.844-6.844q0 0.6221-0.7777 1.011-0.7777-0.3888-0.7777-1.011 0-0.6999 0.7777-1.011 0.7777 0.3111 0.7777 1.011zm5.055 3.966q-1.4 0.9332-1.944 2.877v-1.089t0.3111-1.322q0.4666-0.6221 1.167-0.6221 0.0778 0 0.4666 0.1555zm-9.799 1.789-0.5444 0.6221-0.3111-0.6221 0.3111-0.3888 0.5444 0.3888zm10.58 22.63q0 0.6221-0.7777 1.089-0.6221-0.4666-0.6221-1.089 0-0.6221 0.6221-1.011 0.7777 0.3888 0.7777 1.011zm-13.38-8.399-0.1555 0.6221q-0.4666-0.4666-0.8554-1.089v-0.9332q0.4666 0.3888 0.8554 0.9332l0.1555 0.4666zm13.76 48.53v0.1555h-15.24q0-1.4 2.333-2.955l-1.011-1.089v-21.46q0-1.478 2.955-1.167-1.322-0.9332-3.655-3.033-0.3888-1.244-0.3888-2.644 0-2.177 1.089-4.977l-0.3888-0.6221-0.4666-0.3888q0.1555-0.7777 0.6221-1.011 0.7777 0.1555 2.333 0.3888v-5.133l-1.089-0.0778-1.866 0.8554q0.2333-1.011 1.789-3.111 1.244-1.866 1.244-3.655 0-1.244-1.167-3.188-1.089-1.944-1.089-2.722 0-0.6221 0.3111-1.478 0.9332-0.4666 1.866-0.4666 0.6221 0 1.555 1.4 1.011 1.4 1.633 1.4 0.3111 0 0.6221-0.1555l1.011-0.6999-1.944-2.877 1.711-0.6221q0-2.255-2.722-4.588t-2.722-4.744l-1.322-0.6221q0-2.411 3.033-8.166l-0.6221-0.3888-0.2333-0.4666q0.2333-1.089 0.8554-2.955-0.2333-1.011-0.8554-2.022h5.055q0 1.244-1.322 2.022h0.5444q2.877 0 3.5-2.877 3.733 0.4666 3.733 4.744h-2.8v1.944h1.011q0 4.977-1.944 5.833 0.3111-0.6221 0.3111-1.478-1.011-1.167-4.044-1.167-0.0778 0.6221-0.3111 1.944 0.3111 0.8554 1.089 1.866-0.5444-0.2333-1.089-0.2333-1.478 0-2.877 1.167 1.944 3.811 3.966 3.811 1.011 0 1.866-0.9332l0.1555 0.5444q-0.5444 1.633-1.011 2.411l0.0778 1.555 0.7777-0.6221 2.022 4.044 1.944-1.011v15.71q0 0.5444-1.789 4.977-1.789 4.355-2.177 4.744h3.033q-1.011 1.944-1.011 3.5 0 0.9332 1.478 3.188t1.478 3.188q0 3.5-1.944 4.977l0.9332 0.8554v15.79q1.244 1.944 1.167 2.8zm29.24 1.089h-1.866q0.5444-1.244 1.866-1.244v1.244zm-28-19.13-0.3111 0.3888-0.6221-0.3888 0.6221-0.5444 0.3111 0.5444zm25.51 29.55-0.3888 0.3888-0.5444-0.5444 0.5444-0.3888 0.3888 0.5444zm-25.82-16.33h-1.089v-0.9332l1.089 0.9332zm25.43 11.74q-1.089 0.8554-2.177 6.144-0.9332 4.666-2.8 4.666h-13.61q-0.5444-0.4666-1.011-0.8554-0.2333-0.0778-0.5444-0.1555-1.011 0-2.411 1.011l0.2333 0.0778q-0.6999 0.0778-2.255 0.0778-1.633 0-4.744-0.5444-3.111-0.6221-4.744-0.6221-0.8554 0-1.633 0.3888l0.3888 0.6221h-1.011l0.6221-0.6221q-0.5444-1.011-3.188-1.244-2.255-0.2333-2.255-1.944v-11.98l0.8554 1.089q3.422-1.244 10.81-1.244h-0.0778 0.0778 0.1555l0.6221 0.0778 3.266 0.0778 0.8554 1.089q0.2333-0.6221 0.8554-1.011 1.167-0.0778 1.167-0.0778t1.167 0.0778q0.4666 0.3888 0.6999 1.011 0.1555-0.6221 0.8554-1.011 1.089-0.0778 1.089-0.0778 16.41 0 18.74 4.977zm-39.27 10.81-1.011 0.3888-0.8554-0.3888 0.1555-0.2333q0.6999-0.1555 0.6999-0.1555t0.8554 0.1555l0.1555 0.2333zm9.332-98.45-0.4666-0.5444-0.6221 0.5444 0.6221 0.3111 0.4666-0.3111zm-1.555 3.266h-0.8554t-1.322 0.1555q-0.6221 0.3111-0.7777 0.9332h1.089q1.011-0.4666 1.866-1.089zm-4.044 5.988q0-0.6221-0.7777-1.011-0.7777 0.3888-0.7777 1.011 0 0.6999 0.7777 1.011 0.7777-0.3111 0.7777-1.011zm4.822 14.7q0-0.6221-0.7777-1.011-0.6221 0.3888-0.6221 1.011 0 0.6221 0.6221 0.9332 0.7777-0.3111 0.7777-0.9332zm1.789 2.411q0-0.7777-0.5444-1.478l-0.3111 0.3111v2.255l0.3111 0.3888q0.5444-0.6221 0.5444-1.478zm-2.955 0-0.4666-0.5444-0.3888 0.5444 0.3888 0.6221 0.4666-0.6221zm-1.789 1.478q0-0.6221-0.7777-0.8554-0.6221 0.2333-0.6221 0.8554 0 0.6999 0.6221 0.9332 0.7777-0.2333 0.7777-0.9332zm4.977 8.865q0-0.6999-0.7777-0.9332-0.6999 0.2333-0.6999 0.9332 0 0.6221 0.6999 0.8554 0.7777-0.2333 0.7777-0.8554zm-4.666-4.51-0.5444-1.089-1.167-0.6221q0 1.167-0.6999 3.266-0.6999 2.1-0.6999 3.188 3.111 0 3.111-4.744zm0.7777 5.444q0-0.6221-0.7777-0.9332-0.7777 0.3111-0.7777 0.9332t0.7777 1.011q0.7777-0.3888 0.7777-1.011zm0.8554 2.955q0-0.6221-0.6221-1.011-0.7777 0.3888-0.7777 1.011 0 0.6221 0.7777 1.089 0.6221-0.4666 0.6221-1.089zm-3.577-1.944h-1.011v0.9332l1.011-0.9332zm1.944 6.766h-1.944v1.011l1.944-1.011zm-1.944 4.977-0.6221-0.3111-0.3888 0.3111 0.3888 0.3888 0.6221-0.3888zm-3.966-2.022-0.4666-0.3888-0.5444 0.3888 0.5444 0.4666 0.4666-0.4666zm5.91 7.932-0.3111-0.1555q-0.7777 0-0.7777 0.7777v0.2333l0.9332-0.1555 0.1555-0.6999zm-4.822 0.8554-1.089-0.8554v2.022l1.089-1.167zm23.41 27.53q-0.0778-0.3888-0.7777-0.3888h-0.2333q-0.7777 0-0.9332 0.3888l1.011 0.5444 0.9332-0.5444zm-23.1-22.01-0.3111-0.5444-0.5444 0.5444 0.5444 0.3888 0.3111-0.3888zm31.73 34.92q0-0.8554-0.6999-1.167-0.6999 0.3111-0.6999 1.167 0 0.6221 0.6999 0.8554 0.6999-0.2333 0.6999-0.8554zm-24.57-22.63q0-0.6999-0.7777-1.089-0.6221 0.3888-0.6221 1.089 0 0.6221 0.6221 0.9332 0.7777-0.3111 0.7777-0.9332zm20.61 22.63q0-0.8554-0.6999-1.167-0.7777 0.3111-0.7777 1.167 0 0.6221 0.7777 0.8554 0.6999-0.2333 0.6999-0.8554zm-19.36-18.74v-0.9332h-0.9332v0.9332h0.9332zm-2.411-1.555-0.4666-0.4666-0.3888 0.4666 0.3888 0.6221 0.4666-0.6221zm16.8 20.3q0-0.8554-0.6221-1.167-0.6999 0.3111-0.6999 1.167 0 0.6221 0.6999 0.8554 0.6221-0.2333 0.6221-0.8554zm-22.47-21.7q0-0.6221-0.6221-0.9332-0.8554 0.3111-0.8554 0.9332t0.8554 0.9332q0.6221-0.3111 0.6221-0.9332zm15.63 22.09v-0.3888q0-0.8554-0.6221-1.167-0.7777 0.3111-0.7777 1.167l0.5444 0.8554 0.8554-0.4666z"/>
<path style="" d="m482.5 410.8q0 0.6999-0.9332 0.9332-0.6221-0.2333-0.6221-0.9332 0-0.7777 0.6221-1.011 0.9332 0.2333 0.9332 1.011zm-4.122 8.788q0 0.6221-0.6221 0.9332-0.6221-0.3111-0.6221-0.9332t0.6221-0.9332q0.6221 0.3111 0.6221 0.9332zm-17.58-16.72q0 0.6999-0.6221 1.089-0.8554-0.3888-0.8554-1.089 0-0.6221 0.8554-0.8554 0.6221 0.2333 0.6221 0.8554zm29.86 88.5q0 3.655-6.144 3.655-2.255 0-3.811-0.4666h2.955q-1.011-1.555-2.955-1.555-0.8554 0-2.489 0.6221-1.633 0.5444-2.489 0.5444-3.577-11.67-3.577-17.73h-1.167l-7.854-26.52h-2.022q-1.167 4.122-3.733 9.799l-1.244 0.3888v-29.63q2.489-3.577 8.865-17.89 2.877-6.221 7.777-18.98h8.788q0-1.555 4.122-1.555l0.8554 1.167q0.3888-0.1555 2.1-1.167l1.244-0.1555q0 6.221-4.199 9.021-8.554 13.61-12.91 25.51 1.167 0.2333 1.167 4.044l-1.167 0.8554q0.5444 2.022 2.1 2.877l-0.9332 1.011q0.2333 1.789 1.789 4.977 1.633 3.111 1.944 4.744 1.167 6.144 1.711 7.699 0.7777 2.411 3.344 7.077 0 0.2333-0.0778 0.5444 0 4.122 4.977 21 0 0.0778 1.866 5.055 1.167 3.188 1.167 5.055zm-31.57-2.177q-1.322 0.1555-5.21 3.111-3.811 2.877-6.455 2.877-0.7777 0-2.255-0.5444-1.4-0.6221-2.177-0.6221-0.3888 0-1.555 1.011h-0.8554l0.8554-20.53 2.1-2.022h-2.1v-79.24h7.932q0.6999-2.411 2.022-2.411v2.411h4.744l-0.9332 1.789v0.6221l1.089 2.255-0.1555 1.322q-0.3888 0.6221-0.9332 0.7777v6.844l0.9332 1.011-0.9332 0.9332q-1.011 22.01-1.011 31.18v15.09q0 13.3 1.944 14.46l-0.9332 1.089v16.49q0.3888 0.9332 3.888 2.1zm32.2-3.888q0 0.5444-0.7777 0.9332-0.7777-0.3888-0.7777-0.9332 0-0.6999 0.7777-1.089 0.7777 0.3888 0.7777 1.089zm3.188 3.888-0.5444 0.3888-0.4666-0.3888 0.4666-0.3888 0.5444 0.3888zm-18.12-78.78-0.6221-0.6221-0.3888 0.4666 0.3888 0.5444 0.6221-0.3888zm-30.8 21.93-0.6999-0.5444-0.4666 0.5444 0.4666 0.5444 0.6999-0.5444zm42.77 60.74q0-0.6221-0.6999-1.011-0.8554 0.3888-0.8554 1.011 0 0.6999 0.8554 1.089 0.6999-0.3888 0.6999-1.089zm-13.06-9.254-0.3888-0.4666-0.5444 0.4666 0.5444 0.3888 0.3888-0.3888z"/>
</g>
</g>
</svg>
