<?xml version="1.0" encoding="UTF-8" standalone="no"?>
<svg
   xmlns:dc="http://purl.org/dc/elements/1.1/"
   xmlns:cc="http://creativecommons.org/ns#"
   xmlns:rdf="http://www.w3.org/1999/02/22-rdf-syntax-ns#"
   xmlns:svg="http://www.w3.org/2000/svg"
   xmlns="http://www.w3.org/2000/svg"
   xmlns:xlink="http://www.w3.org/1999/xlink"
   xmlns:sodipodi="http://sodipodi.sourceforge.net/DTD/sodipodi-0.dtd"
   xmlns:inkscape="http://www.inkscape.org/namespaces/inkscape"
   inkscape:version="1.0 (4035a4fb49, 2020-05-01)"
   inkscape:export-ydpi="89"
   inkscape:export-xdpi="89"
   inkscape:export-filename="/home/marcus/src/gr-logo/help.png"
   sodipodi:docname="virtgrcon-square-talks.svg"
   viewBox="0 0 398 397"
   height="397"
   width="398"
   id="svg972"
   version="1.1">
  <metadata
     id="metadata978">
    <rdf:RDF>
      <cc:Work
         rdf:about="">
        <dc:format>image/svg+xml</dc:format>
        <dc:type
           rdf:resource="http://purl.org/dc/dcmitype/StillImage" />
        <dc:title></dc:title>
      </cc:Work>
    </rdf:RDF>
  </metadata>
  <defs
     id="defs976" />
  <sodipodi:namedview
     inkscape:current-layer="g980"
     inkscape:window-maximized="0"
     inkscape:window-y="17"
     inkscape:window-x="0"
     inkscape:cy="241.529"
     inkscape:cx="142.88363"
     inkscape:zoom="1.1196474"
     showgrid="false"
     id="namedview974"
     inkscape:window-height="1061"
     inkscape:window-width="1918"
     inkscape:pageshadow="2"
     inkscape:pageopacity="0"
     guidetolerance="10"
     gridtolerance="10"
     objecttolerance="10"
     borderopacity="1"
     bordercolor="#666666"
     pagecolor="#ffffff" />
  <g
     id="g980"
     inkscape:label="Image"
     inkscape:groupmode="layer">
    <image
       sodipodi:absref="/home/marcus/src/gr-logo/virtgrcon-square.png"
       xlink:href="virtgrcon-square.png"
       width="398"
       height="397"
       preserveAspectRatio="none"
       id="image982"
       style="opacity:1;fill:#f56c2d;fill-opacity:1"
       inkscape:export-xdpi="89"
       inkscape:export-ydpi="89" />
    <path
       d="M 198.32812 19.130859 A 183.39618 179.36995 0 0 0 15.603516 198.5 A 183.39618 179.36995 0 0 0 199 377.86914 A 183.39618 179.36995 0 0 0 382.39648 198.5 A 183.39618 179.36995 0 0 0 199 19.130859 A 183.39618 179.36995 0 0 0 198.32812 19.130859 z M 197.26367 51.794922 C 221.19967 51.794922 240.2447 57.97211 254.40039 70.326172 C 268.68478 82.680234 275.82617 99.216754 275.82617 119.93555 C 275.82617 129.71585 273.63907 138.85229 269.26367 147.3457 C 265.01697 155.71044 256.84473 165.81304 244.74805 177.65234 L 227.76172 194.25391 C 218.88224 202.74733 213.22046 209.69666 210.77539 215.10156 C 208.33032 220.50647 207.10742 227.13245 207.10742 234.98242 L 207.10742 244.05469 L 207.10742 267.79883 L 170.43164 267.79883 L 170.43164 238.07227 C 170.43164 225.46083 172.36202 214.77814 176.22266 206.02734 C 180.21199 197.14786 187.61207 187.43329 198.42188 176.88086 L 215.79297 159.70117 C 223.77163 152.10857 229.24134 145.48063 232.20117 139.81836 C 235.28969 134.15608 236.83398 128.17291 236.83398 121.86719 C 236.83398 110.41394 232.58717 101.14816 224.09375 94.070312 C 215.72902 86.992464 204.53287 83.453125 190.50586 83.453125 C 180.46818 83.453125 169.72277 85.704899 158.26953 90.208984 C 146.81628 94.584381 134.78527 101.14764 122.17383 109.89844 L 122.17383 73.607422 C 134.27051 66.272197 146.43088 60.80444 158.65625 57.201172 C 171.01031 53.597904 183.88011 51.794922 197.26367 51.794922 z M 169.08008 296.17383 L 208.26562 296.17383 L 208.26562 345.20508 L 169.08008 345.20508 L 169.08008 296.17383 z "
       style="opacity:1;fill:#999999;fill-opacity:0.58582211;stroke:#f56c2d;stroke-width:10;stroke-miterlimit:4;stroke-dasharray:none;stroke-linejoin:round;stroke-linecap:round"
       id="path1562" />
  </g>
</svg>
